<?xml version="1.0" encoding="utf-8"?>
<!-- Generator: Adobe Illustrator 25.4.1, SVG Export Plug-In . SVG Version: 6.00 Build 0)  -->
<svg version="1.1" id="Calque_1" xmlns="http://www.w3.org/2000/svg" xmlns:xlink="http://www.w3.org/1999/xlink" x="0px" y="0px"
	 viewBox="0 0 1000 1000" style="enable-background:new 0 0 1000 1000;" xml:space="preserve">
<path d="M800.41,458.99c-21.41,0.38-42.83,1.19-64.24,0.98c-15.66-0.16-27.65-9.78-32.1-23.99c-4.6-14.71-0.52-30.76,12.23-39.04
	c6.66-4.32,15.56-6.71,23.59-7.11c20.06-0.99,40.2-0.33,61.49-2.51c-2.38-2.36-4.76-4.72-7.14-7.09
	c-27.23-27.05-54.65-53.91-81.63-81.21c-16.67-16.86-16.09-36.32,0.67-52.17c14.14-13.36,32.96-13.57,47.3-0.21
	c7.85,7.31,15.32,15.04,22.93,22.6c42.94,42.62,85.91,85.21,128.8,127.88c18.18,18.09,18.18,35.98,0.04,54.27
	c-49.46,49.9-98.9,99.81-148.52,149.56c-19.28,19.33-46.95,14.25-58.82-10.41c-6.54-13.58-3.8-27.18,8.68-39.85
	c26.69-27.12,53.58-54.06,80.39-81.07c2.45-2.47,4.9-4.93,7.34-7.4C801.11,461.16,800.76,460.08,800.41,458.99z"/>
<path d="M69.61,398.28c4.35-1.3,12.71-5.59,21.25-5.98c23.67-1.08,47.42-0.83,71.14-0.55c20.88,0.25,35.06,14.76,35.16,35.06
	c0.1,20.29-13.91,34.94-34.84,35.38c-24.03,0.5-48.09,0.52-72.12,0.23c-15.1-0.19-26.24-7.72-31.7-21.73
	C52.98,426.53,55.5,413.24,69.61,398.28z"/>
<path d="M288.28,457.28c-12.99-14.06-15.92-26.79-11.07-40.9c4.82-14.02,15.28-22.22,29.83-22.72c25.64-0.88,51.35-1.04,77-0.31
	c18.92,0.54,32.22,15.83,32.32,34.82c0.11,18.95-13.08,34.43-31.98,35.13c-25.64,0.95-51.35,0.98-76.99,0.14
	C299.83,463.2,292.4,458.69,288.28,457.28z"/>
<path d="M613.16,396.75c13.43,14.34,16.02,27.23,11.07,41.2c-4.76,13.46-14.95,21.81-29.14,22.31c-25.96,0.92-52,1.14-77.96,0.34
	c-18.97-0.59-32.02-16.03-31.91-35.14c0.1-19.14,13.25-34.18,32.29-34.82c25.32-0.86,50.7-1.01,76.01-0.13
	C601.38,390.78,609.09,395.38,613.16,396.75z"/>
</svg>
