<?xml version="1.0" encoding="utf-8"?>
<!-- Generator: Adobe Illustrator 25.4.1, SVG Export Plug-In . SVG Version: 6.00 Build 0)  -->
<svg version="1.1" id="Calque_1" xmlns="http://www.w3.org/2000/svg" xmlns:xlink="http://www.w3.org/1999/xlink" x="0px" y="0px"
	 viewBox="0 0 1000 1000" style="enable-background:new 0 0 1000 1000;" xml:space="preserve">
<path d="M201.56,599.03c-10.68-62.62-8.1-124.69,6.05-185.52c20.09-86.4,57.04-156.4,124.28-194.43
	c24.87-14.07,51.19-21.47,78.51-19.09c61.92,5.39,98.59,53.01,115.7,123.28c31.37,128.85,14.67,250.16-47.41,359.52
	c-34.71,61.15-83.42,94.59-144.44,100.77c1.66,3.52,2.51,6.46,4.08,8.48c57.56,73.91,124.51,124.7,207.1,139.47
	c179.66,32.12,355.45-143.19,372.85-371.9c6.62-87.06-8.89-168.81-32.42-249.31c-2.45-8.39-4.2-24.4-1.25-26.75
	c10.62-8.48,14.57,6.3,18.91,14.65c77.55,149.18,75.76,302.51,8.87,454.83c-56.44,128.52-142.07,212.06-257.6,240.15
	c-77.42,18.82-150.11-2.65-219.46-47.33c-60.07-38.7-112.07-90.26-156.39-154.68c-5.57-8.1-13.82-15.15-21.89-18.28
	c-78.63-30.45-134.39-96.96-176.43-183.02C17.63,461.01-9.79,320.6,3.12,168.94C7.4,118.59,18.61,70.54,38.4,26.13
	c10.7-24,25.44-31.65,42.78-22.19c16.83,9.19,20.97,25.53,15.84,53.12c-33.74,181.37-12.98,350.28,72.94,503.69
	c8.09,14.45,18.47,26.85,27.78,40.2C199.01,600.31,200.28,599.67,201.56,599.03z M236.88,524.23c2.46,16.26,5.66,48.26,12.29,79.08
	c12.85,59.7,25.96,71.05,74.78,64.54C470.34,648.33,534.04,472.1,466.26,312.8c-29.15-68.52-81.18-82.35-131.39-37.11
	C272.18,332.17,238.52,409.56,236.88,524.23z"/>
<path d="M819.27,114.14c-15.94,45.42-23.07,90.02-26.71,135.5c-3.58,44.83-6.03,89.82-8.65,134.77c-0.7,12-2.41,22.47-13.92,22.69
	c-11.4,0.21-13.78-9.71-14.45-21.99c-4.78-87.62-7.88-175.18,12.82-260.61c5.33-21.99,12.91-43.29,20.95-63.97
	c6.78-17.45,19.41-22.33,31.9-12.28c67.06,53.95,127.67,116.6,167.63,206.15c3.49,7.82,6.92,15.83,9.39,24.21
	c4.34,14.72,0.55,27.01-9.77,34.85c-9.88,7.51-16.94,0.15-23.56-9.22c-33.51-47.45-66.75-95.23-101.12-141.66
	C851.05,145.39,835.49,131.58,819.27,114.14z"/>
</svg>
