<?xml version="1.0" encoding="utf-8"?>
<!-- Generator: Adobe Illustrator 25.4.1, SVG Export Plug-In . SVG Version: 6.00 Build 0)  -->
<svg version="1.1" id="Calque_1" xmlns="http://www.w3.org/2000/svg" xmlns:xlink="http://www.w3.org/1999/xlink" x="0px" y="0px"
	 viewBox="0 0 1000 1000" style="enable-background:new 0 0 1000 1000;" xml:space="preserve">
<path d="M0,136.99c1.85,16.14,3.48,32.31,5.59,48.42C22.17,312.34,72.14,424.5,155.83,521.08c95.54,110.26,214.99,180.45,357.85,210
	c41.85,8.66,84.26,12.86,127.02,12.49c43.72-0.37,77.76-34.59,77.98-78.59c0.28-55.44,0.07-110.89,0.07-166.33
	c0-3.57,0-7.15,0-12.06c2.5,1.87,4.31,2.91,5.73,4.33c61.32,61.24,122.66,122.47,183.87,183.83c18.11,18.15,18.43,41,0.59,58.9
	c-61.63,61.86-123.46,123.52-185.23,185.24c-1.07,1.07-2.31,1.98-4.97,4.25c0-14.57,0.07-27.44-0.02-40.31
	c-0.16-23.87-16.61-41.26-38.95-41.31c-22.34-0.04-38.93,17.33-39.13,41.16c-0.12,14.02-0.5,28.07,0.1,42.07
	c1.44,33.43,17.76,57.08,48.03,71.13c2.85,1.32,5.66,2.74,8.48,4.12c14.32,0,28.65,0,42.97,0c21.77-7.83,37.15-24.02,52.95-39.91
	c55.92-56.24,112.11-112.21,168.13-168.35c5.27-5.28,10.27-10.87,14.96-16.67c13.43-16.6,19.37-36.42,23.72-56.87
	c0-9.13,0-18.26,0-27.4c-1.61-6.59-2.98-13.26-4.89-19.76c-5.92-20.14-16.96-37.13-31.77-51.9
	c-62.72-62.58-125.28-125.32-188-187.88c-24.2-24.14-57.17-31.17-87.05-17.72c-31.61,14.24-47.46,39.56-47.6,74.24
	c-0.23,58.68-0.06,117.35-0.06,177.41c-6.01,0-11.71,0.22-17.39-0.03c-163.46-7.34-299.91-72.13-407.81-195.23
	C140.91,384.89,96.42,285.24,83.07,172.91c-5.02-42.22-3.45-85.22-4.99-127.87c-0.2-5.49-0.3-11.16-1.69-16.41
	C72.13,12.41,58.2,1.21,41.88,0.09C25.41-1.03,10.37,8.04,3.46,23.3c-1.2,2.65-2.31,5.35-3.46,8.02C0,66.54,0,101.77,0,136.99z"/>
</svg>
