<?xml version="1.0" encoding="utf-8"?>
<!-- Generator: Adobe Illustrator 25.4.1, SVG Export Plug-In . SVG Version: 6.00 Build 0)  -->
<svg version="1.1" id="Calque_1" xmlns="http://www.w3.org/2000/svg" xmlns:xlink="http://www.w3.org/1999/xlink" x="0px" y="0px"
	 viewBox="0 0 1000 1000" style="enable-background:new 0 0 1000 1000;" xml:space="preserve">
<path d="M802.27,600.95c9.32-13.35,19.69-25.75,27.78-40.2c85.91-153.41,106.68-322.32,72.94-503.69
	c-5.13-27.59-0.99-43.93,15.84-53.12c17.35-9.47,32.09-1.82,42.78,22.19c19.79,44.41,30.99,92.46,35.28,142.81
	c12.91,151.66-14.52,292.07-77.47,420.93c-42.04,86.06-97.8,152.57-176.43,183.02c-8.07,3.12-16.32,10.17-21.89,18.28
	c-44.33,64.42-96.32,115.98-156.4,154.68c-69.35,44.68-142.04,66.15-219.46,47.33C229.7,965.09,144.07,881.55,87.63,753.03
	C20.74,600.71,18.94,447.38,96.5,298.2c4.34-8.35,8.3-23.13,18.91-14.65c2.94,2.35,1.2,18.36-1.25,26.75
	c-23.53,80.5-39.04,162.25-32.42,249.31c17.4,228.71,193.19,404.03,372.85,371.9c82.59-14.77,149.53-65.56,207.1-139.47
	c1.57-2.02,2.42-4.96,4.08-8.48c-61.03-6.18-109.74-39.62-144.44-100.77c-62.08-109.37-78.78-230.67-47.41-359.52
	c17.11-70.27,53.78-117.89,115.7-123.28c27.32-2.38,53.64,5.02,78.51,19.09c67.24,38.03,104.19,108.03,124.28,194.43
	c14.15,60.83,16.72,122.9,6.05,185.52C799.72,599.67,800.99,600.31,802.27,600.95z M665.13,275.68
	c-50.21-45.24-102.24-31.41-131.39,37.11c-67.78,159.31-4.08,335.54,142.31,355.05c48.83,6.51,61.94-4.84,74.78-64.54
	c6.63-30.81,9.83-62.81,12.29-79.08C761.48,409.56,727.82,332.17,665.13,275.68z"/>
<path d="M180.73,114.14c15.94,45.42,23.07,90.02,26.71,135.5c3.58,44.83,6.03,89.82,8.65,134.77c0.7,12,2.41,22.47,13.92,22.69
	c11.4,0.21,13.78-9.71,14.45-21.99c4.78-87.62,7.88-175.18-12.82-260.61c-5.33-21.99-12.91-43.29-20.95-63.97
	c-6.78-17.45-19.41-22.33-31.9-12.28C111.74,102.21,51.12,164.85,11.16,254.4c-3.49,7.82-6.92,15.83-9.39,24.21
	c-4.34,14.72-0.55,27.01,9.77,34.85c9.88,7.51,16.94,0.15,23.56-9.22c33.51-47.45,66.75-95.23,101.12-141.66
	C148.95,145.39,164.51,131.58,180.73,114.14z"/>
</svg>
