<?xml version="1.0" encoding="utf-8"?>
<!-- Generator: Adobe Illustrator 25.4.1, SVG Export Plug-In . SVG Version: 6.00 Build 0)  -->
<svg version="1.1" id="Calque_1" xmlns="http://www.w3.org/2000/svg" xmlns:xlink="http://www.w3.org/1999/xlink" x="0px" y="0px"
	 viewBox="0 0 1000 1000" style="enable-background:new 0 0 1000 1000;" xml:space="preserve">
<path d="M1000,136.99c-1.85,16.14-3.48,32.31-5.59,48.42c-16.58,126.93-66.55,239.09-150.24,335.67
	c-95.54,110.26-214.99,180.45-357.85,210c-41.85,8.66-84.26,12.86-127.02,12.49c-43.72-0.37-77.76-34.59-77.98-78.59
	c-0.28-55.44-0.07-110.89-0.07-166.33c0-3.57,0-7.15,0-12.06c-2.5,1.87-4.31,2.91-5.73,4.33C214.2,552.17,152.86,613.4,91.65,674.75
	c-18.11,18.15-18.43,41-0.59,58.9c61.63,61.86,123.46,123.52,185.23,185.24c1.07,1.07,2.31,1.98,4.97,4.25
	c0-14.57-0.07-27.44,0.02-40.31c0.16-23.87,16.61-41.26,38.95-41.31c22.34-0.04,38.93,17.33,39.13,41.16
	c0.12,14.02,0.5,28.07-0.1,42.07c-1.44,33.43-17.76,57.08-48.03,71.13c-2.85,1.32-5.66,2.74-8.48,4.12c-14.32,0-28.65,0-42.97,0
	c-21.77-7.83-37.15-24.02-52.95-39.91C150.89,903.84,94.7,847.88,38.68,791.74c-5.27-5.28-10.27-10.87-14.96-16.67
	C10.3,758.46,4.36,738.65,0,718.2c0-9.13,0-18.26,0-27.4c1.61-6.59,2.98-13.26,4.89-19.76c5.92-20.14,16.96-37.13,31.77-51.9
	c62.72-62.58,125.28-125.32,188-187.88c24.2-24.14,57.17-31.17,87.05-17.72c31.61,14.24,47.46,39.56,47.6,74.24
	c0.23,58.68,0.06,117.35,0.06,177.41c6.01,0,11.71,0.22,17.39-0.03c163.46-7.34,299.91-72.13,407.81-195.23
	c74.52-85.02,119.01-184.67,132.36-297.01c5.02-42.22,3.45-85.22,4.99-127.87c0.2-5.49,0.3-11.16,1.69-16.41
	c4.26-16.21,18.2-27.42,34.52-28.53c16.47-1.12,31.5,7.95,38.41,23.2c1.2,2.65,2.31,5.35,3.46,8.02
	C1000,66.54,1000,101.77,1000,136.99z"/>
</svg>
