<?xml version="1.0" encoding="utf-8"?>
<!-- Generator: Adobe Illustrator 27.8.0, SVG Export Plug-In . SVG Version: 6.00 Build 0)  -->
<svg version="1.1" id="Calque_1" xmlns="http://www.w3.org/2000/svg" xmlns:xlink="http://www.w3.org/1999/xlink" x="0px" y="0px"
	 viewBox="0 0 1000 1000" style="enable-background:new 0 0 1000 1000;" xml:space="preserve">
<path d="M930.57,514.15c-5.16,13.68-9.47,27.74-15.62,40.96c-24.71,53.09-65.28,82.83-125.58,82.66
	c-22.08-0.06-44.16-0.01-68.37-0.01c-6.34,29.63-12.51,58.44-18.91,88.36c-21.82,0-43.59,0-66.36,0
	c21.56-107.89,42.7-214.78,64.82-321.47c1.15-5.55,10.46-13.29,16.14-13.44c42.08-1.1,84.22-1.47,126.29-0.25
	c45.11,1.31,74.16,25,87.59,67.77C930.57,477.21,930.57,495.68,930.57,514.15z M730.98,587.08c28.4-3.08,51.57-5.55,74.73-8.1
	c22.44-2.48,36.51-15.97,43.15-36.14c5.71-17.35,10.31-35.44,12.28-53.55c2.65-24.4-6.42-36.05-30.82-39.69
	c-22.96-3.42-46.39-3.79-70.52-5.57C750.14,491.97,741.11,536.8,730.98,587.08z"/>
<path d="M506.43,301c-5.53,29.13-11.07,58.26-17.02,89.59c17.89,0,34.85-0.3,51.79,0.1c12.07,0.29,24.38,0.23,36.14,2.55
	c48.79,9.63,64.34,28.22,57.25,76.89c-7.74,53.17-19.81,105.72-30.71,158.4c-0.78,3.76-7.26,8.81-11.32,9.03
	c-18.36,0.97-36.8,0.43-57.64,0.43c8.68-43.23,16.87-84.02,25.03-124.81c2.22-11.1,5.19-22.14,6.32-33.35
	c2.17-21.57-5.02-31.57-26.09-33.19c-20.44-1.57-41.1-0.34-62.33-0.34c-12.08,59.41-24.38,117.48-35.35,175.8
	c-2.35,12.51-6.89,16.81-19.29,16.15c-16.2-0.87-32.48-0.21-50.6-0.21c12.82-63.57,24.94-124.61,37.5-185.56
	c10.41-50.54,21.34-100.98,32.04-151.47C463.58,301,485,301,506.43,301z"/>
<path d="M73.44,725.84c21.93-108.79,43.57-214.87,64.37-321.12c2.39-12.19,7.82-14.42,18.62-14.3c40.67,0.45,81.36-0.39,122.02,0.4
	c56.65,1.1,91.52,37.2,90.41,93.76c-0.8,40.92-13.8,77.76-40.74,109.39c-24.65,28.93-56.43,42.34-93.82,43.57
	c-19.96,0.66-39.98,0.99-59.93,0.26c-12.24-0.45-17.78,3.34-19.74,15.97c-3.69,23.73-9.23,47.17-14.27,72.07
	C118.46,725.84,96.7,725.84,73.44,725.84z M169.47,585.97c24.79-1.85,45.9-3.08,66.94-5.06c31.21-2.93,47.99-22.29,55.28-50.8
	c3.48-13.63,6.09-27.72,6.96-41.74c1.55-25.12-6.02-34.25-31.37-39.14c-11.78-2.27-23.91-3.36-35.92-3.7
	c-33.65-0.96-33.95-0.75-40.57,31.5C183.59,512.08,177.01,547.25,169.47,585.97z"/>
<g>
</g>
<g>
</g>
<g>
</g>
<g>
</g>
<g>
</g>
<g>
</g>
</svg>
