<?xml version="1.0" encoding="utf-8"?>
<!-- Generator: Adobe Illustrator 27.8.0, SVG Export Plug-In . SVG Version: 6.00 Build 0)  -->
<svg version="1.1" id="Calque_1" xmlns="http://www.w3.org/2000/svg" xmlns:xlink="http://www.w3.org/1999/xlink" x="0px" y="0px"
	 viewBox="0 0 1000 1000" style="enable-background:new 0 0 1000 1000;" xml:space="preserve">
<style type="text/css">
	.st0{
		fill:#4273B8;
		}
	.st1{fill:#80B6E3;}
	.st2{fill:#3360AA;}
	.st3{fill:#B1CFED;}
	.st4{fill:#C2D8EF;}
	.st5{fill:#ABCAEB;}
	.st6{fill:#6A98D0;}
	.st7{fill:#ADCBEC;}
	.st8{fill:#99B2DD;}
	.st9{fill:#ABC8EA;}
	.st10{fill:#A6C4E8;}
	.st11{fill:#B4D2EF;}
	.st12{fill:#C7E2F6;}
	.st13{fill:#A1BCE3;}
	.st14{fill:#A4BEE4;}
	.st15{fill:#A9C3E7;}
	.st16{fill:#BAD7F2;}
	.st17{fill:#A2B8DF;}
	.st18{fill:#CAE3F6;}
	.st19{fill:#C2DEF5;}
	.st20{fill:#C6E0F5;}
	.st21{fill:#88ABDA;}
	.st22{fill:#E5EEF7;}
	.st23{fill:#B4C8E8;}
</style>
<path className="st0" d="M39.36,817.35c0.21-0.2,0.38-0.43,0.51-0.7c0.4-0.46,0.81-0.91,1.21-1.36c0,0,0.1-0.05,0.09-0.05
	c5.99-4.01,10.35-9.5,14-15.61c4.68-2.75,7.51-7.1,10.1-11.65c0,0-0.02-0.01-0.02-0.01c0.91-0.48,2.04-0.76,2.69-1.48
	c6.67-7.39,13.35-14.77,19.82-22.32c2.98-3.48,5.51-7.33,8.25-11.02c0,0,0.02-0.02,0.02-0.02c1.05-0.61,2.32-1.01,3.12-1.86
	c2.31-2.43,4.49-5.01,6.63-7.59c5.35-6.45,10.65-12.94,15.97-19.42c0.47-0.6,0.93-1.19,1.4-1.79c2.15-0.54,3.59-1.7,3.63-4.11
	c0,0,0.04-0.05,0.04-0.05c0.86-0.58,1.88-1.02,2.55-1.77c8.6-9.62,17.19-19.25,25.67-28.98c2.05-2.35,3.72-5.03,5.56-7.56
	c0.39-0.41,0.79-0.82,1.18-1.22c0.41-0.5,0.82-0.99,1.22-1.49c0.39-0.44,0.77-0.88,1.16-1.32c0.86-0.6,1.87-1.05,2.55-1.81
	c9.42-10.48,18.84-20.97,28.15-31.55c2.07-2.35,3.71-5.07,5.54-7.62c0,0,0,0.01,0,0.01c4.51-2.06,6.61-6.24,8.98-10.18
	c4.58-2.12,6.77-6.32,9.07-10.42c0.39-0.42,0.78-0.84,1.17-1.26c0.44-0.47,0.87-0.93,1.31-1.4c0.75-0.85,1.5-1.7,2.25-2.55
	c0.56-0.3,1.25-0.49,1.65-0.93c9.6-10.59,19.21-21.18,28.69-31.88c1.05-1.19,1.39-3.01,2.06-4.53c0,0,0,0.01,0,0.01
	c2.14-1.68,4.54-3.11,6.35-5.09c5.03-5.5,9.76-11.28,14.7-16.87c10.45-11.83,21.01-23.57,31.41-35.44
	c2.79-3.18,5.17-6.71,7.74-10.08c0.45-1.18,0.63-2.6,1.4-3.5c4.04-4.69,8.23-9.25,12.37-13.86c8-8.89,16.05-17.72,23.98-26.67
	c8.91-10.05,17.68-20.24,26.58-30.3c4.81-5.44,9.85-10.67,14.65-16.11c8.76-9.91,17.4-19.91,26.13-29.84
	c4.09-4.65,8.32-9.17,12.4-13.83c8.43-9.62,16.76-19.34,25.23-28.93c7.76-8.78,15.77-17.35,23.48-26.18
	c10.24-11.72,20.22-23.66,30.44-35.4c9.66-11.11,19.46-22.09,29.23-33.11c10.33-11.66,20.67-23.31,31.05-34.92
	c11.53-12.89,23.11-25.72,34.66-38.59c3.85-4.29,7.71-8.58,11.5-12.93c7.98-9.16,15.93-18.36,23.87-27.55
	c1.39-1.61,2.59-3.41,4.1-4.89c4.4-4.31,8.92-8.51,13.4-12.75c7.46,1.19,12.4,6.13,17.23,11.36c3.15,3.41,6.65,6.5,10,9.73
	c0,0,0.05,0.06,0.06,0.06c1.01,1.22,2.02,2.44,3.03,3.67c0.38,0.37,0.75,0.74,1.13,1.11c4.79,7.93,10.87,14.73,18.07,20.54
	c0,0,0.01,0.01,0.01,0.01c0.18,2.28,1.3,3.72,3.64,4.06c0,0-0.01,0-0.01,0c1.95,4.38,4.55,8.19,9.04,10.35
	c0.6,0.73,1.2,1.46,1.79,2.2c0.35,0.37,0.71,0.73,1.07,1.1c0.23,0.23,0.49,0.41,0.78,0.55c0.83,0.91,1.65,1.82,2.48,2.73
	c0,0,0.06,0.07,0.06,0.06c4.62,7.93,10.76,14.53,17.75,20.4c1.09,1.18,2.18,2.36,3.28,3.54c0.41,0.44,0.82,0.89,1.22,1.33
	c1.62,1.82,3.23,3.63,4.85,5.45c0,0,0,0.03,0,0.03c0.99,1.13,1.98,2.26,2.98,3.39c0,0,0.06,0.06,0.06,0.06
	c0.39,2.9,2.08,4.63,4.87,5.36c0,0-0.02,0.02-0.02,0.02c0.37,0.46,0.74,0.93,1.11,1.39l0.12-0.05c1.38,1.62,2.76,3.24,4.14,4.86
	c1.19,1.41,2.39,2.82,3.58,4.22c0.39,0.39,0.79,0.78,1.18,1.17c-0.04,0.44,0.09,0.83,0.38,1.17c3.7,3.95,7.39,7.9,11.09,11.86
	c0,0,0.06,0.06,0.06,0.06c1.41,1.57,2.82,3.14,4.23,4.72c0,0,0.01,0.01,0.01,0.01c0.81,0.9,1.62,1.81,2.43,2.71
	c0,0-0.03,0.01-0.03,0.01c3.61,6.15,7.89,11.7,13.95,15.68c0.15,0.26,0.31,0.52,0.5,0.76c2.09,5.05,5.9,8.59,10.28,11.6
	c1.15,1.37,2.31,2.75,3.46,4.12c0.43,0.51,0.86,1.01,1.29,1.52c1.28,1.23,2.55,2.47,3.83,3.7c0.54,1.22,1.08,2.43,1.62,3.65
	c-11.49,12.9-23.07,25.72-34.44,38.73c-13.62,15.6-27.03,31.39-40.59,47.04c-7.28,8.4-14.77,16.63-22.05,25.03
	c-9.79,11.3-19.43,22.73-29.2,34.05c-7.12,8.25-14.39,16.37-21.51,24.62c-12.01,13.91-23.93,27.88-35.93,41.8
	c-5.56,6.45-11.22,12.82-16.81,19.25c-6.17,7.1-12.32,14.21-18.46,21.34c-7.25,8.42-14.46,16.88-21.72,25.29
	c-6.14,7.12-12.31,14.23-18.5,21.31c-6.88,7.88-13.86,15.67-20.7,23.58c-9.63,11.14-19.11,22.41-28.74,33.55
	c-6.43,7.44-13.07,14.7-19.5,22.14c-10.06,11.64-19.95,23.42-30.03,35.03c-10.09,11.62-20.43,23.02-30.49,34.66
	c-11.44,13.26-22.61,26.75-34.05,40.02c-12.14,14.08-24.44,28.02-36.69,42.01c-7.04,8.04-14.19,15.99-21.19,24.07
	c-6.99,8.06-13.87,16.22-20.79,24.34c-7.89,9.27-15.78,18.55-23.66,27.82c-29.98,0.07-59.95,0.17-89.93,0.18
	c-17.56,0.01-35.11-0.13-52.67-0.2c-2.04-0.36-4.08-1.04-6.12-1.04c-33.63-0.07-67.26-0.06-100.89-0.05c-1.71,0-3.42,0.17-5.12,0.26
	c-3.74-0.97-7.47-1.94-11.21-2.9c-1.34-0.73-2.68-1.47-4.02-2.2c-0.45-0.06-0.91-0.12-1.36-0.19c-0.74-0.53-1.49-1.06-2.23-1.59
	c-4.34-5.98-8.69-11.97-13.03-17.95c-0.07-0.33-0.19-0.65-0.34-0.96c-0.05-1.27,0.13-2.6-0.18-3.8c-1.9-7.32-0.97-14.41,1.49-21.41
	c0.98-2.79,1.88-5.62,2.81-8.43c0,0,0.02,0.03,0.02,0.03c2.68-2.59,5.58-4.98,7.97-7.81c3.49-4.14,6.61-8.59,9.89-12.91
	c0,0,0.01-0.04,0.01-0.04C37.69,819.1,38.53,818.23,39.36,817.35z"/>
<path className="st1" d="M301.78,900.97c7.89-9.27,15.77-18.55,23.66-27.82c6.92-8.12,13.8-16.28,20.79-24.34
	c7-8.07,14.14-16.03,21.19-24.07c12.25-13.98,24.55-27.93,36.69-42.01c11.43-13.26,22.6-26.76,34.05-40.02
	c10.05-11.65,20.4-23.05,30.49-34.66c10.09-11.61,19.98-23.39,30.03-35.03c6.43-7.44,13.07-14.7,19.5-22.14
	c9.63-11.14,19.12-22.4,28.74-33.55c6.84-7.92,13.82-15.71,20.7-23.58c6.19-7.08,12.35-14.19,18.5-21.31
	c7.26-8.42,14.47-16.87,21.72-25.29c6.14-7.13,12.29-14.24,18.46-21.34c5.59-6.43,11.25-12.79,16.81-19.25
	c12-13.92,23.92-27.89,35.93-41.8c7.12-8.25,14.39-16.37,21.51-24.62c9.77-11.32,19.42-22.75,29.2-34.05
	c7.28-8.4,14.76-16.63,22.05-25.03c13.57-15.65,26.97-31.44,40.59-47.04c11.36-13.01,22.95-25.83,34.44-38.73
	c0.44-0.06,0.87-0.11,1.31-0.17c0,0,0.06,0.09,0.06,0.09c-0.02,3.25,1.99,4.7,4.82,5.4c1.24,1.34,2.48,2.67,3.72,4
	c0.23,1.76,0.41,3.56,2.82,3.61c0.83,0.88,1.66,1.75,2.49,2.63c0.44,2.89,2.26,4.51,4.94,5.33c0.13,0.31,0.27,0.62,0.42,0.93
	c3.04,4.14,5.84,8.5,9.22,12.35c2.42,2.76,5.62,4.85,8.47,7.24c0.93,1.21,1.87,2.42,2.8,3.63c0.63,3.56,2.97,5.53,6.21,6.66
	c1.33,1.67,2.65,3.34,3.98,5.01c0.17,2.36,1.55,3.56,3.78,3.95c1.79,2.07,3.57,4.15,5.36,6.22c0.28,3.05,2.14,4.64,4.95,5.35
	c0.94,1.21,1.88,2.41,2.82,3.62c1.39,4.83,5.31,7.44,9.01,10.25c0.43,0.44,0.86,0.88,1.28,1.33c0.92,4.1,3.85,6.34,7.4,8.01
	c0.96,1.19,1.92,2.38,2.88,3.57c0.01,2.46,1.36,3.69,3.7,3.99c0,0-0.01,0.01-0.01,0.01c1.35,1.64,2.71,3.29,4.06,4.94
	c0.83,0.88,1.67,1.77,2.5,2.66c0.56,3.61,2.95,5.53,6.18,6.67c1.77,2.09,3.54,4.17,5.31,6.26c0.82,0.9,1.64,1.79,2.47,2.69
	c5.63,6.37,11.26,12.75,16.88,19.12c0.04,2.45,1.42,3.65,3.71,4.02c3,3.54,6.21,6.92,8.97,10.64c4.53,6.12,8.77,12.47,13.13,18.72
	c0.35,0.5,0.69,1,1.04,1.5c0.17,0.74,0.34,1.47,0.5,2.21c0.84,4.59,2.37,8.43,4.32,10.82c0.24,2.83,0.48,5.65,0.72,8.48
	c0.02,5.33,0.04,10.65,0.07,15.97c-0.04,0.76-0.09,1.51-0.13,2.27c-0.48,2.15-0.97,4.31-1.45,6.46c-0.31,1.36-0.63,2.72-0.94,4.09
	c-0.56,1.63-1.13,3.27-1.69,4.9c-0.24,0.48-0.48,0.96-0.72,1.43c-0.24,1.19-0.48,2.38-0.72,3.57c-0.35,0.5-0.71,0.99-1.07,1.48
	c-0.1,0.35-0.19,0.7-0.26,1.05c-0.77,0.94-1.54,1.88-2.3,2.81c-3.94,5.5-7.87,11.01-11.81,16.51c-2.76,0.76-4.65,2.32-4.92,5.36
	c-1.78,2.08-3.56,4.16-5.33,6.25c-2.32,0.35-3.61,1.63-3.69,4.03c-1.77,2.08-3.55,4.17-5.32,6.25c-2.27,0.37-3.6,1.63-3.73,3.99
	c-2.18,2.53-4.36,5.06-6.55,7.59c-0.82,0.9-1.64,1.79-2.46,2.69c-3.01,3.42-6.02,6.83-9.02,10.25c-0.81,0.9-1.61,1.81-2.42,2.71
	c-1.83,2.05-3.66,4.1-5.48,6.14c-2.18,0.52-3.56,1.72-3.56,4.12c-3.47,3.82-6.93,7.65-10.39,11.47c-0.39,0.47-0.77,0.94-1.16,1.4
	c-0.54,0.77-1.07,1.54-1.61,2.31c-3.2,1.15-5.48,3.16-6.2,6.63c-1.37,1.64-2.74,3.29-4.11,4.93c-2.15,0.5-3.54,1.68-3.65,4.04
	c-5.61,6.39-11.22,12.79-16.82,19.18c-2.25,0.4-3.61,1.63-3.68,4.03c-1.66,1.79-3.32,3.58-4.98,5.36c-2.77,1.22-4.82,3.06-5.29,6.23
	c-1.76,2.09-3.53,4.19-5.29,6.28c-0.83,0.89-1.66,1.78-2.49,2.67c-1.78,2.08-3.56,4.16-5.33,6.25c-2.72,0.79-4.61,2.35-4.92,5.35
	c-0.83,0.9-1.67,1.8-2.5,2.7c-0.39,0.41-0.78,0.82-1.17,1.23c-2.74,3.32-5.47,6.63-8.21,9.95c-0.41,0.43-0.82,0.85-1.22,1.28
	c-0.82,0.9-1.65,1.79-2.47,2.69c-0.82,0.9-1.65,1.79-2.47,2.69c-0.42,0.44-0.84,0.88-1.26,1.32c-0.81,0.89-1.63,1.77-2.44,2.66
	c0,0-0.07,0.04-0.07,0.04c-0.4,0.41-0.79,0.83-1.19,1.24c-0.14,0.33-0.26,0.66-0.36,0.99c-2.75,0.76-4.55,2.4-4.96,5.34
	c-2.59,2.98-5.18,5.95-7.78,8.93c-2.33,0.33-3.68,1.56-3.69,4.02c-1.36,1.65-2.71,3.3-4.07,4.95c-2.28,0.35-3.62,1.6-3.74,3.98
	c-5.61,6.39-11.22,12.79-16.83,19.18c-0.83,0.89-1.65,1.78-2.48,2.67c0,0,0,0,0,0c-0.81,0.89-1.61,1.79-2.42,2.68
	c-1.38,1.64-2.75,3.28-4.12,4.92c-2.27,0.37-3.6,1.62-3.71,3.99c-1.37,1.64-2.73,3.29-4.1,4.93c-2.19,0.45-3.53,1.68-3.69,4.01
	c-3,3.42-6.01,6.85-9.01,10.27c-0.41,0.45-0.83,0.89-1.24,1.34c-2.18,2.53-4.36,5.07-6.54,7.6c-2.24,0.42-3.63,1.61-3.7,4.02
	c-1.79,2.07-3.58,4.14-5.37,6.21c-2.22,0.46-3.55,1.71-3.65,4.07c-4.52,4.91-9.07,9.81-13.55,14.76c-0.82,0.9-1.36,2.05-2.02,3.09
	c-0.83,0.89-1.66,1.78-2.49,2.67c-2.6,2.96-5.21,5.93-7.81,8.89c-0.81,0.91-1.63,1.81-2.44,2.72c-2.2,2.52-4.39,5.03-6.58,7.55
	c-2.74,0.78-4.67,2.3-4.91,5.37c-1.38,1.63-2.76,3.26-4.14,4.88c-4.06,1.94-7.09,4.91-8.99,9.01c-2.47,1.4-4.95,2.81-7.42,4.21
	c-3.76,1.08-7.88,1.3-10.72,4.54c-3.42,0.18-6.84,0.52-10.26,0.52c-111.44,0.03-222.87,0.03-334.31,0.01
	C306.91,901.26,304.35,901.07,301.78,900.97z"/>
<path className="st2" d="M660.25,115.01c-4.47,4.24-8.99,8.44-13.4,12.75c-1.51,1.48-2.71,3.28-4.1,4.89
	c-7.95,9.19-15.89,18.39-23.87,27.55c-3.79,4.35-7.64,8.64-11.5,12.93c-11.55,12.87-23.13,25.7-34.66,38.59
	c-10.38,11.61-20.72,23.27-31.05,34.92c-9.76,11.02-19.57,22-29.23,33.11c-10.21,11.74-20.2,23.68-30.44,35.4
	c-7.71,8.83-15.72,17.4-23.48,26.18c-8.47,9.59-16.79,19.31-25.23,28.93c-4.08,4.66-8.31,9.18-12.4,13.83
	c-8.73,9.93-17.37,19.94-26.13,29.84c-4.81,5.44-9.84,10.68-14.65,16.11c-8.9,10.06-17.67,20.25-26.58,30.3
	c-7.93,8.95-15.98,17.78-23.98,26.67c-4.14,4.6-8.33,9.16-12.37,13.86c-0.78,0.9-0.95,2.32-1.4,3.5c-1.11-0.33-2.23-0.66-3.34-0.99
	c-0.09-0.33-0.28-0.6-0.55-0.82c-0.37-0.4-0.74-0.8-1.1-1.2c-0.8-0.94-1.6-1.89-2.4-2.83c-3.93-6.62-8.74-12.47-14.97-17.08
	c-0.19-0.28-0.41-0.53-0.65-0.77c-2.89-3.5-5.77-7-8.66-10.5c-5.28-6.2-10.54-12.43-15.88-18.59c-0.63-0.73-1.69-1.08-2.56-1.61
	c0,0-0.11-0.06-0.11-0.06c-0.78-1.46-1.34-3.12-2.39-4.35c-5.95-6.92-11.96-13.8-18.08-20.56c-2.54-2.81-5.43-5.3-8.17-7.93
	c-1.91-1.99-3.82-3.98-5.73-5.97c-0.68-3.01-1.88-5.58-5.32-6.24c-0.41-0.47-0.82-0.93-1.23-1.4c-1.15-1.4-2.31-2.79-3.46-4.19
	c0,0-0.03-0.03-0.03-0.03c-0.58-0.69-1.17-1.38-1.75-2.07c0,0-0.05-0.05-0.05-0.05c-0.22-2.29-1.38-3.66-3.75-3.86
	c0,0,0-0.05,0-0.05c-0.28-2.85-2.03-4.51-4.52-5.57c0,0-0.16-0.15-0.16-0.15c-0.59-0.67-1.17-1.34-1.76-2.01
	c-0.4-0.44-0.81-0.88-1.21-1.32c-0.41-0.46-0.82-0.92-1.23-1.38c-0.81-0.88-1.63-1.75-2.44-2.63c-0.81-0.93-1.61-1.86-2.42-2.79
	c-0.57-0.71-1.15-1.43-1.72-2.14c-3.01-3.4-6.02-6.81-9.02-10.21c0,0-0.05-0.05-0.05-0.05c-0.38-2.96-2.25-4.51-4.98-5.24
	c0,0-0.01,0-0.01,0c-1.55-1.88-3.1-3.75-4.65-5.63c-0.16-0.26-0.35-0.51-0.56-0.73c-0.81-0.91-1.62-1.81-2.43-2.71l0.01,0
	c-2.2-2.51-4.4-5.02-6.59-7.53c0,0-0.04-0.03-0.04-0.03c-0.54-2.88-2.26-4.54-5.16-4.98c0,0-0.1-0.11-0.1-0.11
	c-1.12-1.42-2.23-2.84-3.35-4.26c-0.53-0.76-1.05-1.52-1.58-2.28c-0.4-0.47-0.8-0.94-1.2-1.41c-0.43-0.41-0.85-0.83-1.28-1.24
	c-0.41-0.46-0.81-0.93-1.22-1.39c0,0,0.08-0.1,0.08-0.1c-1.56-1.8-3.12-3.6-4.68-5.4c-0.66-0.69-1.31-1.38-1.97-2.07
	c-0.42-0.45-0.84-0.9-1.25-1.34c-0.39-0.44-0.78-0.89-1.17-1.33c-1.63-1.83-3.26-3.67-4.9-5.5c-0.55-0.71-1.1-1.42-1.65-2.12
	c-0.45-0.4-0.91-0.79-1.36-1.19c0,0-0.05-0.01-0.05-0.01c-1.15-1.43-2.3-2.87-3.44-4.3c-0.4-0.42-0.8-0.84-1.19-1.25
	c-0.6-0.71-1.2-1.41-1.8-2.12c0,0-0.03-0.03-0.03-0.03c-4.38-7.04-9.65-13.29-16.21-18.4c0,0-0.07-0.06-0.07-0.06
	c-0.4-0.44-0.8-0.88-1.2-1.32c-1.02-1.12-2.04-2.24-3.06-3.35c-1.56-1.87-3.12-3.73-4.69-5.6c-0.17-0.26-0.35-0.51-0.55-0.76
	c0.01-2.6-1.61-3.52-3.89-3.75c-1.19-1.39-2.37-2.78-3.56-4.18c-0.75-1-1.5-2-2.24-2.99c-0.59-0.68-1.19-1.36-1.78-2.04
	c-0.41-0.45-0.82-0.9-1.23-1.35c-0.8-0.89-1.61-1.78-2.41-2.67c-1.76-3.73-3.9-7.12-7.81-8.97c0,0,0.07-0.06,0.07-0.06
	c-1.6-1.8-3.2-3.61-4.8-5.41c-0.23-0.22-0.44-0.47-0.62-0.73c-0.4-0.48-0.81-0.96-1.21-1.45c-0.44-0.4-0.87-0.8-1.31-1.21
	c-0.84-0.86-1.68-1.71-2.52-2.57c0,0-0.01-0.06-0.01-0.06c-1.54-1.89-3.08-3.78-4.63-5.66c-0.99-1.14-1.98-2.28-2.97-3.41
	c-0.46-0.39-0.91-0.79-1.37-1.18c0,0-0.01-0.04-0.01-0.04c-0.57-3.1-2.52-5.04-5.29-6.3c-1.26-1.31-2.52-2.62-3.78-3.93
	c-3.82-4.87-7.52-9.85-11.53-14.55c-1.69-1.98-4.04-3.4-6.1-5.07c0,0-0.01-0.01-0.02-0.01c-1.2-4.83-4.79-7.71-8.51-10.49
	c0,0-0.25-0.3-0.25-0.3c0.05-0.28-0.05-0.49-0.31-0.62c-3.26-4.86-6.33-9.9-11.67-12.88c0,0,0,0.01,0,0.01
	c-1.69-3.85-3.37-7.71-5.06-11.56c-0.47-4.63-1.14-9.25-1.32-13.89c-0.1-2.69,0.61-5.42,0.96-8.13c0.2-0.69,0.4-1.38,0.59-2.08
	c0.75-1.39,1.49-2.78,2.24-4.17c0.34-0.92,0.67-1.83,1.01-2.75c0.25-0.32,0.35-0.68,0.3-1.08c0.79-0.91,1.58-1.83,2.37-2.74
	c0,0,0.01-0.02,0.01-0.02c3.54-3.33,7.08-6.66,10.63-9.98c2.5-0.95,4.99-1.9,7.49-2.84c1.73-0.38,3.46-0.75,5.18-1.12
	c1.38-0.2,2.77-0.4,4.15-0.6c1.18-0.27,2.35-0.53,3.53-0.8c1.3-0.01,2.6-0.01,3.9-0.02c8.75,0.13,17.49,0.32,26.24,0.39
	c10.89,0.09,21.78,0.09,32.68,0.12c0.61,0.07,1.23,0.14,1.84,0.21c13.94,0.03,27.88,0.05,41.82,0.08c5.25,0.15,10.51,0.3,15.76,0.44
	c2.18-0.15,4.37-0.31,6.55-0.46c14.47,0,28.95-0.01,43.42-0.01c2.25,0.02,4.5,0.04,6.75,0.06c6.76,0.02,13.51,0.05,20.27,0.07
	c10.39,0,20.78,0,31.16-0.01c2.05,0.02,4.09,0.03,6.14,0.05c2.32,0.2,4.64,0.56,6.96,0.57c10.46,0.06,20.92,0.08,31.37,0.01
	c4.03-0.03,8.07-0.33,12.1-0.5c1.62,0.01,3.25,0.01,4.87,0.02c0.91,0.09,1.82,0.18,2.73,0.27c1.28,0.06,2.56,0.17,3.84,0.18
	c54.49,0.09,108.97,0.17,163.46,0.23c1.69,0,3.39-0.25,5.08-0.38c22.25,0.11,44.51,0.24,66.76,0.31c18.83,0.06,37.67-0.11,56.5,0.18
	c5.21,0.08,10.4,1.42,15.6,2.18C658.03,112.68,659.14,113.85,660.25,115.01z"/>
<path className="st3" d="M312.45,503.4c1.12,0.33,2.23,0.65,3.34,0.99c-2.57,3.37-4.96,6.91-7.74,10.09
	c-10.4,11.87-20.96,23.61-31.41,35.44c-4.94,5.59-9.67,11.36-14.7,16.87c-1.81,1.98-4.22,3.41-6.35,5.09
	c2.89-3.87,5.56-7.93,8.7-11.58c11.55-13.4,23.24-26.67,34.9-39.98c3.65-4.17,7.44-8.22,11.01-12.46
	C311.24,506.6,311.72,504.89,312.45,503.4z"/>
<path className="st4" d="M518.05,108.86c-1.69,0.13-3.39,0.38-5.08,0.38c-54.49-0.06-108.97-0.14-163.46-0.23
	c-1.28,0-2.56-0.12-3.84-0.18c-0.01-0.41-0.02-0.81-0.04-1.22c41.76-0.01,83.52-0.02,125.28-0.04c13.49,0,26.99-0.06,40.48,0.06
	C513.61,107.65,515.83,108.43,518.05,108.86z"/>
<path className="st5" d="M200.42,635c-1.84,2.55-3.48,5.27-5.54,7.62c-9.31,10.58-18.73,21.07-28.15,31.55
	c-0.68,0.76-1.69,1.21-2.55,1.81c0.63-1.53,0.92-3.36,1.95-4.54c7.58-8.65,15.31-17.17,22.97-25.75c1.84-2.06,3.43-4.38,5.42-6.28
	C196.28,637.73,198.43,636.45,200.42,635z"/>
<path className="st6" d="M47.04,900.13c1.71-0.09,3.42-0.26,5.12-0.26c33.63-0.01,67.26-0.02,100.89,0.05c2.04,0,4.08,0.68,6.12,1.04
	c-1.27,0.13-2.53,0.37-3.8,0.37c-36.05-0.02-72.11-0.07-108.16-0.11C47.21,900.84,47.15,900.48,47.04,900.13z"/>
<path className="st3" d="M255.59,571.85c-0.67,1.53-1.01,3.35-2.06,4.53c-9.49,10.7-19.09,21.28-28.69,31.88
	c-0.4,0.44-1.09,0.63-1.65,0.93c0.33-1.23,0.29-2.77,1.04-3.63c9.45-10.84,19-21.6,28.6-32.31
	C253.47,572.53,254.66,572.31,255.59,571.85z"/>
<path className="st7" d="M160.61,680.01c-1.84,2.53-3.51,5.21-5.56,7.56c-8.49,9.72-17.08,19.35-25.67,28.98
	c-0.67,0.75-1.69,1.19-2.55,1.77c0.65-1.51,0.98-3.3,2.01-4.48c6.91-7.98,13.99-15.81,20.97-23.73c1.67-1.9,2.98-4.15,4.8-5.87
	C156.38,682.57,158.59,681.4,160.61,680.01z"/>
<path className="st3" d="M96.02,753.15c-2.74,3.68-5.27,7.54-8.25,11.02c-6.48,7.55-13.16,14.94-19.82,22.32
	c-0.65,0.72-1.78,1-2.69,1.48c1.36-2.34,2.41-4.95,4.15-6.97c4.99-5.79,10.28-11.32,15.39-17c1.84-2.05,3.36-4.41,5.32-6.32
	C91.88,755.95,94.04,754.64,96.02,753.15z"/>
<path className="st8" d="M236.93,417.1c2.73,2.63,5.63,5.12,8.17,7.93c6.13,6.76,12.13,13.64,18.08,20.56c1.06,1.23,1.61,2.89,2.39,4.35
	c-1.32-1-2.83-1.82-3.92-3.02c-7.95-8.76-15.84-17.56-23.65-26.44C237.29,419.67,237.27,418.25,236.93,417.1z"/>
<path className="st9" d="M660.25,115.01c-1.11-1.16-2.22-2.33-3.34-3.49c0.74-0.24,1.67-0.89,2.21-0.65
	c8.89,3.95,17.09,8.92,23.04,16.85c1.98,2.64,3.56,5.58,5.32,8.38c-3.35-3.23-6.85-6.32-10-9.73
	C672.65,121.14,667.71,116.2,660.25,115.01z"/>
<path className="st3" d="M121.76,724.26c-5.32,6.48-10.62,12.97-15.97,19.42c-2.14,2.59-4.32,5.16-6.63,7.59
	c-0.8,0.85-2.07,1.25-3.12,1.86c0.61-1.52,0.88-3.35,1.9-4.51c7.09-8.13,14.32-16.14,21.59-24.11
	C119.9,724.09,121,724.32,121.76,724.26z"/>
<path className="st7" d="M18.97,840.69c-0.93,2.81-1.83,5.63-2.81,8.43c-2.46,7.01-3.39,14.09-1.49,21.41c0.31,1.2,0.13,2.53,0.18,3.8
	c-3.21-1.12-2.63-4.35-3.05-6.55c-1.79-9.19,0.81-17.74,5.03-25.86C17.15,841.31,18.24,841.1,18.97,840.69z"/>
<path className="st10" d="M36.85,820.01c-3.28,4.32-6.4,8.77-9.89,12.91c-2.39,2.83-5.3,5.22-7.97,7.81c0.19-1.03,0.04-2.38,0.64-3.05
	c5.25-5.87,10.63-11.63,16.01-17.38C35.87,820.04,36.44,820.1,36.85,820.01z"/>
<path className="st11" d="M746.37,202.94c-6.99-5.86-13.13-12.47-17.75-20.4c0.62,0.05,1.51-0.14,1.81,0.19
	c5.86,6.64,11.66,13.35,17.47,20.04C747.4,202.84,746.89,202.89,746.37,202.94z"/>
<path className="st7" d="M709.76,161.48c-7.2-5.81-13.28-12.61-18.07-20.54c1.11,0.57,2.48,0.89,3.28,1.74
	c4.66,4.99,9.24,10.06,13.69,15.23C709.4,158.77,709.41,160.28,709.76,161.48z"/>
<path className="st12" d="M865.09,336.7c-2.85-2.39-6.04-4.48-8.47-7.24c-3.38-3.85-6.17-8.21-9.22-12.35c1.25,0.72,2.76,1.19,3.69,2.19
	c4.58,4.91,9.04,9.94,13.46,15.01C865.03,334.86,864.93,335.89,865.09,336.7z"/>
<path className="st8" d="M265.69,450.01c0.86,0.53,1.93,0.88,2.56,1.61c5.34,6.16,10.6,12.38,15.88,18.59c-0.43,0-0.86,0.01-1.3,0.01
	c-5.37-5.74-10.78-11.44-16.07-17.25C266.11,452.25,266.03,451.01,265.69,450.01z"/>
<path className="st13" d="M39.76,193.57c2.05,1.67,4.41,3.09,6.1,5.07c4.01,4.71,7.71,9.68,11.53,14.55c-1.07-0.66-2.36-1.12-3.18-2.01
	c-4.64-5.01-9.2-10.09-13.7-15.22C40,195.39,40,194.38,39.76,193.57z"/>
<path className="st14" d="M338.07,108.54c-4.03,0.17-8.06,0.47-12.1,0.5c-10.46,0.07-20.92,0.06-31.37-0.01
	c-2.32-0.01-4.64-0.37-6.96-0.57c1.2-0.31,2.39-0.89,3.59-0.89c14.43-0.06,28.86-0.06,43.29,0.01
	C335.7,107.59,336.89,108.21,338.07,108.54z"/>
<path className="st13" d="M118.32,282.25c6.57,5.11,11.83,11.36,16.21,18.4C127.43,296.02,122.31,289.64,118.32,282.25z"/>
<path className="st8" d="M293.43,481.48c6.23,4.6,11.03,10.46,14.97,17.08c-1.23-0.74-2.7-1.26-3.65-2.27
	c-3.61-3.87-7.11-7.85-10.52-11.9C293.64,483.68,293.68,482.46,293.43,481.48z"/>
<path className="st9" d="M15.19,875.3c4.34,5.98,8.69,11.97,13.03,17.95C21.36,890.7,15.7,882.9,15.19,875.3z"/>
<path className="st9" d="M55.18,799.62c-3.65,6.11-8,11.6-14,15.61c0.12-0.8-0.04-1.84,0.4-2.35c4-4.5,8.1-8.9,12.17-13.33
	C54.23,799.58,54.7,799.6,55.18,799.62z"/>
<path className="st10" d="M805.85,269.93c-6.05-3.98-10.33-9.53-13.95-15.68c1.26,0.7,2.81,1.14,3.74,2.14
	c3.34,3.59,6.52,7.34,9.65,11.12C805.77,268.09,805.68,269.12,805.85,269.93z"/>
<path className="st8" d="M19.01,169.27c5.34,2.98,8.41,8.01,11.67,12.88c-0.47,0.01-0.94,0.02-1.41,0.03
	C25.85,177.87,22.43,173.57,19.01,169.27z"/>
<path className="st15" d="M13.6,135.7c-0.35,2.71-1.06,5.43-0.96,8.13c0.17,4.64,0.85,9.26,1.32,13.89c-0.31,0.02-0.63,0.01-0.94-0.03
	c-0.49-0.66-1.39-1.31-1.41-1.98c-0.16-5.74-0.26-11.49-0.11-17.23C11.52,137.54,12.86,136.63,13.6,135.7z"/>
<path className="st7" d="M55.18,799.62c-0.47-0.02-0.95-0.04-1.42-0.06c2.03-2.61,3.89-5.38,6.16-7.76c1.49-1.56,3.56-2.57,5.37-3.83
	C62.69,792.53,59.85,796.88,55.18,799.62z"/>
<path className="st14" d="M281.5,108.42c-10.39,0-20.78,0-31.16,0.01c1.4-0.31,2.79-0.88,4.19-0.9c7.59-0.09,15.18-0.09,22.77,0
	C278.7,107.54,280.1,108.11,281.5,108.42z"/>
<path className="st16" d="M989.11,513.01c-0.02-5.32-0.05-10.65-0.07-15.97c0.62,0.54,1.75,1.06,1.77,1.62
	c0.16,4.22,0.16,8.45,0.02,12.66C990.8,511.91,989.71,512.45,989.11,513.01z"/>
<path className="st5" d="M785.21,246.75c-3.7-3.95-7.39-7.9-11.09-11.86c0.44-0.03,0.87-0.06,1.31-0.08
	C779.63,238.01,783.63,241.38,785.21,246.75z"/>
<path className="st5" d="M722.44,175.9c-4.49-2.16-7.09-5.97-9.04-10.35C718.63,167.07,720.74,171.31,722.44,175.9z"/>
<path className="st10" d="M816.63,282.29c-4.39-3.02-8.19-6.55-10.28-11.6C810.91,273.55,815.17,276.68,816.63,282.29z"/>
<path className="st9" d="M209.4,624.83c-2.37,3.94-4.47,8.12-8.98,10.18c1.4-5.05,4.82-8.51,8.94-11.43
	C209.35,623.99,209.36,624.41,209.4,624.83z"/>
<path className="st17" d="M282.83,470.22c0.43,0,0.86-0.01,1.3-0.01c2.89,3.5,5.77,7,8.66,10.5C288.28,478.33,284.79,475,282.83,470.22z
	"/>
<path className="st13" d="M30.75,112.89c-3.54,3.33-7.08,6.66-10.63,9.98C21.25,116.98,26.1,115.05,30.75,112.89z"/>
<path className="st17" d="M191.14,365.03c3.01,3.4,6.02,6.81,9.02,10.21C195.8,373.04,192.39,369.98,191.14,365.03z"/>
<path className="st13" d="M31.24,183.06c3.71,2.79,7.31,5.67,8.51,10.49c-2.69-2.54-5.45-5-8.01-7.67
	C31.18,185.31,31.38,184.02,31.24,183.06z"/>
<path className="st5" d="M209.4,624.83c-0.04-0.42-0.05-0.83-0.04-1.25c2.93-3.16,4.03-8.15,9.11-9.18
	C216.17,618.51,213.98,622.7,209.4,624.83z"/>
<path className="st18" d="M903.99,381.39c-3.69-2.81-7.61-5.42-9.01-10.25C899.51,373.22,903.1,376.12,903.99,381.39z"/>
<path className="st18" d="M672.19,891.98c1.9-4.1,4.93-7.07,8.99-9.01C679.87,887.66,676.87,890.65,672.19,891.98z"/>
<path className="st8" d="M13.01,157.69c0.31,0.04,0.63,0.05,0.94,0.03c1.69,3.85,3.37,7.71,5.06,11.56
	C15.05,166.44,13.82,162.18,13.01,157.69z"/>
<path className="st9" d="M47.04,900.13c0.11,0.35,0.17,0.71,0.18,1.08c-4.81,0.26-9.38-0.33-13.15-3.74c0.59-0.08,1.17-0.17,1.76-0.25
	C39.57,898.19,43.31,899.16,47.04,900.13z"/>
<path className="st13" d="M85.83,245.21c3.91,1.85,6.05,5.24,7.81,8.97C89.14,252.84,87.46,249.05,85.83,245.21z"/>
<path className="st18" d="M912.67,390.73c-3.55-1.67-6.48-3.92-7.4-8.01C909.07,384.17,912,386.41,912.67,390.73z"/>
<path className="st19" d="M988.32,488.56c-1.95-2.39-3.49-6.23-4.32-10.82C987.77,480.41,988.44,484.33,988.32,488.56z"/>
<path className="st20" d="M654.04,900.73c2.84-3.24,6.96-3.46,10.72-4.54C662.2,900.09,657.98,900.07,654.04,900.73z"/>
<path className="st17" d="M171.87,343.12c2.2,2.51,4.4,5.02,6.59,7.53C174.64,349.57,172.51,347,171.87,343.12z"/>
<path className="st19" d="M896.16,638.79c0.72-3.47,3-5.48,6.2-6.63C901.99,635.96,899.6,637.87,896.16,638.79z"/>
<path className="st12" d="M931.99,412.57c-3.23-1.14-5.62-3.06-6.18-6.67C929.2,406.89,931.61,408.79,931.99,412.57z"/>
<path className="st12" d="M874.1,346.99c-3.24-1.13-5.58-3.09-6.21-6.66C871.34,341.27,873.73,343.18,874.1,346.99z"/>
<path className="st21" d="M173.34,108.77c-5.25-0.15-10.51-0.3-15.76-0.44c5.24-0.24,10.48-0.47,15.72-0.71
	C173.3,108,173.32,108.38,173.34,108.77z"/>
<path className="st17" d="M225.89,404.89c3.44,0.66,4.64,3.23,5.32,6.24C228.45,409.89,226.29,408.14,225.89,404.89z"/>
<path className="st20" d="M857.62,682.56c0.47-3.17,2.52-5.01,5.29-6.23C862.59,679.62,861.1,681.94,857.62,682.56z"/>
<path className="st8" d="M61.16,217.13c2.76,1.26,4.71,3.21,5.29,6.3C63.31,222.49,61.66,220.29,61.16,217.13z"/>
<path className="st15" d="M144.07,311.68c1.63,1.83,3.26,3.67,4.9,5.5C145.92,316.6,143.97,315.05,144.07,311.68z"/>
<path className="st11" d="M763.63,222.1c-2.79-0.73-4.48-2.45-4.87-5.36C761.59,217.43,763.34,219.1,763.63,222.1z"/>
<path className="st18" d="M892.17,367.52c-2.81-0.71-4.67-2.3-4.95-5.35C890.15,362.77,892.04,364.33,892.17,367.52z"/>
<path className="st13" d="M70.8,228.07c1.54,1.89,3.09,3.78,4.63,5.66C72.63,232.87,70.68,231.32,70.8,228.07z"/>
<path className="st21" d="M81.1,239.74c1.6,1.8,3.2,3.61,4.8,5.41C83.07,244.45,81.23,242.85,81.1,239.74z"/>
<path className="st20" d="M839.59,703.12c0.32-3,2.2-4.56,4.92-5.35C844.45,701,842.53,702.53,839.59,703.12z"/>
<path className="st8" d="M211.09,387.67c2.49,1.05,4.24,2.72,4.52,5.57C212.97,392.3,210.95,390.86,211.09,387.67z"/>
<path className="st19" d="M833.02,300.61c-2.84-0.7-4.84-2.15-4.82-5.4C830.94,296,832.85,297.52,833.02,300.61z"/>
<path className="st13" d="M181.44,354.11c1.55,1.88,3.1,3.75,4.65,5.63C183.32,358.87,181.28,357.4,181.44,354.11z"/>
<path className="st18" d="M685.31,878.08c0.24-3.06,2.18-4.58,4.91-5.37C690.11,875.9,688.2,877.44,685.31,878.08z"/>
<path className="st8" d="M109.3,271.91c1.56,1.87,3.12,3.73,4.69,5.6C111.2,276.68,109.44,274.97,109.3,271.91z"/>
<path className="st17" d="M166.68,338.11c2.9,0.44,4.62,2.1,5.16,4.98C170.12,341.43,168.4,339.77,166.68,338.11z"/>
<path className="st20" d="M963.1,562.96c0.27-3.04,2.15-4.61,4.92-5.36C967.9,560.78,966,562.33,963.1,562.96z"/>
<path className="st12" d="M846.99,316.18c-2.68-0.82-4.49-2.44-4.94-5.33C845.16,311.27,847.04,312.83,846.99,316.18z"/>
<path className="st18" d="M811.27,735.25c0.41-2.93,2.21-4.58,4.96-5.34C816.15,733.15,814.27,734.73,811.27,735.25z"/>
<path className="st17" d="M186.11,359.74c2.73,0.73,4.6,2.28,4.98,5.24C188.44,364.17,186.61,362.59,186.11,359.74z"/>
<path className="st16" d="M755.73,213.27c-1.62-1.82-3.23-3.63-4.85-5.45C753.85,208.42,755.72,210.01,755.73,213.27z"/>
<path className="st8" d="M153.36,321.93c1.56,1.8,3.12,3.6,4.68,5.4C155.02,326.79,153.01,325.38,153.36,321.93z"/>
<path className="st22" d="M43.41,108.92c-1.73,0.38-3.45,0.75-5.18,1.12c2.09-3.64,2.87-3.95,6.5-2.59
	C44.29,107.94,43.85,108.43,43.41,108.92z"/>
<path className="st12" d="M923.31,403.24c-1.35-1.65-2.71-3.29-4.06-4.94C922.44,398.43,923.19,400.58,923.31,403.24z"/>
<path className="st16" d="M987.53,521.75c0.48-2.15,0.96-4.31,1.45-6.46c-0.09,2.14-0.19,4.29-0.28,6.43
	C988.3,521.72,987.91,521.73,987.53,521.75z"/>
<path className="st5" d="M789.49,251.53c-1.41-1.57-2.82-3.14-4.23-4.72C788.68,246.58,789.31,248.85,789.49,251.53z"/>
<path className="st20" d="M762.43,790.58c0.11-2.38,1.45-3.62,3.71-3.99C766.14,789.06,764.81,790.3,762.43,790.58z"/>
<path className="st20" d="M945.02,583.47c0.14-2.37,1.46-3.62,3.73-3.99C948.78,582,947.45,583.25,945.02,583.47z"/>
<path className="st18" d="M734.14,822.74c0.06-2.42,1.46-3.6,3.7-4.02C737.88,821.23,736.54,822.47,734.14,822.74z"/>
<path className="st18" d="M725.12,833.02c0.1-2.36,1.43-3.61,3.65-4.07C728.9,831.52,727.57,832.77,725.12,833.02z"/>
<path className="st7" d="M126.79,718.36c-0.03,2.41-1.48,3.57-3.63,4.11C123.16,720.03,124.48,718.76,126.79,718.36z"/>
<path className="st13" d="M137.56,304.05c1.15,1.43,2.3,2.87,3.44,4.3C138.61,307.91,137.41,306.53,137.56,304.05z"/>
<path className="st7" d="M713.41,165.55c-2.34-0.35-3.45-1.79-3.64-4.06C712.13,161.82,713.46,163.07,713.41,165.55z"/>
<path className="st18" d="M799.81,748.19c0.01-2.46,1.36-3.69,3.69-4.02C803.44,746.59,802.15,747.88,799.81,748.19z"/>
<path className="st18" d="M792,757.13c0.12-2.38,1.46-3.63,3.74-3.98C795.73,755.64,794.39,756.88,792,757.13z"/>
<path className="st13" d="M215.62,393.28c2.37,0.21,3.53,1.57,3.75,3.86C218.12,395.86,216.87,394.57,215.62,393.28z"/>
<path className="st8" d="M104.86,267.41c2.28,0.22,3.9,1.14,3.89,3.75C107.45,269.91,106.15,268.66,104.86,267.41z"/>
<path className="st20" d="M867.9,670.97c0.07-2.4,1.43-3.62,3.68-4.03C871.66,669.47,870.27,670.67,867.9,670.97z"/>
<path className="st18" d="M919.25,398.3c-2.34-0.3-3.69-1.53-3.7-3.99C917.9,394.6,919.2,395.87,919.25,398.3z"/>
<path className="st20" d="M915.52,616.98c0.01-2.4,1.38-3.6,3.56-4.12C919.24,615.39,917.91,616.64,915.52,616.98z"/>
<path className="st20" d="M754.63,799.51c0.16-2.32,1.5-3.55,3.69-4.01C758.48,798.11,757.11,799.32,754.63,799.51z"/>
<path className="st13" d="M221.2,399.3c1.15,1.4,2.31,2.79,3.46,4.19C222.46,402.96,220.98,401.83,221.2,399.3z"/>
<path className="st19" d="M888.4,647.76c0.1-2.35,1.49-3.54,3.65-4.04C892.25,646.35,890.87,647.54,888.4,647.76z"/>
<path className="st20" d="M954.07,573.23c0.09-2.39,1.38-3.68,3.69-4.03C957.81,571.71,956.46,572.94,954.07,573.23z"/>
<path className="st12" d="M960.36,444.66c-2.29-0.37-3.67-1.57-3.71-4.02C959.02,440.93,960.39,442.15,960.36,444.66z"/>
<path className="st12" d="M881.86,355.95c-2.23-0.39-3.61-1.6-3.78-3.95C880.54,352.16,881.96,353.33,881.86,355.95z"/>
<path className="st17" d="M163.23,333.74c1.12,1.42,2.23,2.84,3.35,4.26C164.3,337.5,163.49,335.84,163.23,333.74z"/>
<path className="st11" d="M772.56,232.55c-1.19-1.41-2.39-2.81-3.58-4.22C771.44,228.65,772.57,230.11,772.56,232.55z"/>
<path className="st14" d="M173.34,108.77c-0.02-0.38-0.04-0.77-0.04-1.15c2.2,0.23,4.4,0.46,6.6,0.69
	C177.71,108.46,175.52,108.61,173.34,108.77z"/>
<path className="st14" d="M230.06,108.36c-2.25-0.02-4.5-0.04-6.75-0.06C225.56,108.32,227.81,108.34,230.06,108.36z"/>
<path className="st8" d="M16.43,129.45c-0.75,1.39-1.49,2.78-2.24,4.17c0.38-1.38,0.76-2.76,1.13-4.15
	C15.69,129.46,16.06,129.45,16.43,129.45z"/>
<path className="st16" d="M746.37,202.94c0.51-0.05,1.02-0.11,1.53-0.16c0.58,1.23,1.16,2.47,1.75,3.7
	C748.56,205.3,747.47,204.12,746.37,202.94z"/>
<path className="st11" d="M758.7,216.68c-0.99-1.13-1.98-2.26-2.98-3.39C758.38,212.96,758.52,214.84,758.7,216.68z"/>
<path className="st5" d="M690.56,139.83c-1.01-1.22-2.02-2.45-3.03-3.67c0.95,0.74,1.9,1.47,2.85,2.21c0.05,0.47,0.09,0.93,0.14,1.4
	L690.56,139.83z"/>
<path className="st20" d="M987.53,521.75c0.39-0.01,0.78-0.02,1.16-0.03c0.09,1.78,0.09,3.51-2.11,4.12
	C986.9,524.47,987.21,523.11,987.53,521.75z"/>
<path className="st19" d="M839.56,308.23c-2.41-0.05-2.6-1.85-2.82-3.61C837.68,305.82,838.62,307.02,839.56,308.23z"/>
<path className="st19" d="M828.14,295.12c-0.44,0.06-0.87,0.11-1.31,0.17c-0.54-1.22-1.08-2.43-1.62-3.65
	C827.66,291.56,828.06,293.2,828.14,295.12z"/>
<path className="st15" d="M35.83,897.22c-0.58,0.08-1.17,0.17-1.76,0.25c-0.78-0.42-1.56-0.85-2.33-1.27c0.04-0.39,0.07-0.78,0.07-1.18
	C33.15,895.75,34.49,896.49,35.83,897.22z"/>
<path className="st18" d="M979.83,541.08c0.77-0.94,1.54-1.87,2.3-2.81C981.36,539.21,980.59,540.14,979.83,541.08z"/>
<path className="st20" d="M936.01,593.76c0.82-0.9,1.64-1.79,2.46-2.69C937.65,591.96,936.83,592.86,936.01,593.76z"/>
<path className="st18" d="M924.57,606.72c0.81-0.9,1.61-1.81,2.42-2.71C926.18,604.91,925.37,605.81,924.57,606.72z"/>
<path className="st20" d="M849.85,691.52c0.83-0.89,1.66-1.78,2.49-2.67C851.5,689.74,850.68,690.63,849.85,691.52z"/>
<path className="st18" d="M821.55,723.66c0.82-0.9,1.65-1.79,2.47-2.69C823.19,721.86,822.37,722.76,821.55,723.66z"/>
<path className="st5" d="M39.36,817.35c-0.83,0.88-1.67,1.75-2.5,2.63C37.69,819.1,38.53,818.23,39.36,817.35z"/>
<path className="st20" d="M772.69,778.98c0.83-0.89,1.65-1.78,2.48-2.67C774.34,777.2,773.51,778.09,772.69,778.98z"/>
<path className="st13" d="M20.11,122.89c-0.79,0.91-1.58,1.83-2.37,2.74C18.52,124.72,19.32,123.81,20.11,122.89z"/>
<path className="st20" d="M770.27,781.66c0.81-0.89,1.61-1.79,2.42-2.68C771.88,779.88,771.07,780.77,770.27,781.66z"/>
<path className="st13" d="M16.43,129.45c-0.37,0-0.74,0.01-1.11,0.02c0.7-0.92,1.41-1.84,2.11-2.77
	C17.1,127.62,16.76,128.54,16.43,129.45z"/>
<path className="st5" d="M791.93,254.25c-0.81-0.9-1.62-1.81-2.43-2.71C790.32,252.44,791.12,253.34,791.93,254.25z"/>
<path className="st18" d="M707.06,853.55c0.83-0.89,1.66-1.78,2.49-2.67C708.72,851.77,707.89,852.66,707.06,853.55z"/>
<path className="st18" d="M696.81,865.16c0.81-0.91,1.63-1.81,2.44-2.72C698.43,863.35,697.62,864.26,696.81,865.16z"/>
<path className="st17" d="M201.88,377.38c0.81,0.93,1.61,1.86,2.42,2.79C203.49,379.24,202.69,378.31,201.88,377.38z"/>
<path className="st19" d="M939.76,421.52c-0.82-0.9-1.64-1.79-2.47-2.69C938.12,419.72,938.94,420.62,939.76,421.52z"/>
<path className="st13" d="M178.45,350.66c0.81,0.9,1.62,1.81,2.43,2.71C180.07,352.47,179.26,351.57,178.45,350.66z"/>
<path className="st11" d="M728.57,182.48c-0.83-0.91-1.65-1.82-2.48-2.73C728.02,179.65,728.93,180.49,728.57,182.48z"/>
<path className="st14" d="M99.06,260.24c0.75,1,1.5,1.99,2.24,2.99C100.55,262.24,99.81,261.24,99.06,260.24z"/>
<path className="st22" d="M55,107.51c-1.3,0.01-2.6,0.01-3.9,0.02C52.39,105.89,53.69,105.89,55,107.51z"/>
<path className="st18" d="M817.85,727.64c0.81-0.89,1.63-1.78,2.44-2.66C819.47,725.87,818.66,726.75,817.85,727.64z"/>
<path className="st21" d="M43.41,108.92c0.44-0.49,0.88-0.98,1.32-1.47c0.94,0.29,1.89,0.58,2.83,0.87
	C46.18,108.53,44.8,108.72,43.41,108.92z"/>
<path className="st9" d="M75.43,233.79c0.84,0.86,1.68,1.71,2.52,2.57C77.12,235.51,76.28,234.65,75.43,233.79z"/>
<path className="st13" d="M134.57,300.68c0.6,0.71,1.2,1.41,1.8,2.12C135.77,302.09,135.17,301.38,134.57,300.68z"/>
<path className="st14" d="M345.63,107.61c0.02,0.41,0.03,0.81,0.04,1.22c-0.91-0.09-1.82-0.18-2.73-0.27
	C343.84,108.24,344.73,107.93,345.63,107.61z"/>
<path className="st13" d="M219.42,397.2c0.58,0.69,1.16,1.38,1.75,2.07C220.58,398.58,220,397.89,219.42,397.2z"/>
<path className="st8" d="M209.18,385.51c0.59,0.67,1.17,1.34,1.76,2.01C210.35,386.85,209.76,386.18,209.18,385.51z"/>
<path className="st13" d="M66.46,223.48c0.46,0.39,0.91,0.79,1.37,1.18C67.37,224.26,66.92,223.87,66.46,223.48z"/>
<path className="st18" d="M835.91,707.05c0.39-0.41,0.78-0.82,1.17-1.23C836.7,706.24,836.31,706.65,835.91,707.05z"/>
<path className="st18" d="M826.48,718.28c0.41-0.43,0.82-0.85,1.22-1.28C827.3,717.43,826.89,717.85,826.48,718.28z"/>
<path className="st11" d="M764.92,222.29c0.14,0.29,0.3,0.58,0.4,0.88c0.01,0.04-0.32,0.19-0.49,0.29c0,0-0.12,0.06-0.12,0.05
	C764.84,223.11,764.9,222.71,764.92,222.29z"/>
<path className="st23" d="M157.95,327.43c0.41,0.46,0.81,0.93,1.22,1.39C158.77,328.35,158.36,327.89,157.95,327.43z"/>
<path className="st7" d="M764.92,222.29c-0.01,0.42-0.08,0.82-0.2,1.22c-0.37-0.46-0.74-0.93-1.11-1.39
	C764.04,222.18,764.48,222.23,764.92,222.29z"/>
<path className="st19" d="M983.49,475.52c-0.35-0.5-0.69-1-1.04-1.5C982.8,474.52,983.15,475.02,983.49,475.52z"/>
<path className="st18" d="M816.59,728.92c0.39-0.41,0.79-0.83,1.19-1.24C817.39,728.09,816.99,728.5,816.59,728.92z"/>
<path className="st13" d="M29.27,182.18c0.47-0.01,0.94-0.02,1.41-0.03c0.26,0.13,0.36,0.34,0.31,0.62
	C30.42,182.57,29.85,182.37,29.27,182.18z"/>
<path className="st11" d="M725.3,179.2c-0.36-0.37-0.71-0.73-1.07-1.1C724.59,178.47,724.95,178.83,725.3,179.2z"/>
<path className="st7" d="M690.53,139.77c-0.05-0.47-0.09-0.93-0.14-1.4C690.43,138.84,690.48,139.3,690.53,139.77z"/>
<path className="st18" d="M982.39,537.22c0.36-0.49,0.71-0.99,1.07-1.48C983.1,536.23,982.75,536.72,982.39,537.22z"/>
<path className="st21" d="M115.76,108.24c-0.61-0.07-1.23-0.14-1.84-0.21C114.53,108.1,115.15,108.17,115.76,108.24z"/>
<path className="st18" d="M744.38,811.12c0.42-0.45,0.83-0.89,1.24-1.34C745.21,810.23,744.79,810.68,744.38,811.12z"/>
<path className="st5" d="M41.09,815.29c-0.41,0.45-0.81,0.91-1.21,1.36C40.28,816.2,40.68,815.74,41.09,815.29z"/>
<path className="st5" d="M220.94,611.74c-0.44,0.47-0.87,0.93-1.31,1.4C220.07,612.67,220.5,612.21,220.94,611.74z"/>
<path className="st13" d="M141.06,308.36c0.45,0.4,0.91,0.79,1.36,1.19C141.97,309.16,141.51,308.76,141.06,308.36z"/>
<path className="st19" d="M821.38,287.94c-0.43-0.51-0.86-1.01-1.29-1.52C820.52,286.92,820.95,287.43,821.38,287.94z"/>
<path className="st23" d="M310.8,501.38c0.37,0.4,0.74,0.8,1.1,1.2C311.53,502.18,311.17,501.78,310.8,501.38z"/>
<path className="st13" d="M117.05,280.87c0.4,0.44,0.8,0.88,1.2,1.32C117.85,281.75,117.45,281.31,117.05,280.87z"/>
<path className="st15" d="M150.14,318.51c0.42,0.45,0.84,0.9,1.25,1.34C150.97,319.41,150.55,318.96,150.14,318.51z"/>
<path className="st19" d="M903.96,629.85c0.39-0.47,0.77-0.94,1.16-1.4C904.74,628.92,904.35,629.39,903.96,629.85z"/>
<path className="st18" d="M984.18,532.17c0.24-0.48,0.48-0.96,0.72-1.43C984.66,531.21,984.42,531.69,984.18,532.17z"/>
<path className="st8" d="M206.74,382.8c0.41,0.46,0.82,0.92,1.23,1.38C207.56,383.72,207.15,383.26,206.74,382.8z"/>
<path className="st21" d="M79.27,237.57c0.4,0.48,0.81,0.96,1.21,1.45C80.08,238.53,79.67,238.05,79.27,237.57z"/>
<path className="st9" d="M31.81,895.02c-0.01,0.39-0.03,0.78-0.07,1.18c-0.43-0.45-0.86-0.91-1.29-1.36
	C30.91,894.9,31.36,894.96,31.81,895.02z"/>
<path className="st11" d="M775.42,234.81c-0.44,0.03-0.87,0.06-1.31,0.08c-0.29-0.34-0.42-0.72-0.38-1.17
	C774.3,234.08,774.86,234.44,775.42,234.81z"/>
<path className="st8" d="M160.45,330.06c0.4,0.47,0.8,0.94,1.2,1.41C161.25,331,160.85,330.53,160.45,330.06z"/>
<path className="st14" d="M96.05,256.86c0.41,0.45,0.82,0.9,1.23,1.35C96.87,257.76,96.46,257.31,96.05,256.86z"/>
<path className="st7" d="M163.02,677.3c-0.41,0.5-0.82,0.99-1.22,1.49C162.2,678.29,162.61,677.79,163.02,677.3z"/>
<g>
</g>
<g>
</g>
<g>
</g>
<g>
</g>
<g>
</g>
<g>
</g>
</svg>
