<?xml version="1.0" encoding="utf-8"?>
<!-- Generator: Adobe Illustrator 27.8.0, SVG Export Plug-In . SVG Version: 6.00 Build 0)  -->
<svg version="1.1" id="Calque_1" xmlns="http://www.w3.org/2000/svg" xmlns:xlink="http://www.w3.org/1999/xlink" x="0px" y="0px"
	 viewBox="0 0 1000 1000" style="enable-background:new 0 0 1000 1000;" xml:space="preserve">
<style type="text/css">
	.st0{fill:#77CBEC;}
	.st1{fill:#A7DBF3;}
	.st2{fill:#D3ECF9;}
	.st3{fill:#C2E5F9;}
</style>
<path class="st0" d="M789.65,229.37c0.38,16.48-1.19,32.85-3.5,49.12c-2.89,20.4-6.34,40.72-9.69,61.96
	c1.4,0.48,3.49,1.26,5.61,1.93c27.99,8.93,55.37,19.38,81.65,32.57c21.75,10.91,42.46,23.51,61.34,38.96
	c17,13.92,31.44,29.98,41.35,49.79c7.08,14.14,9.76,29.26,8.09,44.79c-1.75,16.23-8.41,30.82-18.03,44.01
	c-16.17,22.19-36.97,39.24-60.03,53.71c-36.36,22.82-75.69,39.04-116.55,51.75c-0.79,0.24-1.51,0.7-2.81,1.32
	c0.94,5.07,1.93,10.16,2.81,15.28c2.81,16.38,6.36,32.69,8.19,49.18c2.63,23.66,4.25,47.48,2.72,71.31
	c-1.49,23.2-4.91,46.09-13.88,67.8c-7.22,17.48-17.25,32.88-32.94,44.01c-10.34,7.33-21.87,11.56-34.43,13.42
	c-23.63,3.49-46.16-1.2-68.17-9.11c-35.76-12.84-67.46-32.89-97.2-56.12c-13.46-10.51-26.23-21.9-39.32-32.87
	c-1.11-0.93-2.31-1.74-3.84-2.88c-3.02,2.51-6.01,4.8-8.78,7.33c-25.81,23.52-53.35,44.75-83.48,62.47
	c-23.21,13.65-47.55,24.74-74.11,30.25c-16.89,3.5-33.88,4.3-50.72,0.03c-23.76-6.03-40.44-21.06-52.03-42.2
	c-9.75-17.8-14.95-37-17.99-56.98c-2.39-15.69-3.38-31.48-3.21-47.24c0.17-15.76,1.93-31.52,3.22-47.26
	c1.7-20.61,5.71-40.85,10.02-61.04c0.82-3.84,0.9-5.63-4.31-7.23c-33.78-10.4-66.43-23.62-97.42-40.67
	c-23.2-12.76-45.02-27.56-63.49-46.75c-11.34-11.78-21.06-24.79-27.09-40.16c-9.81-25.01-7.4-49.14,5.86-72.3
	c12.97-22.67,31.81-39.74,52.78-54.69c28.39-20.23,59.49-35.3,91.94-47.69c12.41-4.74,25.07-8.83,37.6-13.24
	c1.36-0.48,2.69-1.06,4.24-1.67c-1.75-8.92-3.67-17.52-5.07-26.2c-2.27-14.12-4.23-28.3-6.27-42.46c-3.18-22.02-3.13-44.2-2.3-66.33
	c1.06-28.46,6.23-56.08,19.85-81.54c9.56-17.87,23.07-31.54,42.07-39.44c8.08-3.36,16.53-4.97,25.12-5.68
	c23.41-1.93,45.73,2.96,67.42,11.4c32.76,12.75,62.23,31.2,89.85,52.61c14.32,11.1,27.81,23.29,41.69,34.97
	c1.1,0.93,2.29,1.74,3.84,2.91c2.14-1.97,4.12-3.81,6.12-5.63c33.07-30.1,68.42-56.97,108.75-76.8
	c17.88-8.79,36.44-15.81,56.15-18.96c20.9-3.34,41.53-2.97,61.11,6.86c17.13,8.6,29.06,22.17,37.78,38.8
	c8.1,15.45,12.97,32.01,15.71,49.2c2.39,14.99,4.09,30.06,3.78,45.28C787.9,222.63,787.9,226,789.65,229.37z M354.74,643.73
	c0.14-0.46,0.27-0.91,0.41-1.37c-0.75-1.5-1.37-3.09-2.26-4.5c-16.63-26.16-32.57-52.72-46.54-80.43c-0.62-1.23-1.58-2.28-3.01-4.31
	c-10.06,25.24-18.48,49.97-25.82,75.53c8.78,2.22,16.81,4.7,25.01,6.22C319.88,638.09,337.33,640.81,354.74,643.73z M448.34,697.23
	c3.86,4.97,7.49,10.14,11.62,14.88c12.33,14.11,24.84,28.07,37.33,42.04c1.04,1.17,2.49,1.97,3.68,2.89
	c16.52-15.24,48.04-52.78,50.05-59.73c-1.23-0.16-2.42-0.44-3.61-0.45c-32.87-0.29-65.74-0.56-98.61-0.83
	C448.65,696.42,448.5,696.82,448.34,697.23z M499.01,653.88c0,0.09,0,0.18,0,0.27c4.01,0,8.03,0.03,12.04-0.01
	c10.98-0.11,21.98,0.01,32.95-0.43c12.42-0.5,24.8-1.81,37.22-2.15c4.38-0.12,7.24-1.41,9.36-4.99c0.75-1.27,1.65-2.45,2.48-3.67
	c18.75-27.6,36.19-56.01,52.01-85.36c9.51-17.64,18.08-35.78,27.25-53.6c1.75-3.4,1.36-6.05-0.26-9.39
	c-14.49-29.82-29.68-59.27-47.16-87.45c-11.45-18.46-23.6-36.48-35.38-54.74c-1.49-2.31-3.19-3.62-6.08-3.77
	c-12.83-0.71-25.65-2.11-38.49-2.33c-40.94-0.69-81.89-1.35-122.77,2.24c-6.38,0.56-11.22,2.5-14.82,8.52
	c-8.67,14.47-18.25,28.39-27.13,42.74c-18.66,30.18-35.33,61.46-50.82,93.38c-2.38,4.9-2.58,9.02-0.02,14.21
	c15.24,30.86,31.16,61.35,49.4,90.55c10.28,16.46,21.08,32.59,31.62,48.89c1.68,2.59,3.57,4.45,7.01,4.62
	c14.1,0.72,28.18,1.94,42.29,2.39C472.81,654.21,485.91,653.88,499.01,653.88z M733.32,328.43c0.69-1.55,1.31-2.46,1.49-3.44
	c2.73-15.33,5.53-30.65,8.01-46.03c0.9-5.59,0.94-11.31,1.51-16.96c0.65-6.47,2.07-12.93,2.08-19.39
	c0.02-15.18-0.25-30.37-1.07-45.52c-0.87-16.08-3.97-31.87-10.55-46.62c-9.92-22.25-21.23-30.86-45.44-29.83
	c-9.55,0.41-19.22,2.66-28.45,5.39c-21.84,6.46-41.54,17.57-60.6,29.82c-18.68,12-36.09,25.7-52.9,40.18
	c-5.54,4.77-10.87,9.78-16.47,14.84c3.59,4.01,6.7,7.44,9.75,10.92c11.39,13.02,23.06,25.81,34.06,39.16
	c11.67,14.16,22.74,28.82,33.96,43.35c1.63,2.11,3.13,3.75,6.02,3.96c5.01,0.36,10.01,0.9,14.98,1.62
	c9.36,1.36,18.7,2.87,28.03,4.39c14.53,2.38,29.09,4.63,43.58,7.3C711.86,323.5,722.29,326.03,733.32,328.43z M469.73,788.66
	c-5.91-6.45-11.14-11.95-16.13-17.66c-9.43-10.8-18.97-21.52-28-32.65c-11.29-13.92-22.12-28.21-33.13-42.36
	c-1.69-2.17-3.21-3.95-6.52-4.15c-5.82-0.34-11.59-1.58-17.38-2.39c-9.38-1.32-18.8-2.36-28.13-3.95
	c-22.38-3.83-44.81-7.42-66.84-13.08c-2.14-0.55-4.42-0.58-6.75-0.86c-0.41,1.4-0.7,2.17-0.86,2.97
	c-3.46,17.27-7.74,34.39-8.97,52.07c-0.89,12.8-2.75,25.55-3.32,38.36c-0.81,17.92,0.48,35.81,3.51,53.51
	c2.32,13.57,5.87,26.75,12.79,38.84c6.78,11.83,16.19,19.43,30.25,21.36c10.11,1.39,19.78-0.07,29.37-2.33
	c28.81-6.8,54.18-21.06,78.17-37.79c14.34-10,28.01-20.98,41.72-31.86C456.39,801.21,462.68,794.98,469.73,788.66z M765.1,382.31
	c-1.23,3.66-2.25,6.42-3.09,9.23c-10.32,34.61-22.86,68.39-37.54,101.38c-2.2,4.95-1.66,9.11,0.44,13.79
	c13.14,29.27,24.39,59.27,34.13,89.84c2.04,6.39,4.06,12.79,6.29,19.81c2.86-0.64,5.54-1.02,8.07-1.84
	c28.75-9.35,56.77-20.46,83.25-35.16c20.38-11.31,39.71-24.08,55.85-41.14c6.27-6.63,11.59-13.9,15.49-22.23
	c5.52-11.78,5.19-23.46-1.04-34.62c-3.57-6.39-7.93-12.5-12.79-17.97c-16.62-18.73-37.32-32.18-59.08-44.09
	c-19.66-10.76-40.17-19.69-61.23-27.32C784.57,388.61,775.13,385.66,765.1,382.31z M234.4,617.6c1.03-1.49,1.51-1.96,1.71-2.52
	c0.97-2.79,1.93-5.58,2.77-8.4c9.96-33.6,22.22-66.36,36.3-98.43c2.55-5.81,2.48-10.57-0.02-16.18
	c-14-31.42-25.87-63.66-36.18-96.47c-1.32-4.19-2.57-8.39-3.95-12.9c-2.05,0.54-3.68,0.86-5.23,1.39
	c-8.58,2.93-17.19,5.77-25.7,8.91c-32.18,11.89-63.08,26.33-90.99,46.54C98.67,450,85.27,461.57,75.97,477.08
	c-5.52,9.21-9.55,19.09-6.28,30.01c1.79,5.98,4.37,11.92,7.64,17.23c10.18,16.51,25.16,28.25,40.78,39.16
	c19.81,13.83,41.18,24.9,63.44,34.12C198.86,604.76,216.6,610.9,234.4,617.6z M734.42,671.28c-1.16-0.22-1.59-0.43-1.97-0.36
	c-23.54,4.67-47.01,9.71-70.63,13.93c-14.67,2.63-29.55,4.16-44.36,5.9c-4.1,0.48-6.89,1.98-9.38,5.38
	c-21.56,29.49-44.46,57.89-69.62,84.43c-2.27,2.39-4.24,5.06-7.06,8.46c1.77,1.3,3.19,2.23,4.48,3.3
	c9.87,8.26,19.55,16.74,29.58,24.79c25.62,20.56,52.87,38.55,83.43,51.01c15.53,6.34,31.59,10.63,48.56,10.12
	c12.81-0.38,23.23-5.51,30.62-16.23c5.56-8.07,9.39-16.93,12.19-26.3c4.93-16.47,6.34-33.5,7.21-50.46
	c0.72-14.06,0.26-28.33-1.26-42.33c-2.1-19.43-5.6-38.72-8.67-58.04C736.8,680.19,735.43,675.6,734.42,671.28z M266.37,328.57
	c2.63-0.48,4.66-0.79,6.66-1.22c12.56-2.67,25.06-5.67,37.69-7.97c13.65-2.48,27.41-4.36,41.13-6.42
	c9.14-1.37,18.29-2.65,27.45-3.89c10.03-1.36,10.04-1.32,16.09-9.83c0.73-1.03,1.52-2.02,2.28-3.04
	c20.35-27.21,41.78-53.53,65.24-78.16c1.98-2.08,3.64-4.48,5.56-6.88c-1.54-1.71-2.52-3.1-3.78-4.16
	c-12.13-10.15-24-20.63-36.53-30.27c-24.32-18.71-49.94-35.33-78.79-46.42c-15.69-6.03-31.75-10.22-48.75-8.63
	c-4.34,0.41-8.85,1.31-12.79,3.08c-11.45,5.14-17.99,14.98-22.81,26.03c-7.44,17.03-10.34,35.21-11.33,53.5
	c-1.2,22.29-1.19,44.68,2.29,66.84c2.57,16.41,5.6,32.75,8.47,49.11C264.91,322.89,265.65,325.46,266.37,328.57z M552.63,302.42
	c-16.97-21.43-34.01-41.61-52.65-60.38c-12.97,11.12-49.19,54.05-51.27,60.38C482.91,302.42,517.21,302.42,552.63,302.42z
	 M644.37,642.88c0.3,0.38,0.61,0.76,0.91,1.15c2.85-0.48,5.71-0.9,8.55-1.46c21.25-4.15,42.46-8.45,63.74-12.41
	c5.17-0.96,5.95-2.8,4.36-7.4c-7.71-22.29-15.47-44.56-23.27-66.81c-0.35-1.01-1.24-1.84-2.33-3.39
	C680.18,583.92,663.4,614.04,644.37,642.88z M303.17,446.71c17.74-30.89,34.78-60.56,52.25-90.97c-26.46,3.7-52.14,8.7-78.43,15.1
	C284.23,396.74,293.07,421.54,303.17,446.71z M644.87,355.71c17.81,30.72,34.88,60.16,52.46,90.48
	c9.54-24.93,18.56-49.59,25.5-75.47C696.9,364.47,671.6,359.56,644.87,355.71z"/>
<path class="st1" d="M789.65,229.37c-1.75-3.37-1.75-6.74,0-10.11C791.4,222.63,791.4,226,789.65,229.37z"/>
<path class="st2" d="M354.74,643.73c0.13-0.45,0.27-0.91,0.4-1.37C355.01,642.82,354.88,643.27,354.74,643.73z"/>
<path class="st3" d="M448.81,696.02c-0.15,0.4-0.31,0.81-0.46,1.21C448.5,696.82,448.65,696.42,448.81,696.02z"/>
<path class="st0" d="M588.26,500.28c0.69,47.56-39.53,88-88.34,87.89c-48.5-0.11-88.33-40.1-88.21-88.88
	c0.12-46.99,39.41-88.12,89.27-87.75C548.33,411.89,589.07,451.08,588.26,500.28z"/>
<g>
</g>
<g>
</g>
<g>
</g>
<g>
</g>
<g>
</g>
<g>
</g>
</svg>
