<?xml version="1.0" encoding="utf-8"?>
<!-- Generator: Adobe Illustrator 27.8.0, SVG Export Plug-In . SVG Version: 6.00 Build 0)  -->
<svg version="1.1" id="Calque_1" xmlns="http://www.w3.org/2000/svg" xmlns:xlink="http://www.w3.org/1999/xlink" x="0px" y="0px"
	 viewBox="0 0 1000 1000" style="enable-background:new 0 0 1000 1000;" xml:space="preserve">
<style type="text/css">
	.st0{fill:#FFFFFF;}
	.st1{fill:#E78CB6;}
	.st2{fill:#E78EB7;}
	.st3{fill:#E790B8;}
	.st4{fill:#E495B9;}
	.st5{fill:#E49EBF;}
</style>
<path class="st0" d="M910,208.5c-0.33-0.33-0.67-0.67-1-1C909.33,207.83,909.67,208.17,910,208.5z"/>
<path class="st0" d="M90,791.5c0.33,0.33,0.67,0.67,1,1C90.67,792.17,90.33,791.83,90,791.5z"/>
<path class="st0" d="M909,792.5c0.33-0.33,0.67-0.67,1-1C909.67,791.83,909.33,792.17,909,792.5z"/>
<path class="st1" d="M494.64,946.08C250.19,949.41,44.88,746.94,47.23,496.16C49.49,254,245.92,52.26,497.64,53.89
	c242.83,1.58,444.83,199.55,442.81,451.73C938.51,746.15,739.08,948.63,494.64,946.08z M484.57,534.13c0-4.48,0.18-9.16-0.03-13.82
	c-0.54-11.84-7.22-18.11-19.03-16.93c-12.22,1.23-22.38,7.32-31.18,15.61c-6.46,6.08-11.83,13.77-19.16,18.39
	c-14.47,9.11-29.89,16.71-45.12,24.56c-1.9,0.98-5.73,0.59-7.4-0.74c-17.84-14.22-35.75-28.38-52.98-43.32
	c-15.96-13.84-29.26-29.48-28.64-52.68c0.56-21.02,11.04-37.54,24.95-51.5c30.56-30.67,67.51-51.74,107.62-67.44
	c31.3-12.24,63.43-20.16,97.25-14.21c9.66,1.7,19.55,5.22,27.96,10.22c15.54,9.23,14.52,27.21,8.15,44.93
	c-7.49,20.84-23.06,35.64-40.66,48.28c-25.71,18.45-54.75,28.2-86.08,29.92c-16.9,0.93-33.88-1.13-47.04-14.3
	c-1.63-1.63-4.25-2.26-6.41-3.35c-0.73,0.57-1.47,1.15-2.2,1.72c1.39,3.61,2.11,7.69,4.28,10.74c8.67,12.2,20.96,19.13,35.5,21.53
	c26.82,4.44,53.05,1.48,78.95-6.72c44.08-13.96,76.15-40.66,92.69-84.65c13.45-35.78-0.41-68.57-35.61-83.1
	c-31.28-12.91-63.44-13.16-96.02-6.04c-37.75,8.25-72.72,23.7-105.82,43.05c-33.25,19.44-63.57,42.74-84.09,76.35
	c-10.22,16.74-19.26,34.92-11.92,54.57c5.04,13.5,12.91,27.25,23.1,37.23c16.61,16.27,36.09,29.64,54.49,44.06
	c8.17,6.4,16.67,12.38,25.69,19.04c-8.66,5.06-15.6,8.99-22.41,13.13c-19.22,11.68-39.14,22.42-53.01,41.07
	c-11.44,15.38-16.81,32.24-10.11,50.69c2.54,6.99,7.89,16.14,13.92,18.02c11.78,3.67,25.68,6.14,37.42,3.46
	c57.15-13.06,82.22-68.35,66.79-116.84c-0.71-2.22-0.67-6.36,0.63-7.26c7.57-5.23,15.63-9.75,25.13-15.47
	c-0.41,3.56-0.41,4.68-0.67,5.74c-5.55,22.91-7.47,45.68,2.9,67.88c3.81,8.15,7.95,16.06,18.44,17.28
	c10.67,1.24,17.46-3.62,21.83-12.98c3-6.43,6.37-12.7,9.64-19c1.75-3.37,3.63-6.67,5.45-10c1.77,6.28,0.5,12.31,2.1,17.44
	c1.9,6.07,5,13.49,9.91,16.49c7,4.27,13.27-1.74,18.11-7.34c2.32-2.68,4.99-5.24,6.6-8.32c11.17-21.49,22.27-43.03,33.05-64.72
	c5.13-10.33,9.49-21.04,14.69-32.68c3.79,10.83,5.3,21.22,10.63,28.97c8.96,13.03,2.99,21.19-5.4,30.36
	c-8.19,8.95-16.11,18.24-23.18,28.07c-2.62,3.64-4.41,9.94-3.02,13.73c1.06,2.9,7.73,5.22,11.88,5.18c7.29-0.07,15-0.98,21.74-3.58
	c23.27-8.98,41.1-23.56,32.85-53.17c-3.21-11.5-1.52-20.41,5.81-29.04c0.74-0.87,1.02-2.13,1.62-3.14
	c6.52-11.02,13.06-22.03,20.09-33.86c5.14,14.19,9.74,26.91,15.07,41.62c-3.23,2.78-7.75,6.17-11.66,10.17
	c-9.48,9.7-16.08,20.96-18.78,34.54c-1.28,6.44-1.43,12.82,4.27,15.89c4.39,2.36,11.09,3.22,15.75,1.67
	c8.27-2.74,16.2-7.16,23.51-12.04c18-12.01,22.19-24.84,16.82-45.8c-0.6-2.34,1.58-7.54,3.37-8.02c27.76-7.38,55.14-7.43,81.12,6.75
	c22.4,12.22,25.81,37.25,7.79,55.08c-2,1.98-3.5,4.49-6.76,8.76c4.3-0.68,5.74-0.64,6.96-1.14c21.84-8.97,29.96-33.24,18.9-54.89
	c-15.58-30.48-48.18-39.93-79.44-37.05c-11.34,1.04-22.35,5.39-33.62,7.64c-2.81,0.56-7.97-0.26-8.8-2
	c-3.53-7.37-7.64-15.22-8.14-23.1c-0.68-10.91,1.75-22,2.74-33.03c0.3-3.36,1.74-8.3,0.11-9.86c-6.14-5.88-14.06-4.87-21.85-3.33
	c-5.33,1.05-9.09,2.88-10.61,8.93c-5.93,23.5-18.13,44.15-30.42,64.71c-1.72,2.87-3.73,5.57-6.05,9
	c-10.7-19.06-10.42-37.36-3.68-56.02c2.55-7.07,0.5-10.63-6.87-11.82c-14.44-2.34-23.07,2.95-27.73,16.97
	c-0.28,0.84-0.71,1.63-1.07,2.45c-13.39,30.24-26.74,60.5-40.22,90.7c-2.88,6.45-6.22,12.7-9.35,19.04
	c-0.92-0.32-1.84-0.64-2.76-0.96c0.58-5.48,0.67-11.07,1.83-16.43c2.9-13.31,6.51-26.47,9.42-39.78
	C502.85,537.15,502.68,537.11,484.57,534.13z"/>
<path class="st2" d="M358.58,586.74c6.73,25.12,2.31,45.69-12.95,62.89c-7.25,8.17-16.98,14.73-26.71,19.95
	c-7.22,3.88-17.13,7.18-24.04-0.46c-6.61-7.31-3.96-16.86-0.9-25.21c6.02-16.39,19.52-26.51,32.77-36.43
	C336.34,600.3,346.83,594.33,358.58,586.74z"/>
<path class="st3" d="M433.09,620.87c-10.72-21.86-7.27-43.05,2.52-62.94c7.16-14.54,13.1-31.87,35.93-34.28
	C464.04,558.95,453.07,591.44,433.09,620.87z"/>
<path class="st4" d="M623.29,602.85c-1.84-12.28,6.81-27.9,18.68-34.46C647.31,583.64,640.19,597.2,623.29,602.85z"/>
<path class="st5" d="M545.26,620.11c8.07-9.44,15.62-18.27,23.54-27.54C571.02,604.6,558.63,619.17,545.26,620.11z"/>
<g>
</g>
<g>
</g>
<g>
</g>
<g>
</g>
<g>
</g>
<g>
</g>
</svg>
