<?xml version="1.0" encoding="utf-8"?>
<!-- Generator: Adobe Illustrator 27.8.0, SVG Export Plug-In . SVG Version: 6.00 Build 0)  -->
<svg version="1.1" id="Calque_1" xmlns="http://www.w3.org/2000/svg" xmlns:xlink="http://www.w3.org/1999/xlink" x="0px" y="0px"
	 viewBox="0 0 1000 1000" style="enable-background:new 0 0 1000 1000;" xml:space="preserve">
<style type="text/css">
	.st0{fill:#0A6D72;}
	.st1{fill:#1E9CA3;}
	.st2{fill:#4ABCCA;}
	.st3{fill:#FDFAF9;}
	.st4{fill:#2D9090;}
</style>
<path class="st0" d="M532.06,383.59c0.18,59.66,0.24,119.32,0.69,178.98c0.06,8.41,2.04,16.8,3.13,25.2c0,0,0,0,0,0
	c-1.23,53.37-2.46,106.74-3.69,160.11c0,0,0,0,0,0c-12.25,5.53-24.39,15.47-36.78,15.8c-41.51,1.09-83.14-0.8-124.65-2.83
	c-5.71-0.28-11.06-7.81-16.58-11.98c0,0,0,0,0,0c-4.85-3.12-9.69-8.95-14.55-8.97c-100.48-0.37-200.96-0.08-301.45,0.07c0,0,0,0,0,0
	c-0.61-0.77-1.35-1.13-2.22-1.09c-1.87-0.87-4.37-2.03-6.23-2.9c-0.87-1.1-1.98-1.54-3.31-1.32c0,0,0,0,0,0
	c-1.8-1.36-3.6-2.72-5.4-4.08c0,0,0.09,0.09,0.09,0.09c-1.41-1.63-2.82-3.26-4.23-4.89c0,0,0.26,0.24,0.26,0.24
	c-3.06-5.66-6.12-11.31-9.19-16.97c0,0,0,0,0,0c0-147.4,0-294.8,0-442.19c0-8.54,0-9.66,0-21.68v-2.78c0-1.48,1.18-1.35,1.55-1.6
	c76.57-2.25,153.15-4.5,230.99-6.79c0,0,0,0,0,0c3.15-13.38,6.37-27.11,9.6-40.83c0,0,0,0,0,0c0.38-0.67,0.67-1.37,0.86-2.09
	c7-15.34,13.91-30.5,20.91-45.84c0.96-1.56,1.92-3.11,2.88-4.67c0,0,0,0,0,0c0.66-0.1,1.07-0.37,1.23-0.81
	c1.21-2.7,2.38-5.32,3.59-8.02c7.7-10.53,12.18-24.83,21.83-33.08c33.05-28.29,66.24-56.85,108.4-71.54
	c19.26-6.71,37.32-16.23,57.71-20.38c0,0,0,0,0,0c32.51-1.85,60.69,0,91.04,0c0,0,0,0,0,0C574.3,9.1,592.68,17.66,605.2,21.4
	c33.89,10.11,33.22,13.72,48.67,24.29c2.78,1.77,5.56,3.54,8.34,5.3c0,0,0,0,0,0c12.79,9.38,25.58,18.75,38.37,28.13
	c22.59,32.94,43.28,63.11,65.87,96.05l1.43,5.29c0,0,0,0,0,0c1,1.8,1.99,3.59,2.99,5.39c4.63,18.64,9.03,36.33,13.66,54.97
	c-0.25,13.1-0.49,26.2-0.74,39.31c0,0,0,0,0,0c-26.26-0.05-52.73-2.23-78.75,0.26c-65.74,6.29-120.07,34.85-160.3,88.35
	c-3.19,4.25-8,7.29-12.05,10.89 M353.44,399.78C353.44,399.78,353.44,399.78,353.44,399.78c0-11.6,0.59-26.4-0.44-41.08
	c-0.24-3.43-5.46-8.36-9.26-9.41c-45.8-12.61-91.8-13.85-136.21,4.47c-28.34,11.69-45.38,35.81-46.79,65.84
	c-1.15,24.48,7.81,48.65,31.54,61.61c27.52,15.04,56.26,27.82,84.22,42.07c15.99,8.15,30.93,19.06,25.28,39.68
	c-5.29,19.3-21.92,23.5-40.56,24.69c-34.87,2.22-66.08-8.51-96.99-25.46c0,0,0,0,0,0v58.62c0,0,0,0,0,0
	c45.71,15.95,92,19.77,139.07,9.49c27.64-6.03,57.51-35.9,60.38-58.4c5.48-42.95-7.9-71.22-43.34-89.14
	c-25.6-12.95-52.6-23.42-77.13-38.06c-9.04-5.39-17.01-18.32-17.24-28.84c-0.51-22.59,19.81-27.43,36.42-26.65
	C291.66,390.57,320.73,395.75,353.44,399.78z"/>
<path class="st1" d="M535.88,587.77c-1.09-8.4-3.06-16.79-3.13-25.2c-0.45-59.66-0.51-119.32-0.69-178.98
	c0.34-1.3,0.56-2.63,0.65-3.97c4.05-3.6,8.86-6.64,12.05-10.89c40.23-53.5,94.56-82.05,160.3-88.35
	c26.02-2.49,52.49-0.31,78.75-0.26c7.23,2.84,14.46,5.69,21.69,8.53l0.05,0.03c2.87,1.13,5.74,2.25,8.61,3.38
	c2.94,0.36,5.87,0.72,8.81,1.08c46.92,21.47,88.69,49.87,121.45,90.38c1.3,1.65,2.6,3.3,3.9,4.96
	c14.58,36.05,34.89,70.93,43.74,108.16c0,26.01,0,52.02,0,78.03c-4.32,15.99-8.65,31.99-12.97,47.98
	c-8.62,20.14-17.24,40.28-25.86,60.42c-7.37,5.59-14.75,11.19-22.12,16.78c-2.15,2.17-4.29,4.34-6.44,6.5c0,0-0.98,1.19-0.98,1.19
	c-5.99,6.34-11.97,12.68-17.96,19.01c-1.7,1.2-3.39,2.4-5.09,3.6c-21.37,13.23-42.75,26.46-64.12,39.69
	c-2.98,0.25-5.96,0.5-8.94,0.75c-23.08,5.52-46.16,11.05-69.25,16.57c-5.96,0.1-11.92,0.21-17.88,0.31
	c-2.71-5.93-8.13-12.07-7.7-17.76c4.18-54.7-22.7-97.19-57.2-133.79C638.64,596.79,589.72,582.76,535.88,587.77z"/>
<path class="st2" d="M671.26,925.75c-25.39,18.86-15.88,12.45-54.97,34.7c-12.44,5.42-28.19,10.15-40.42,8.72
	c-30.35,0-60.69,0-91.04,0c-11.48,0-11.7,0.55-18.9-2.17c-7.88-3.15-13.27-7.2-19.8-14.62c-1.66-2.25-12.05-11.47-13.73-12.83
	c-31.4-25.51-26.56-26.34-46.29-52.98l0,0c-0.9-0.66-1.64-1.22-2.54-1.88l-26.3-53.68c-0.82-10.71-1.56-20.29-2.38-31l0.05-0.16
	c38.7,1.26,77.57,5.34,116.05,2.99c38.83-2.37,63.2-16.31,61.2-54.95c1.23-53.37,2.46-106.74,3.69-160.11
	c53.84-5.01,102.76,9.02,139.67,48.17c34.5,36.59,69.08,78.06,64.9,132.76c-0.43,5.69,0.82,11.05,0,18.79
	c-3.54,39.54-19.16,74.77-38.81,108.56"/>
<path class="st3" d="M353.44,399.78c-32.72-4.03-61.79-9.21-91.03-10.57c-16.07-0.75-35.61,3.75-36.41,24.51
	c-0.39,10.21,7.6,25.19,16.35,30.46c24.76,14.91,52.1,25.48,78.01,38.58c35.44,17.93,48.82,46.2,43.34,89.14
	c-2.87,22.5-32.74,52.36-60.38,58.4c-47.07,10.28-93.36,6.46-139.07-9.49c0-19.54,0-38.14,0-58.62
	c30.92,16.95,62.13,27.67,96.99,25.46c18.64-1.18,35.27-5.39,40.56-24.69c5.65-20.62-9.29-31.52-25.28-39.68
	c-27.96-14.25-56.7-27.04-84.22-42.07c-23.73-12.97-32.69-37.14-31.54-61.61c1.41-30.03,18.45-54.16,46.79-65.84
	c44.41-18.31,90.41-17.08,136.21-4.47c3.81,1.05,9.02,5.98,9.26,9.41C354.03,373.38,353.44,388.18,353.44,399.78z"/>
<path class="st4" d="M532.19,747.88c2,38.64-22.37,52.58-61.2,54.95c-38.48,2.35-77.35-1.73-116.05-2.99
	c-1.14-16.94-2.29-33.88-3.43-50.82c0.89-0.09,1.78-0.14,2.67-0.15c5.52,4.17,10.87,11.7,16.58,11.98
	c41.52,2.03,83.14,3.92,124.65,2.83C507.8,763.35,519.94,753.41,532.19,747.88z"/>
<g>
</g>
<g>
</g>
<g>
</g>
<g>
</g>
<g>
</g>
<g>
</g>
</svg>
