<?xml version="1.0" encoding="utf-8"?>
<!-- Generator: Adobe Illustrator 27.8.0, SVG Export Plug-In . SVG Version: 6.00 Build 0)  -->
<svg version="1.1" id="Calque_1" xmlns="http://www.w3.org/2000/svg" xmlns:xlink="http://www.w3.org/1999/xlink" x="0px" y="0px"
	 viewBox="0 0 1000 1000" style="enable-background:new 0 0 1000 1000;" xml:space="preserve">
<style type="text/css">
	.st0{fill:#95BF48;}
	.st1{fill:#5F8E3E;}
</style>
<path class="st0" d="M610.45,925.85c-108.69-19.97-217.39-39.84-326.05-59.95c-54.11-10.01-108.14-20.43-163.7-30.95
	c7.88-62.78,15.17-123.09,23.07-183.32c14.49-110.6,29.87-221.09,43.51-331.79c2.25-18.3,10.18-28.68,26.41-30.78
	c58.62-7.57,91.02-37.82,106.31-97.08c12.62-48.91,43.03-92.39,88.49-119.66c36.45-21.86,75.13-37.41,112.96-0.54
	c1.91,1.86,4.84,3.51,7.41,3.72c52.29,4.27,74.43,41.35,90.9,83.7c14.36,0,27.95,0,41.55,0c-3.44,46.49-7.95,92.92-10.11,139.47
	c-4.67,100.93-7.99,201.92-12.19,302.87c-1.75,42.04-4.56,84.04-6.51,126.07c-3.07,66.25-5.83,132.51-8.72,198.76
	c0,0-0.28,0.11-0.28,0.1C619.15,926.27,614.8,926.06,610.45,925.85z M261.42,670.29c-6.48,20.71-14.04,42.68-19.83,65.12
	c-1.21,4.68,2.83,12.25,6.67,16.45c36.16,39.48,120.5,56.41,170.38,34.75c80.57-34.99,101.28-151.96,37.27-216.12
	c-18.44-18.48-42.16-31.73-60.33-50.41c-9.81-10.09-21.18-30.06-17.23-39.41c5.63-13.34,23.95-28.12,38.14-29.56
	c25.91-2.64,52.77,4.05,81.32,7.07c9.7-29.14,20.25-60.84,31.53-94.73c-64.05-21.92-122.51-15.53-177.43,18.13
	c-69.46,42.56-106.5,170.39-10.89,232.72c10.06,6.55,18.86,15.67,26.63,24.95c12.9,15.43,18.91,33.08,6.32,51.57
	c-12.11,17.78-30.45,18.36-47.88,11.27C304.57,693.35,284.25,681.69,261.42,670.29z M334.63,251.1c17.76-5.07,34.93-8.8,51.08-15.14
	c6.67-2.62,14.53-10.07,16.05-16.66c12.5-53.97,35.43-101.09,85.03-133.12C419.61,65.85,350.61,165.45,334.63,251.1z M433.84,220.95
	c14.56-4.62,24.01-7.67,33.5-10.61c60.14-18.68,65.27-29.13,43.84-89.6c-0.61-1.71-1.94-3.16-3.72-5.98
	C466.1,136.26,448.39,173.97,433.84,220.95z M553.07,183.52c14.65-4.5,26.34-8.1,45.19-13.89c-17.82-24.28-32.42-44.16-47.01-64.04
	c-2.21,1.66-4.42,3.33-6.63,4.99C547.26,133.37,549.9,156.16,553.07,183.52z"/>
<path class="st1" d="M623.78,926.38c2.89-66.25,5.64-132.51,8.72-198.76c1.95-42.03,4.76-84.03,6.51-126.07
	c4.2-100.95,7.51-201.94,12.19-302.87c2.16-46.55,6.67-92.98,10.11-139.47c7.45,4.84,17.01,8.12,21.98,14.8
	c21.37,28.75,50.3,41.49,84.67,38.95c26.38-1.95,30.91,12.86,33.83,33.07c14.87,102.72,30.19,205.38,45.31,308.06
	c14.98,101.75,29.91,203.51,44.77,305.28c0.39,2.66-0.29,5.49-0.76,12.51C802.53,889.95,713.15,908.16,623.78,926.38z"/>
<path class="st1" d="M610.45,925.85c4.35,0.21,8.7,0.42,13.06,0.63C619.15,926.28,614.8,926.07,610.45,925.85z"/>
<g>
</g>
<g>
</g>
<g>
</g>
<g>
</g>
<g>
</g>
<g>
</g>
</svg>
