<?xml version="1.0" encoding="utf-8"?>
<!-- Generator: Adobe Illustrator 27.8.0, SVG Export Plug-In . SVG Version: 6.00 Build 0)  -->
<svg version="1.1" id="Calque_1" xmlns="http://www.w3.org/2000/svg" xmlns:xlink="http://www.w3.org/1999/xlink" x="0px" y="0px"
	 viewBox="0 0 1000 1000" style="enable-background:new 0 0 1000 1000;" xml:space="preserve">
<style type="text/css">
	.st0{fill:#2A74BA;}
	.st1{fill:#2C74BA;}
</style>
<path class="st0" d="M481.86,93.34c7.13,1.2,14.26,2.41,21.39,3.61c7.69,2.08,15.38,4.16,23.06,6.24
	c17.48,6.08,34.96,12.15,52.44,18.23c15.79,9.37,31.57,18.73,47.36,28.1c2.24,2.16,4.49,4.33,6.73,6.49
	c8.94,10.14,17.91,20.28,19.46,34.57c-0.43,3.16-1.25,6.31-1.25,9.47C650.99,314.73,651,429.4,651,544.07c0,3.19,0,6.38,0,8.85
	c-4.54,1.58-7.92,2.76-11.3,3.94c-3.89,0.89-7.79,1.79-11.68,2.68c-8.19,1.83-16.38,3.66-24.56,5.48
	c-6.59,2.59-13.17,5.19-19.76,7.78c-1.63,0.61-3.27,1.22-4.9,1.83c-8.25,4.79-16.49,9.58-24.74,14.37
	c-4.43,3.29-8.86,6.59-13.29,9.88c-3.78,3.27-7.56,6.53-11.34,9.8c-4.71,4.94-9.43,9.88-14.14,14.82
	c-4.02,6.09-8.05,12.19-12.07,18.28c-0.87,0.97-1.74,1.94-2.61,2.91c-4.11,5.63-8.21,11.26-12.32,16.88c-11.96,0-23.91,0-35.87-0.01
	c-17.09,1.99-32.56,8.83-47.93,15.96c-29.31,15.32-49.91,38.49-62.39,69c-2.58,7.71-5.16,15.41-7.74,23.12
	c-1.1,12.5-2.19,25-3.29,37.5c0.47,2.78,0.95,5.56,1.42,8.34c-0.11,2.07-0.22,4.14-0.35,6.64c-3.65,0-6.61,0-9.58,0
	c-3.33-0.47-6.66-0.95-10-1.42c-16.94-2.3-33.88-4.59-50.82-6.89c-8.78-2.08-17.57-4.16-26.35-6.24
	c-8.72-2.26-17.44-4.52-26.17-6.79c-15.93-6.42-31.85-12.84-47.78-19.27c-6.7-3.63-13.69-6.8-20.03-10.98
	c-18.58-12.24-35.87-25.78-42.52-48.52c-0.47-2.21-0.94-4.42-1.42-6.63c0.03-168.22,0.03-336.44,0.16-504.66
	c0.01-10.04,1.12-20.07,1.72-30.1c4.87-7.68,9.75-15.37,14.62-23.05c3.33-3.15,6.66-6.3,9.99-9.45c1.05-0.67,2.1-1.35,3.16-2.02
	c1.13-0.99,2.26-1.99,3.39-2.98c1.06-0.65,2.12-1.29,3.18-1.94c2.68-1.94,5.21-4.14,8.07-5.76c6.51-3.69,13.17-7.1,19.77-10.63
	c8.2-3.38,16.4-6.76,24.6-10.13c5.51-2.11,11.02-4.22,16.52-6.33c2.7-0.62,5.4-1.25,8.1-1.87c7.13-2.09,14.25-4.18,21.38-6.27
	c8.77-1.82,17.53-3.63,26.3-5.45c7.68-1.45,15.35-2.91,23.03-4.36c25.19-2.1,50.36-5.68,75.57-5.91
	c29.58-0.28,59.19,2.35,88.79,3.72c3.81,0.18,7.61,0.37,11.42,0.55C465.46,90.28,473.66,91.81,481.86,93.34z M178.35,190.31
	c1.94,3,3.89,6,5.83,9c2.86,2.6,5.71,5.2,8.57,7.8c4.99,3.1,9.98,6.2,14.97,9.3c8.73,3.33,17.46,6.67,26.18,10
	c15.37,3.7,30.75,7.41,46.12,11.11c10.89,1.23,21.78,2.47,32.68,3.7c3.33,0.47,6.67,0.94,10,1.42c25.68,0.54,51.37,1.09,77.05,1.63
	c12.58-0.98,25.15-1.96,37.73-2.94c7.07-0.72,14.14-1.44,21.2-2.15c7.72-1.47,15.44-2.94,23.16-4.41
	c6.51-1.26,13.03-2.53,19.54-3.79c0.61-0.41,1.21-0.83,1.82-1.24c9.79-2.87,19.59-5.74,29.38-8.61c9.65-5.37,19.86-9.95,28.76-16.35
	c7.11-5.11,12.85-12.33,10.75-22.53c-0.83-11.69-9.22-17.53-17.93-23.12c-2.26-1.42-4.53-2.85-6.79-4.27
	c-5.43-2.36-10.86-4.72-16.28-7.07c-9.3-3.17-18.59-6.34-27.89-9.51c-8.76-1.72-17.51-3.44-26.27-5.16
	c-4.98-1.02-9.95-2.04-14.93-3.06c-2.17-0.09-4.35-0.18-6.52-0.27c-6.2-1.06-12.36-2.64-18.6-3.07
	c-13.45-0.93-26.94-1.27-40.41-1.85c-14.21,0-28.43-0.01-42.64-0.01c-5.94,0.07-11.88,0.01-17.81,0.28
	c-3.39,0.15-6.75,0.86-10.12,1.32c-15.85,1.75-31.7,3.5-47.55,5.25c-6.61,1.57-13.22,3.13-19.82,4.7
	c-9.27,2.26-18.53,4.52-27.8,6.79c-17.06,5.56-33.89,11.52-46.18,25.66C178.08,174.72,176.99,182.16,178.35,190.31z M263.47,549.74
	c2.29-1.05,4.59-2.11,6.88-3.16c1-0.53,2.01-1.05,3.01-1.58c1.62-1.17,3.24-2.33,4.86-3.5c1.64-1.63,3.27-3.27,4.91-4.9
	c0.34-1.04,0.68-2.09,1.02-3.13c2.85-6.11,5.7-12.22,8.55-18.32c1.48-11.4-0.48-21.92-8.02-31c-3.29-3.18-6.57-6.36-9.86-9.54
	c-4.91-2.84-9.83-5.69-14.74-8.53c-8.1-3.86-16.2-7.73-24.31-11.59c-0.82-1.05-1.63-2.1-2.45-3.14c0.21-3.75,0.42-7.5,0.63-11.25
	c8.57-6.84,18.45-3.46,27.88-3.55c6.48,2.21,12.95,4.43,19.43,6.64c1.18-0.63,3.36-1.25,3.38-1.91c0.21-11.15,0.15-22.31,0.15-34.23
	c-8.1-1.18-15.57-2.27-23.04-3.36c-10.36,0-20.73,0-31.09,0c-7.64,2.29-15.29,4.58-22.93,6.87c-5.87,5.39-11.74,10.79-17.61,16.18
	c-1.84,6.01-3.68,12.02-5.52,18.03c-2.66,12.73,1.19,23.52,9.79,32.9c4.97,3.74,9.93,7.48,14.9,11.22
	c8.22,3.77,16.44,7.55,24.67,11.32c1.12,0.62,2.23,1.24,3.35,1.86c7.63,8.83,7.24,13.16-1.75,19.87
	c-8.23-0.59-16.46-1.18-24.69-1.77c-7.66-3.78-15.32-7.57-22.97-11.35c-0.54,6-1.5,12-1.55,18.01
	c-0.19,21.97-0.07,21.97,21.35,27.41c2.18,0.14,4.36,0.28,6.54,0.42c16.88,3.09,33.37,2.19,49.23-4.92L263.47,549.74z
	 M519.75,516.82c0.51-1.75,1.45-3.5,1.46-5.25c0.09-34.03,0.1-68.06-0.03-102.09c-0.01-1.87-1.37-3.73-2.1-5.59
	c-5.13,0.1-10.26,0.13-15.38,0.32c-9.85,0.36-19.69,0.81-29.53,1.22c-0.05,0.54-0.09,1.08-0.14,1.62c0,48.09,0,96.18,0,144.27
	c1.86,0.56,3.72,1.6,5.58,1.6c28.42,0.1,56.84,0.08,85.25,0.04c1.79,0,3.58-0.45,5.21-0.67c0-11.38,0-22.2,0-33.85
	c-17,0-33.6,0-50.19,0C519.82,517.91,519.79,517.36,519.75,516.82z M452.32,480.77c-1.13-9.28-2.26-18.56-3.39-27.84
	c-6.32-22.6-20.24-38.14-42.64-45.81c-7.7-1.58-15.4-3.16-23.09-4.74c-9.23,1.09-18.45,2.19-27.68,3.28
	c-14.82,2.5-24.22,13.17-34.35,22.75c-0.75,1.02-1.5,2.05-2.25,3.07c-3.61,6.62-7.22,13.24-10.83,19.85
	c-1.31,12.21-2.62,24.41-3.92,36.62c-0.63,13.86,5.08,25.68,11.94,37.13c4.8,4.96,9.6,9.91,14.4,14.87
	c9.89,4.83,19.36,11.52,29.82,13.89c8.22,1.87,14.81,4.19,20.06,10.51c3.07,3.34,6.14,6.68,9.2,10.01
	c3.82,4.19,7.43,8.6,11.54,12.48c1.93,1.82,4.8,3.67,7.27,3.71c15.72,0.22,31.45-0.07,47.18-0.19c1.42,0,2.83,0,5.58,0
	c-2.49-1.69-3.9-2.66-5.32-3.62c-7.39-5.68-15.03-11.05-22.09-17.11c-7.31-6.28-14.04-13.22-21.03-19.87
	c7.15-8.13,17.23-12.32,23.84-22.26c5.83-8.77,10.45-17.38,13.78-27.06C451,493.89,451.66,487.33,452.32,480.77z"/>
<path class="st1" d="M842.47,914.22c-121.11-0.06-242.23-0.06-363.34,0.01c-2.88,0-5.76,0.86-8.64,1.31
	c-7.71-0.94-15.42-1.88-23.12-2.83c-9.98-3.91-19.49-7.64-29.47-11.56c-7.19-5.2-14.38-10.39-21.57-15.59
	c-2.67-2.61-5.3-5.17-7.98-7.77c-3.28-4.29-6.55-8.59-9.83-12.88c-10.2-14.94-17.32-31.15-20.11-49.12
	c-0.54-7.72-1.09-15.43-1.63-23.15c1.1-9.22,2.2-18.44,3.3-27.66c7.79-15.26,15.57-30.52,23.36-45.79c1.23-1.55,2.43-3.06,3.66-4.61
	c8.05-6.79,16.09-13.58,24.14-20.37c0.39-0.25,1.02-0.66,1.41-0.92c7.6-3.72,15.2-7.43,22.81-11.15c7.53-1.74,19.14-4.43,26.66-6.17
	c10.42,0,20.83,0,31.25-0.01c15.27,2.2,15.27,2.2,18.27-7.8l-0.1,0.08c4.93-8.24,9.85-16.49,14.78-24.73
	c3.23-4.24,6.42-8.44,9.65-12.67c4.03-4.21,8.05-8.43,12.08-12.64c4.83-4.13,9.63-8.23,14.46-12.37c5.47-3.8,10.94-7.59,16.4-11.39
	c2.15-1.2,4.28-2.39,6.43-3.59c8.9-3.88,17.81-7.76,26.71-11.64c6.46-1.63,12.78-3.23,19.24-4.86l0,0
	c2.43-0.96,14.9-3.58,17.37-3.69c11.76-0.54,13.47,0.27,25.25,0c11.01,1.31,22.01,2.62,33.01,3.93c7.72,2.57,15.44,5.14,23.16,7.71
	c19.43,7.35,36.64,18.35,52.32,31.86l0.13,0.11c6.43,6.95,16.75,18.1,23.18,25.05l2.63,3.71c5.26,9.42,13.77,24.63,19.04,34.05
	l1.95,4.57c1.07,3.34,2.14,6.66,3.22,10c1.9,8.54,3.8,17.07,5.7,25.61c0.57,10.82,1.13,21.41,1.71,32.23
	c-0.46,4.07-0.93,8.15-1.39,12.22c-0.52,4.19-1.05,8.39-1.61,12.84c7.15,1.7,14.08,3.35,21.01,5c16.58,8.53,30.14,20.22,38.5,37.35
	c1.71,10.63,3.31,20.63,5.02,31.26l-2.06,16.78l-10.46,22.98c-2.78,3.27-6.95,8.17-9.73,11.44l-21.9,14.6l-0.58-0.04l-0.45,0.38"/>
<path class="st1" d="M404.66,470.14c-1.38,10.42-0.79,21.39-3.59,31.41c-3.66,13.11-12.42,17.71-28.1,17.54
	c-7.96-2.32-11.96-5.52-16.44-10.34c-2.95-4.55-2.92-5.78-4.37-8.67c-2.31-9.02-2.31-14.85-2.31-23.92
	c0.99-8.07,3.94-14.02,5.91-21.02c0.44-0.82,0.87-1.61,1.31-2.43c7.45-8.32,16.51-11.69,27.32-9.71
	c7.13,3.33,10.22,5.21,13.57,10.06c3.62,4.63,5.21,8.58,6.14,13.23C404.29,467.6,404.47,468.83,404.66,470.14z"/>
<g>
</g>
<g>
</g>
<g>
</g>
<g>
</g>
<g>
</g>
<g>
</g>
</svg>
