<?xml version="1.0" encoding="utf-8"?>
<!-- Generator: Adobe Illustrator 27.8.0, SVG Export Plug-In . SVG Version: 6.00 Build 0)  -->
<svg version="1.1" id="Calque_1" xmlns="http://www.w3.org/2000/svg" xmlns:xlink="http://www.w3.org/1999/xlink" x="0px" y="0px"
	 viewBox="0 0 1000 1000" style="enable-background:new 0 0 1000 1000;" xml:space="preserve">
<style type="text/css">
	.st0{fill:#A7DBF3;}
	.st1{fill:#D3ECF9;}
	.st2{fill:#C2E5F9;}
	.st3{fill:#89C8A5;}
	.st4{fill:#8AC8A5;}
	.st5{fill:#476B70;}
	.st6{fill:#48B383;}
	.st7{fill:#364A5E;}
</style>
<path class="st0" d="M789.65,229.37c-1.75-3.37-1.75-6.74,0-10.11C791.4,222.63,791.4,226,789.65,229.37z"/>
<path class="st1" d="M354.74,643.73c0.13-0.45,0.27-0.91,0.4-1.37C355.01,642.82,354.88,643.27,354.74,643.73z"/>
<path class="st2" d="M448.81,696.02c-0.15,0.4-0.31,0.81-0.46,1.21C448.5,696.82,448.65,696.42,448.81,696.02z"/>
<path class="st3" d="M34.24,96.58l-0.33,0.09l-0.32-0.11c1.17-0.26,2.33-0.74,3.5-0.74c60.97-0.04,121.94-0.03,182.91-0.03
	c0.04,0.25,0.05,0.5,0.02,0.75C158.09,96.54,96.17,96.56,34.24,96.58z"/>
<path class="st4" d="M965.63,95.78c-0.23,0.26-0.47,0.53-0.7,0.79c-61.92-0.02-123.85-0.04-185.77-0.06c-0.02-0.25,0-0.49,0.07-0.73
	C841.35,95.78,903.49,95.78,965.63,95.78z"/>
<path class="st5" d="M220.01,96.52c0.03-0.25,0.03-0.5-0.02-0.75c57.48,0,114.95,0,172.43,0c-0.05,0.27-0.1,0.55-0.14,0.82
	c-57.21-0.01-114.42-0.01-171.62-0.02C220.44,96.59,220.23,96.57,220.01,96.52z"/>
<path class="st5" d="M779.22,95.78c-0.07,0.24-0.09,0.48-0.07,0.73c-0.22,0.03-0.43,0.05-0.65,0.06
	c-57.2,0.01-114.4,0.02-171.59,0.03c-0.04-0.27-0.07-0.54-0.11-0.82C664.27,95.78,721.74,95.78,779.22,95.78z"/>
<path class="st6" d="M778.5,96.57c0.22-0.01,0.44-0.03,0.65-0.06c61.92,0.02,123.85,0.04,185.77,0.06
	c-7.08,12.47-14.08,24.98-21.25,37.4C868.64,263.99,793.58,394,718.53,524.02c-72.01,124.76-144.01,249.52-216.02,374.27
	c-0.83,1.44-1.72,2.84-2.87,4.72c-0.94-1.45-1.71-2.55-2.38-3.71C392.66,718.11,288.07,536.91,183.49,355.71
	c-49.25-85.34-98.5-170.68-147.75-256.02c-0.57-1-1-2.08-1.5-3.12c61.92-0.02,123.85-0.03,185.77-0.05
	c0.21,0.05,0.43,0.06,0.64,0.05c0.42,0.93,0.77,1.91,1.28,2.79c9.36,16.24,18.76,32.46,28.13,48.69
	c80.63,139.72,161.26,279.45,241.9,419.17c2.41,4.18,4.9,8.33,7.66,13.02c2.9-5.01,5.41-9.35,7.92-13.7
	c41.88-72.54,83.77-145.08,125.64-217.63c42.26-73.22,84.53-146.44,126.77-219.67C766.21,118.39,772.32,107.46,778.5,96.57z"/>
<path class="st7" d="M778.5,96.57c-6.18,10.89-12.28,21.83-18.54,32.67c-42.24,73.23-84.5,146.45-126.77,219.67
	C591.31,421.46,549.43,494,507.54,566.55c-2.51,4.34-5.02,8.68-7.92,13.7c-2.76-4.69-5.25-8.83-7.66-13.02
	c-80.64-139.72-161.26-279.44-241.9-419.17c-9.37-16.23-18.76-32.45-28.13-48.69c-0.51-0.88-0.86-1.86-1.28-2.79
	c57.21,0.01,114.42,0.01,171.62,0.02c35.63,61.65,71.26,123.3,107.25,185.55c3.38-5.84,6.48-11.19,9.58-16.54
	c10.16-17.56,20.33-35.11,30.46-52.69c9.5-16.49,18.92-33.03,28.43-49.51c9.95-17.24,19.97-34.44,29.97-51.65
	c2.95-5.07,5.95-10.12,8.93-15.18C664.1,96.59,721.3,96.58,778.5,96.57z"/>
<g>
</g>
<g>
</g>
<g>
</g>
<g>
</g>
<g>
</g>
<g>
</g>
</svg>
