<?xml version="1.0" encoding="utf-8"?>
<!-- Generator: Adobe Illustrator 25.4.1, SVG Export Plug-In . SVG Version: 6.00 Build 0)  -->
<svg version="1.1" id="Calque_1" xmlns="http://www.w3.org/2000/svg" xmlns:xlink="http://www.w3.org/1999/xlink" x="0px" y="0px"
	 viewBox="0 0 1000 1000" style="enable-background:new 0 0 1000 1000;" xml:space="preserve">
<path d="M272.84,229.14c-1.39,0.54-2.17,0.72-2.84,1.12c-42.32,24.97-73.86,59.21-88.34,106.84c-14.66,48.23-5.2,92.79,23.8,133.62
	c3.51,4.95,6.93,10.31,8.73,16.01c1.21,3.81,0.69,9.18-1.15,12.77c-9.19,17.9-28.63,21.98-43.89,9.1
	c-30.99-26.19-50.24-59.47-56.71-99.52c-9.53-58.98,8.1-111.29,41.68-159.01c28.1-39.94,66.14-67.81,110.56-87.1
	c36.51-15.86,69.83-36.61,101.03-61.26c46.36-36.64,99.2-58.71,157.85-66.09c63.59-8,126.09-3.21,186.22,20.18
	c51.59,20.07,94.39,52.02,125.1,98.71c22.08,33.56,32.78,70.87,33.87,110.89c1.32,48.39-5.2,95.63-26.14,139.64
	c-33.59,70.6-87.78,116.74-164.92,134.18c-22.67,5.12-45.72,6.03-68.88,5.64c-10.61-0.18-20.74,2.19-30.47,6.38
	c-20.55,8.86-41.12,17.7-61.68,26.55c-1.03,0.44-2.01,0.97-3.41,1.65c3.1,3.4,6.07,6.47,8.82,9.71
	c16.66,19.61,25.94,42.8,31.15,67.56c6.25,29.69,11.49,59.6,17.07,89.43c7.89,42.19,18.1,83.63,39.02,121.64
	c9.85,17.9,21.67,34.21,37.59,47.32c18.94,15.59,40.95,23.59,65,26.53c14.15,1.73,18.36,7.88,14.44,21.7
	c-5.03,17.71-23.16,29.67-41.61,27.88c-52.97-5.13-92.99-30.99-121.45-75.47c-20.71-32.36-34.51-67.73-42.61-105.03
	c-7.28-33.52-12.51-67.49-18.21-101.34c-3.98-23.63-10-46.73-18.32-69.11c-3.18-8.56-9.2-16.08-14.05-23.99
	c-0.48-0.78-2.03-1.61-2.72-1.37c-1.05,0.37-2.25,1.52-2.54,2.57c-1.07,3.83-1.57,7.81-2.67,11.63
	c-14.17,49.03-28.15,98.11-42.74,147.01c-5.4,18.09-21.32,25.84-39.38,20.3c-4.39-1.35-8.72-3.28-12.67-5.63
	c-11.05-6.57-13.44-14.79-8.4-26.67c4.66-10.98,9.56-21.88,13.71-33.06c12.95-34.91,20.85-71.22,28.93-107.46
	c1.55-6.96,3.29-13.88,4.59-20.88c0.68-3.65,0.61-7.44,0.91-11.62c-6.31,0-11.74,0.02-17.18,0c-14.79-0.08-29.58-0.12-44.36-0.29
	c-5.04-0.06-8.14,2.09-9.49,6.96c-5.02,18.03-9.82,36.13-15.19,54.06c-13.81,46.02-26.79,92.33-42.24,137.81
	c-9.46,27.84-22.49,54.51-34.64,81.38c-7.32,16.19-21.9,21.63-38.58,15.65c-4.02-1.44-7.96-3.42-11.54-5.75
	c-12.76-8.31-15.36-19.43-7.66-32.5c13-22.07,23.75-45.2,32.94-69.08c15.68-40.77,26.88-82.9,37.75-125.11
	c19.6-76.08,38.83-152.25,58.38-228.34c2.04-7.94,0.72-14.25-4.54-20.7c-31.61-38.75-46.04-83.23-42.85-133.17
	c0.79-12.39,2.97-24.7,4.49-37.05C272.6,233.22,272.67,231.45,272.84,229.14z M446.39,119.07c2.75,1.72,4.18,3.3,5.82,3.54
	c14.62,2.13,29.29,3.94,43.92,5.99c19.86,2.79,39.89,4.6,59.14,10.91c20.2,6.62,40.52,10.6,62.11,6.08
	c12.98-2.72,27.53,13.21,24.68,25.82c-1.64,7.25,0.67,12.06,6.01,16.51c42.36,35.37,61.36,81.84,63.87,135.9
	c1.46,31.56-4.25,62.06-14.47,91.88c-7.91,23.08-20.33,43.88-31.67,65.25c-0.8,1.5-1.5,3.05-2.97,6.05
	c7.17-2.24,12.95-3.67,18.44-5.83c42.82-16.82,73.41-47.19,94.45-87.34c22.15-42.24,28.63-87.66,24.16-134.76
	c-3.35-35.35-15.72-67.41-39.92-93.61c-48.41-52.42-109.87-74.81-180.18-75.05C550,90.3,521.05,96,492.67,104.77
	C477.81,109.36,462.96,113.95,446.39,119.07z M340.83,352.22c1.35-2.65,2.2-4.26,3-5.89c10.25-21.05,20.86-41.9,34.69-60.92
	c11.52-15.83,24.64-30.12,40.8-41.32c17.99-12.46,36.8-12.99,55.9-2.65c10.1,5.47,11.41,12.65,4.03,21.49
	c-2.86,3.43-6.08,6.64-9.48,9.54c-29.72,25.35-49.9,57.51-66.15,92.49c-16.35,35.19-27.26,72.21-36.73,109.7
	c-5.84,23.12-11.29,46.34-17.04,70.04c2.27,0,4.08,0,5.88,0c16.79,0.05,33.58,0.02,50.37,0.19c9.96,0.1,13.38-2.23,15.64-12.17
	c5.7-25.06,11.1-50.18,16.83-75.23c12.65-55.3,26.22-110.42,47.27-163.19c12.76-31.98,28.37-62.83,42.7-94.19
	c0.72-1.58,1.42-3.18,2.24-5.01c-2.37-0.63-4.12-1.14-5.88-1.56c-41.92-10.14-84.6-10.94-127.33-9.53
	c-26.84,0.88-46.08,14.59-57.35,38.92c-13.14,28.38-18.65,58.04-13.2,89.2C329.44,325.85,333.9,338.94,340.83,352.22z
	 M497.97,475.24c19.16,5.22,38.05,10.21,56.84,15.54c10.8,3.06,20.3,1.04,27.81-7.11c9.65-10.49,19.72-20.82,27.81-32.47
	c32.67-47.04,39.71-99.39,28.85-154.51c-6.65-33.74-26.95-58.5-55.57-77.3c-1.26,1.85-2.39,3.47-3.48,5.12
	c-12.79,19.47-23.22,40.16-31.9,61.76c-14.13,35.17-23.3,71.8-31.82,108.61C510.35,421.48,504.23,448.09,497.97,475.24z
	 M508.9,526.21c-7.85-3.14-14.49-5.8-21.59-8.65c-1.1,5.81-2.07,10.93-3.2,16.92C492.55,531.66,500.12,529.14,508.9,526.21z"/>
</svg>
