<svg id="Calque_1" data-name="Calque 1" xmlns="http://www.w3.org/2000/svg" viewBox="0 0 1000 1000"><defs><style>.cls-1{fill:#fff;}</style></defs><path class="cls-1" d="M1000,1000H0V0H1000ZM483.48,555.35c.29,3.28.64,4.31.43,5.22-9.1,39.87-16.45,80.23-34.07,117.64-4.42,9.38-2.09,15.58,7.09,20.7,15.14,8.43,30.56,4.64,35.92-11.4C503,657.3,511.14,626.45,520,595.82c2.2-7.67,3.77-15.52,5.63-23.29l2.62-.3c4,6.81,9.32,13.2,11.65,20.54,4.92,15.45,9.66,31.2,12,47.19C557.42,678.57,563,717.1,578,753.47c19.42,47.11,49.12,82.17,103.86,87.69,14.76,1.48,28.9-8.9,30.75-23.38.86-6.74-1.4-10.9-8.66-11.83a132.53,132.53,0,0,1-16.68-3c-33-8.63-51.42-32.83-64.88-61.83-16.45-35.47-21.54-73.9-28.49-111.87-5.46-29.8-10.78-59.92-34.35-82.18,14.8-6.25,29.67-11.82,43.86-18.78a54.36,54.36,0,0,1,26.55-5.85c41.44,1,80.07-8.57,113.21-34.59,49-38.46,68.47-91.3,70.48-151.44,1.85-55.22-19.39-100.49-63.17-134.73-30.7-24-66-37.34-104.19-42.53-71.67-9.74-138.63,3.44-195.63,49.49A286.4,286.4,0,0,1,383.3,249c-45.86,19.95-80.91,52.23-100.25,99.44-22.57,55.09-10.89,111.7,29.94,147.24,9.93,8.65,18.55,8.6,28.17-.16,8.14-7.4,8-13.91-.33-25.25-46-62.27-16.72-137.84,47.08-173.54a41.08,41.08,0,0,1-.32,6c-9,45.41-.73,86.57,29.61,122.55,1.88,2.23,2.47,6.8,1.72,9.79-14.79,58.72-29.46,117.46-45,176-11.79,44.38-24.23,88.61-48,128.6-5.74,9.65-2.49,18.22,7.94,24.1,14.25,8,27.51,5.22,34.35-9.38,10.15-21.64,20.2-43.54,27.57-66.21,13.26-40.78,24.44-82.24,36.72-123.35,1.15-3.85.11-9.76,7.59-9.55C454.31,555.64,468.61,555.35,483.48,555.35Z"/><path d="M483.48,555.35c-14.87,0-29.17.29-43.44-.12-7.48-.21-6.44,5.7-7.59,9.55-12.28,41.11-23.46,82.57-36.72,123.35-7.37,22.67-17.42,44.57-27.57,66.21-6.84,14.6-20.1,17.4-34.35,9.38-10.43-5.88-13.68-14.45-7.94-24.1,23.81-40,36.25-84.22,48-128.6,15.55-58.52,30.22-117.26,45-176,.75-3,.16-7.56-1.72-9.79-30.34-36-38.58-77.14-29.61-122.55a41.08,41.08,0,0,0,.32-6c-63.8,35.7-93.09,111.27-47.08,173.54,8.38,11.34,8.47,17.85.33,25.25-9.62,8.76-18.24,8.81-28.17.16-40.83-35.54-52.51-92.15-29.94-147.24C302.39,301.24,337.44,269,383.3,249a286.4,286.4,0,0,0,67.34-40.4c57-46.05,124-59.23,195.63-49.49,38.17,5.19,73.49,18.52,104.19,42.53,43.78,34.24,65,79.51,63.17,134.73-2,60.14-21.49,113-70.48,151.44-33.14,26-71.77,35.61-113.21,34.59a54.36,54.36,0,0,0-26.55,5.85c-14.19,7-29.06,12.53-43.86,18.78,23.57,22.26,28.89,52.38,34.35,82.18,7,38,12,76.4,28.49,111.87,13.46,29,31.9,53.2,64.88,61.83a132.53,132.53,0,0,0,16.68,3c7.26.93,9.52,5.09,8.66,11.83-1.85,14.48-16,24.86-30.75,23.38C627.1,835.64,597.4,800.58,578,753.47c-15-36.37-20.56-74.9-26.14-113.51-2.32-16-7.06-31.74-12-47.19-2.33-7.34-7.67-13.73-11.65-20.54l-2.62.3c-1.86,7.77-3.43,15.62-5.63,23.29-8.82,30.63-17,61.48-27.11,91.69-5.36,16-20.78,19.83-35.92,11.4-9.18-5.12-11.51-11.32-7.09-20.7,17.62-37.41,25-77.77,34.07-117.64C484.12,559.66,483.77,558.63,483.48,555.35ZM513,218c.38.84.77,1.69,1.16,2.53,18.76,2.51,37.54,4.9,56.28,7.56,20.52,2.91,39.26,14.76,61.78,9,10.36-2.65,22.13,10.25,19.63,18.77-2,6.71,1.29,9,5,12.17,19.14,16.53,32.58,36.72,39.26,61.23,10,36.73,6.17,72.75-7.33,107.66-5.89,15.25-14.76,29.35-22.06,43.54,16-3,35.71-13.49,50.3-27,30.78-28.49,44.9-64.82,47.68-105.61,3.81-55.89-17.65-99.18-67.37-127-39.41-22.06-81.72-27.59-125.56-19.37C551.85,205.15,532.57,212.33,513,218Zm-76.4,166.6c2.12-4.3,3.69-7.46,5.24-10.63,12.14-24.66,26.07-48,48.49-65,11.85-9,24.59-11.17,38.48-5.34,12.17,5.11,13.2,11.6,3.87,20.59-9.09,8.76-18.84,17.18-26.25,27.25C469.26,401.91,458,462,443.33,522.13c14.34,0,27.29-.36,40.2.14,7.14.27,9.46-2.46,11-9.3,13.09-59.76,25.7-119.73,48.1-176.9,8.42-21.48,19.46-41.93,29.58-63.45-29.42-7.92-60-8.45-91-8.06-30.67.38-43.12,18.31-50.78,43.47C422.48,333.87,423.76,359.05,436.6,384.56Zm112.09,87.91c15.12,4.09,28.55,7.67,41.95,11.38,7.51,2.09,13.22-.23,18.81-5.57,35.48-33.94,47.69-76,41.88-123.5C648,327.61,634.27,305.93,610,290.07,572.25,345.23,565.16,409.43,548.69,472.47ZM556.21,509l-15-6c-.82,4.22-1.42,7.3-2.29,11.71Z"/><path class="cls-1" d="M513,218c19.57-5.63,38.85-12.81,58.78-16.55,43.84-8.22,86.15-2.69,125.56,19.37,49.72,27.84,71.18,71.13,67.37,127-2.78,40.79-16.9,77.12-47.68,105.61-14.59,13.5-34.34,24-50.3,27,7.3-14.19,16.17-28.29,22.06-43.54,13.5-34.91,17.34-70.93,7.33-107.66C689.44,304.69,676,284.5,656.86,268c-3.72-3.21-7-5.46-5-12.17,2.5-8.52-9.27-21.42-19.63-18.77-22.52,5.78-41.26-6.07-61.78-9-18.74-2.66-37.52-5.05-56.28-7.56C513.77,219.65,513.38,218.8,513,218Z"/><path class="cls-1" d="M436.6,384.56c-12.84-25.51-14.12-50.69-6.25-76.53,7.66-25.16,20.11-43.09,50.78-43.47,31.07-.39,61.62.14,91,8.06-10.12,21.52-21.16,42-29.58,63.45-22.4,57.17-35,117.14-48.1,176.9-1.5,6.84-3.82,9.57-11,9.3-12.91-.5-25.86-.14-40.2-.14C458,462,469.26,401.91,506.43,351.44c7.41-10.07,17.16-18.49,26.25-27.25,9.33-9,8.3-15.48-3.87-20.59-13.89-5.83-26.63-3.64-38.48,5.34-22.42,17-36.35,40.33-48.49,65C440.29,377.1,438.72,380.26,436.6,384.56Z"/><path class="cls-1" d="M548.69,472.47c16.47-63,23.56-127.24,61.29-182.4,24.29,15.86,38,37.54,41.35,64.71,5.81,47.54-6.4,89.56-41.88,123.5-5.59,5.34-11.3,7.66-18.81,5.57C577.24,480.14,563.81,476.56,548.69,472.47Z"/><path class="cls-1" d="M556.21,509,539,514.72c.87-4.41,1.47-7.49,2.29-11.71Z"/></svg>