<?xml version="1.0" encoding="utf-8"?>
<!-- Generator: Adobe Illustrator 27.8.0, SVG Export Plug-In . SVG Version: 6.00 Build 0)  -->
<svg version="1.1" id="Calque_1" xmlns="http://www.w3.org/2000/svg" xmlns:xlink="http://www.w3.org/1999/xlink" x="0px" y="0px"
	 viewBox="0 0 1000 1000" style="enable-background:new 0 0 1000 1000;" xml:space="preserve">
<path d="M303.15,225.03c-15.64,14.76-32.57,28.39-46.69,44.49c-44.2,50.4-77.47,107.33-94.83,172.43
	c-4.9,18.39-5.63,37.99-7.13,57.12c-0.54,6.86,0.2,15.96,12.39,11.77c1.67-0.57,6.16,2.25,6.64,4.16c0.66,2.7-0.32,6.78-2.15,8.94
	c-8.13,9.6-25.4,7.5-29.93-4.22c-3.17-8.19-4.43-17.36-5.12-26.21c-2.29-29.82,4.72-58.1,15.38-85.68
	c23.13-59.84,53.69-115.62,98.42-161.83c41.67-43.05,89.83-77.32,150.52-89.12c23.01-4.47,45.73-3.25,67.49,6.43
	c27.4,12.18,41.71,33.95,45.94,63.03c0.72,4.93,1.32,9.88,2.24,16.82c3.66-6.2,6.26-11.18,9.41-15.78
	c3.55-5.2,7.09-10.58,11.54-14.96c11.43-11.22,26-10.13,33.03,4.45c6.05,12.55,10.94,27.03,11.2,40.76
	c1.13,59.93,0.38,119.89,0.31,179.84c-0.01,12.63,0,25.26,1.73,38.35c2.16-8.54,4.34-17.07,6.48-25.62
	c17.21-68.9,39.52-135.92,73.84-198.44c18.14-33.05,41.12-62.15,71.8-84.6c52.96-38.77,114.44-21.77,140.51,38.57
	c12.9,29.84,16.16,61.17,13.11,92.95c-7.34,76.54-32.63,146.46-80.95,206.97c-37.1,46.45-80.39,85.33-137.91,105.03
	c-28.07,9.61-56.72,14.45-86.18,5.85c-2.1-0.61-4.54-0.08-7.5-0.08c-2.25,25.99-4.8,51.78-6.66,77.62
	c-2.89,40.19-5.29,80.41-7.97,120.62c-0.2,2.96-0.64,5.97-1.5,8.8c-4.62,15.16-13.33,18.97-25.98,9.66
	c-31.36-23.08-62.42-46.61-93.07-70.64c-42.97-33.69-85.34-68.14-128.24-101.92c-8.49-6.68-18.2-11.8-28.85-18.6
	c-0.95,7.98-2.28,13.8-2.24,19.6c0.45,56.97,0.94,113.94,1.91,170.9c0.19,10.9,3.27,21.75,3.55,32.66c0.12,4.8-2.14,12.39-5.54,14
	c-7.17,3.38-14.62-0.96-16.58-8.38c-4.05-15.3-8.83-30.98-9.13-46.58c-1.19-61.93-0.98-123.9-0.72-185.85
	c0.04-8.8-2.16-13.36-10.87-15.56c-21.98-5.55-43.77-11.47-66.82-6.8c-6.67,1.35-14.67,3.51-17.14-6.45
	c-2.29-9.24,5.32-11.71,11.31-15.15c25.92-14.89,51.78-29.85,77.73-44.69c8.71-4.98,11.11-11.9,11.52-22.16
	c1.2-30.24,2.86-60.61,7.02-90.56c7.47-53.67,16.56-107.12,25.71-160.53c2.84-16.58,8.09-32.75,12.23-49.1
	C305.32,226.57,304.24,225.8,303.15,225.03z M867.69,292.15c-1.18-40.85-4.82-70.05-21.67-95.95
	c-16.66-25.6-41.37-35.43-70.76-27.39c-26.5,7.24-45.99,24.77-63.21,45.14c-29.62,35.03-48.7,75.73-65.18,118.21
	c-30.95,79.76-51.25,162.13-64.45,246.45c-2.58,16.47-2.08,17.35,14.27,19.78c35.55,5.29,68.61-3.74,98.4-21.87
	C805.52,509.32,856.32,406.72,867.69,292.15z M538.71,813.79c2.32-69.82,4.68-137.4,6.49-204.99c0.1-3.92-3.74-8.43-6.71-11.83
	c-4.29-4.92-10.07-8.61-13.95-13.77c-1.6-2.12-1.2-7.99,0.62-9.81c1.82-1.82,6.8-1.55,9.97-0.67c3.52,0.98,6.56,3.7,10.58,6.13
	c0.79-3.31,1.56-5.17,1.65-7.07c1.47-30.25,2.89-60.51,4.26-90.76c1.24-27.29,2.82-54.57,3.53-81.87
	c1.15-44.63,2.09-89.27,2.29-133.92c0.05-12.16-2.86-24.33-4.41-36.49c-1.34-0.21-2.68-0.42-4.03-0.63
	c-5.02,8.07-10.96,15.71-14.89,24.28c-22.32,48.62-33.97,99.43-27.77,153.14c2.31,20.04,4.83,40.56,21.81,55.25
	c1.81,1.57,2.48,7.99,1.63,8.46c-3.09,1.71-8.74,3.73-10.38,2.25c-6.95-6.28-14.82-12.82-18.68-21
	c-10.38-21.98-13.04-45.93-12.72-70.07c0.19-14.03,1.37-28.04,2.23-44.45c-2.34,3.15-3.21,4.09-3.82,5.18
	c-46.28,82.7-112.41,147.2-187.1,203.77c-8.47,6.41-12.59,14.26-13.13,24.47c-0.7,13.29-1.15,26.6-2.2,39.86
	c-0.45,5.71,1.44,9.15,6.25,12.14c12.15,7.54,24.68,14.69,35.86,23.53c47.02,37.19,93.51,75.06,140.37,112.45
	C490.07,776.2,514.05,794.56,538.71,813.79z M288.85,520.54c4.4-3.06,6.06-4.1,7.59-5.3c69-53.95,126.62-117.86,169.14-194.73
	c13.81-24.97,22.15-51.83,23.43-80.72c1.35-30.74-20.14-59.12-47.84-61.81c-27.69-2.69-54.28,1.63-80.03,12.34
	c-14.85,6.18-24.25,13.89-26.86,32.2c-5.52,38.76-15.74,76.83-22.1,115.5c-7.07,42.98-12.13,86.3-17.77,129.5
	C292.24,484.25,290.87,501.09,288.85,520.54z M257.86,575.01c-12.58,7.59-23.17,13.98-35.77,21.59c13.33,3.41,23.41,5.98,34.02,8.69
	C256.67,595.51,257.19,586.7,257.86,575.01z"/>
<g>
</g>
<g>
</g>
<g>
</g>
<g>
</g>
<g>
</g>
<g>
</g>
</svg>
