<?xml version="1.0" encoding="utf-8"?>
<!-- Generator: Adobe Illustrator 25.4.1, SVG Export Plug-In . SVG Version: 6.00 Build 0)  -->
<svg version="1.1" id="Calque_1" xmlns="http://www.w3.org/2000/svg" xmlns:xlink="http://www.w3.org/1999/xlink" x="0px" y="0px"
	 viewBox="0 0 1000 1000" style="enable-background:new 0 0 1000 1000;" xml:space="preserve">
<path d="M340.19,457.55c50.34,1.89,98-1.99,141.65-26.75c3.18-1.8,6.83-7.03,6.45-10.21c-6.46-54.58,12.54-99.49,51.49-136.68
	c5.79-5.53,5.74-9.96,3.14-16.35c-11.91-29.27-34.27-48.2-63.34-56.88c-79.81-23.84-155.3-16.03-220.99,39.19
	c-51.45,43.24-57.73,110.32-19.04,158.77c6.25,7.83,5.6,14.77-1.16,21.29c-8.55,8.23-18.51,9.87-25.83,3.92
	c-34.13-27.74-47.91-64.24-43.49-107.19c6.98-67.93,47.12-112.86,106.03-140.97c75.5-36.04,153.99-40.07,232.91-10.96
	c37.19,13.72,52.89,29.6,81.11,74.05c25.79-13.37,53.36-21.84,82.14-25.78c65.92-9.03,127.73,1.7,181.97,42.12
	c45.53,33.93,66.51,80.65,64.42,137.08c-1.95,52.6-17.47,100.46-56.36,137.96c-38.89,37.51-86.77,51.45-139.52,46.49
	c-25.9-2.43-51.31-10.09-77.65-15.53c-12.99,54.87-26.54,112.09-40.34,170.39c6.23,2.98,8.36,9.07,4.74,17.57
	c-4.92,11.58-15.11,19.41-25.85,18.5c-35.91-3.05-64.79-18.71-85.92-48.22c-23.06-32.22-33.61-69.22-40.68-107.43
	c-4.54-24.54-7.33-49.43-12.43-73.84c-4.62-22.11-14.89-41.43-35.67-53.04c-3.34-1.86-7.38-3.29-11.14-3.43
	c-18.96-0.7-37.97-0.53-56.91-1.49c-6.85-0.35-8.71,2.05-10.61,8.21c-16.79,54.67-33.8,109.28-51.43,163.69
	c-3.55,10.96-9.82,21.08-15.16,31.41c-6.12,11.82-19.8,12.48-33.37,5.41c-11.07-5.77-12.6-14.65-5.4-27.15
	c24.9-43.22,37.15-91.02,49.91-138.57c16.29-60.74,31.32-121.82,48.25-182.37c7.99-28.58,20.42-55.85,38.91-79.39
	c9.12-11.61,20.4-21.89,32.05-31.06c10.99-8.65,23.99-6.74,35.93-0.58c8.38,4.33,9.91,10.89,2.93,16.69
	c-52.22,43.36-67.47,105.16-83.81,166.45C345.22,433.75,343.07,444.84,340.19,457.55z M455.77,481.9
	c20.81,19.31,27.47,44.61,32.59,70.53c3.42,17.3,6.23,34.73,9.62,52.04c6.54,33.46,14.69,66.5,34.38,95.06
	c7.16,10.38,16.65,19.15,26.18,29.9c2.07-4.67,3.1-6.39,3.61-8.25c6.64-24.04,13.8-47.95,19.68-72.17
	c16.32-67.24,31.27-134.83,48.42-201.85c9.4-36.76,22.89-72.39,44-104.44c11.13-16.89,24.23-31.93,44-39.17
	c10.31-3.78,20.66-5.41,30.31,2.14c10.93,8.56,10.21,18.98-2.56,24.53c-21.32,9.26-36.62,24.97-45.65,45.52
	c-10.39,23.66-19.39,48.11-26.7,72.89c-8.44,28.62-14.37,57.97-21.54,87.62c31,11.11,61.29,17.56,93.08,14.37
	c24-2.41,46.33-9.96,65.57-24.59c40.15-30.53,56.41-72.91,57.94-121.85c1.77-56.93-23.85-98.44-74.53-122.85
	c-64.72-31.18-128.58-24.41-190.3,9.96c-2.97,1.65-5.23,7.4-5.19,11.21c0.32,31.3-5.6,61.4-21.29,88.31
	c-10.9,18.7-25.6,35.17-40.18,54.76c4.41,6.67,10.26,16.29,16.89,25.32c6.78,9.23,6.43,16.95-2.19,24.26
	c-9.41,7.99-18.87,8.23-26.13-0.17c-8.61-9.97-16.59-20.48-24.6-30.45C486.33,470.23,471.53,475.88,455.77,481.9z"/>
</svg>
