<svg id="Calque_1" data-name="Calque 1" xmlns="http://www.w3.org/2000/svg" viewBox="0 0 1000 1000"><defs><style>.cls-1{fill:#fff;}</style></defs><path d="M1000,1000H0V0H1000ZM340.29,457.6c2.78-12.39,4.93-23.79,7.91-35,16.33-61.29,31.68-123,83.91-166.37,6.65-5.52,5.31-11.9-2.46-16.12-12.17-6.61-25.46-8.56-36.79.34-11.65,9.16-22.91,19.47-32,31.13-19.42,25-32,53.95-40.48,84.13-14.28,50.57-26.77,101.65-40.12,152.49C265.16,565.81,251.78,624,221.65,676.37c-5.06,8.79-1.75,18,8,22.55,14.81,7,28.68,7.68,35.68-10.08,14.87-37.7,29.37-75.58,42.42-113.93,9.41-27.65,16.23-56.18,23.89-83.2,19.3,0,38,1,56.47-.33,14.27-1.05,24.89,4.42,33.45,14.13,6.5,7.36,13.05,15.8,16,24.91a314.34,314.34,0,0,1,12.22,52.29c6.09,42.32,13.17,84.3,32.61,122.94C502.28,745.2,532,772,578,777c13.41,1.45,23.46-3.46,29.48-15.39,4.84-9.6,3.53-14.81-3.71-19.78,13.75-58.14,27.34-115.62,40.34-170.64,26.61,5.47,52,13.13,77.92,15.52,52.75,4.88,100.61-9.12,139.43-46.69,39.09-37.84,54.58-86.06,56.19-139,1.84-60.25-22.58-108.44-72.7-141.83-56.66-37.74-119.66-46.88-185.66-33.72-24.17,4.82-47.49,13.91-72,21.27-15.35-35-43.83-59.35-80.5-72.22C417.15,143,330.13,150.09,249,200.79c-46,28.76-74.87,70.68-80,126.13-4,43,9.59,79.43,43.78,107.09,7.17,5.79,17.52,3.95,25.82-4.24,6.59-6.52,6.87-13.25.86-21.36-38-51.3-31.63-115.39,17-156.8,66.31-56.49,142.4-65,223.35-40.81,29.06,8.69,51.29,27.76,63.24,57,2.72,6.65,2.12,10.92-3.49,16.29-38.61,37-57.56,81.58-51.33,135.75.37,3.19-2.2,8.39-4.95,10C439.29,455.62,391,459.4,340.29,457.6Z"/><path class="cls-1" d="M340.29,457.6c50.7,1.8,99-2,143-27.75,2.75-1.61,5.32-6.81,4.95-10C482,365.68,501,321.08,539.58,284.1c5.61-5.37,6.21-9.64,3.49-16.29-12-29.25-34.18-48.32-63.24-57-80.95-24.2-157-15.68-223.35,40.81-48.62,41.41-55,105.5-17,156.8,6,8.11,5.73,14.84-.86,21.36-8.3,8.19-18.65,10-25.82,4.24-34.19-27.66-47.75-64.1-43.78-107.09,5.12-55.45,34-97.37,80-126.13,81.11-50.7,168.13-57.8,257.78-26.33,36.67,12.87,65.15,37.2,80.5,72.22,24.46-7.36,47.78-16.45,72-21.27,66-13.16,129-4,185.66,33.72C895,292.52,919.45,340.71,917.61,401c-1.61,53-17.1,101.17-56.19,139C822.6,577.54,774.74,591.54,722,586.66c-25.9-2.39-51.31-10-77.92-15.52-13,55-26.59,112.5-40.34,170.64,7.24,5,8.55,10.18,3.71,19.78-6,11.93-16.07,16.84-29.48,15.39-46-5-75.68-31.75-95.58-71.3C462.94,667,455.86,625,449.77,582.71a314.34,314.34,0,0,0-12.22-52.29c-3-9.11-9.52-17.55-16-24.91-8.56-9.71-19.18-15.18-33.45-14.13-18.49,1.35-37.17.33-56.47.33-7.66,27-14.48,55.55-23.89,83.2-13.05,38.35-27.55,76.23-42.42,113.93-7,17.76-20.87,17.09-35.68,10.08-9.72-4.59-13-13.76-8-22.55,30.13-52.39,43.51-110.56,58.64-168.14,13.35-50.84,25.84-101.92,40.12-152.49,8.52-30.18,21.06-59.16,40.48-84.13,9.06-11.66,20.32-22,32-31.13,11.33-8.9,24.62-6.95,36.79-.34,7.77,4.22,9.11,10.6,2.46,16.12-52.23,43.32-67.58,105.08-83.91,166.37C345.22,433.81,343.07,445.21,340.29,457.6ZM652.1,536.25c31,11.11,61.27,17.55,93.06,14.37,24-2.41,46.33-10,65.56-24.59,40.14-30.52,56.41-72.89,57.94-121.82,1.77-56.92-23.84-98.43-74.51-122.84-64.71-31.18-128.56-24.42-190.27,9.95-3,1.66-5.23,7.4-5.19,11.21.32,31.29-5.6,61.39-21.29,88.3-10.9,18.69-25.59,35.17-40.17,54.76,4.4,6.66,10.24,16.27,16.87,25.3,6.79,9.24,6.44,16.95-2.17,24.27-9.4,8-18.87,8.24-26.13-.16-8.61-10-16.59-20.48-24.61-30.46L455.78,481.9c20.8,19.31,27.46,44.6,32.58,70.51,3.42,17.3,6.23,34.72,9.62,52,6.53,33.45,14.68,66.49,34.37,95,7.15,10.38,16.65,19.16,25.08,28.67l4-1.26c6.22-23.37,12.93-46.61,18.56-70.12,16.28-67.93,31.23-136.19,48.46-203.87,9.86-38.69,23.55-76.37,45.76-110.15,11.12-16.91,24.23-31.93,44-39.17,10.31-3.78,20.66-5.42,30.31,2.12,10.93,8.56,10.22,19-2.53,24.53a86.16,86.16,0,0,0-45.65,45.51,612.71,612.71,0,0,0-26.7,72.88C665.21,477.24,659.27,506.59,652.1,536.25Z"/><path d="M652.1,536.25c7.17-29.66,13.11-59,21.54-87.62a612.71,612.71,0,0,1,26.7-72.88A86.16,86.16,0,0,1,746,330.24c12.75-5.54,13.46-16,2.53-24.53-9.65-7.54-20-5.9-30.31-2.12-19.76,7.24-32.87,22.26-44,39.17-22.21,33.78-35.9,71.46-45.76,110.15C611.23,520.59,596.28,588.85,580,656.78c-5.63,23.51-12.34,46.75-18.56,70.12l-4,1.26c-8.43-9.51-17.93-18.29-25.08-28.67-19.69-28.56-27.84-61.6-34.37-95-3.39-17.31-6.2-34.73-9.62-52-5.12-25.91-11.78-51.2-32.58-70.51l45.41-17.36c8,10,16,20.5,24.61,30.46,7.26,8.4,16.73,8.15,26.13.16,8.61-7.32,9-15,2.17-24.27-6.63-9-12.47-18.64-16.87-25.3,14.58-19.59,29.27-36.07,40.17-54.76,15.69-26.91,21.61-57,21.29-88.3,0-3.81,2.22-9.55,5.19-11.21,61.71-34.37,125.56-41.13,190.27-9.95,50.67,24.41,76.28,65.92,74.51,122.84-1.53,48.93-17.8,91.3-57.94,121.82-19.23,14.63-41.56,22.18-65.56,24.59C713.37,553.8,683.08,547.36,652.1,536.25Z"/></svg>