<?xml version="1.0" encoding="utf-8"?>
<!-- Generator: Adobe Illustrator 25.4.1, SVG Export Plug-In . SVG Version: 6.00 Build 0)  -->
<svg version="1.1" id="Calque_1" xmlns="http://www.w3.org/2000/svg" xmlns:xlink="http://www.w3.org/1999/xlink" x="0px" y="0px"
	 viewBox="0 0 1000 1000" style="enable-background:new 0 0 1000 1000;" xml:space="preserve">
<path d="M510.87,609.67c-4.5,11.41-7.99,21.43-12.37,31.03c-6.15,13.47-17.71,17.67-31.28,12.08c-10.33-4.25-13.01-11.12-8.9-21.43
	c5.75-14.39,11.17-28.91,17.28-44.78c-20.22,0-38.09,0-57.16,0c-5.41,19.41-10.33,39.69-16.73,59.49
	c-11.66,36.05-24.08,71.86-36.51,107.66c-2.16,6.22-6.12,11.8-8.9,17.84c-8.42,18.32-29.82,13.39-38.13,2.9
	c-2.81-3.55-4.1-11.61-2-15.27c30.66-53.38,42.98-112.88,58.22-171.42c11.07-42.49,21.55-85.15,33.71-127.32
	c5.21-18.08,14.12-35.09,21.11-52.68c1.09-2.74,2.42-7.39,1.12-8.76c-17.83-18.72-27.61-41.27-32.18-66.34
	c-62.58,17.38-102.73,88.22-82.31,145.57c3.84,10.78,10.36,20.79,16.77,30.4c5.16,7.73,5.12,14.1-1.14,20.54
	c-7.36,7.57-17.14,9.02-24.02,3.4c-30.51-24.91-43.49-57.58-40.39-96.28c4.98-62.05,40.92-102.9,93.15-131.69
	c10.13-5.59,21.43-9.04,31.96-13.96c2.92-1.36,6.62-4.07,7.29-6.81c14.37-58.85,53.72-95.79,107.24-118.04
	c72.95-30.33,145.93-29.3,215.07,11.31c53.45,31.4,78.3,79.93,75.05,142.21c-2.19,42.03-14.54,80.49-41.87,113.13
	c-25.53,30.49-59,46.84-97.83,53.27c-3.09,0.51-7.2,2.54-8.5,5.06c-22.4,43.32-59.47,67.95-104.36,82.78
	c-3.15,1.04-6.33,2-10.31,3.25c29.44,30.62,30.42,70.73,37.87,108.57c6.52,33.1,13.78,65.91,32.89,94.54
	c14.56,21.81,33.96,36.16,61.06,38.61c11.46,1.04,14.13,6.51,9.69,17.07c-5.51,13.11-16.95,18.29-32.91,15.86
	c-34.44-5.25-59.12-24.44-76.96-53.35c-19.25-31.2-27.38-66.12-33.7-101.69c-4.29-24.18-9.16-48.26-14.23-72.29
	C516.72,619.51,513.63,615.35,510.87,609.67z M663.36,448.17c9.84-4.65,17.6-7.61,24.64-11.78c35.8-21.18,53.42-54.46,61.3-93.89
	c12.14-60.78-12.93-113.54-66.41-140.27c-65.79-32.88-157.59-18.24-209.79,33.68c-12,11.94-22.97,24.76-29.14,42.04
	c29.36,0,58.42-3.31,86.26,1.08c21.22,3.34,31.5-0.56,41.3-19.36c10.26-19.67,26.69-34.75,50.38-39.02
	c8.92-1.61,15.76,1.44,21.44,7.6c5.56,6.04,4.42,13.21-2.53,17.82c-2.74,1.82-5.93,2.97-8.91,4.45
	c-19.47,9.65-30.49,26.51-39.98,45.32C654.34,327.83,674.65,379.25,663.36,448.17z M452.9,371.02c6.33-5.57,11.65-10.55,17.3-15.13
	c10.1-8.19,21.45-10.01,33.76-5.81c13.33,4.55,14.97,12.04,4.23,21.28c-18.47,15.9-33.5,34.61-42.65,57.08
	c-9.76,23.94-18.19,48.47-26.03,73.12c-5.38,16.89-8.76,34.42-13.42,53.25c15.55,0,29.15-0.53,42.68,0.16
	c11.6,0.6,15.16-4.59,17.69-15.47c15.35-66.02,31.65-131.82,47.78-197.66c1.7-6.94,4.32-13.66,6.72-21.14
	c-35.61-8.18-70.02-9.34-105.24-1.38C435.81,338.6,442.67,354.82,452.9,371.02z M549.61,441.63c21.87,3.93,41.94,7.73,62.11,10.83
	c1.9,0.29,5.94-3.5,6.5-5.97c5.07-22.12,4.95-44.26-2.59-65.84c-6.94-19.87-20.25-34.58-39.96-46
	C567.1,369.87,558.78,403.99,549.61,441.63z M525.82,544.54c33.08-11.42,59.73-27.95,76.91-57.28
	c-20.52-5.79-39.84-11.25-59.92-16.92C537.24,494.66,531.72,518.78,525.82,544.54z"/>
</svg>
