<?xml version="1.0" encoding="utf-8"?>
<!-- Generator: Adobe Illustrator 27.8.0, SVG Export Plug-In . SVG Version: 6.00 Build 0)  -->
<svg version="1.1" id="Calque_1" xmlns="http://www.w3.org/2000/svg" xmlns:xlink="http://www.w3.org/1999/xlink" x="0px" y="0px"
	 viewBox="0 0 1000 1000" style="enable-background:new 0 0 1000 1000;" xml:space="preserve">
<path d="M335.78,661.35c-0.64,11.5-1.74,21.41-1.67,31.3c0.48,63.98,0.95,127.96,2.07,191.93c0.24,13.56,3.21,27.06,4.76,40.61
	c0.81,7.11,1.35,14.8-7.08,17.72c-8.54,2.96-16.01-1.06-18.83-8.82c-4.62-12.68-8.59-25.87-10.51-39.18
	c-2.17-15.1-2.35-30.56-2.4-45.87c-0.22-64.95-0.28-129.9,0.16-194.84c0.06-8.76-2.22-13.12-10.71-15.61
	c-26.02-7.61-52.06-13.92-79.46-8.67c-3.58,0.69-7.61,1.75-10.86,0.76c-4-1.22-9.55-3.78-10.5-6.94c-1.17-3.89,0.86-9.49,3.13-13.41
	c1.62-2.79,5.86-4.12,9.02-5.95c31.88-18.48,63.8-36.9,95.66-55.41c8.33-4.84,10.42-12,10.72-21.73c0.85-28.26,1.71-56.7,5.47-84.67
	c8.91-66.25,18.98-132.35,29.69-198.33c3.71-22.89,10.67-45.26,16.13-67.87c0.76-3.16,1.45-6.34,0.14-11.14
	c-11.22,9.61-23.08,18.57-33.56,28.93c-66.23,65.44-113.03,142.71-137.34,232.7c-5.55,20.56-6.1,42.64-7.43,64.12
	c-0.81,12.98,1.51,13.73,14.45,13.78c2.84,0.01,7.23,1.99,8.12,4.18c1.12,2.79,0.47,7.43-1.27,10.06
	c-8.09,12.25-30.44,11.59-35.73-2.04c-4.57-11.76-6.28-25.03-7.1-37.76c-2.51-38.84,8.95-75.09,23.61-110.26
	c26.41-63.37,59.63-123.1,106.72-173.41c47.42-50.67,102.32-91.37,171.26-108.68c33.77-8.48,67.46-8.51,99.14,8.35
	c29.73,15.82,44.43,41.96,48.4,74.71c0.92,7.57,1.32,15.2,2.08,24.28c8.32-11.22,14.86-22.51,23.73-31.49
	c18.18-18.42,35.72-38.39,56.89-52.77c61.45-41.75,128.2-21.62,159.88,45.63c17.48,37.11,20.7,76.51,16.84,116.22
	c-7.44,76.6-30.35,148.46-73.57,212.75c-39.97,59.45-89.1,109.44-153.95,142.07c-31.92,16.06-65.59,26.01-101.64,25.19
	c-10.87-0.25-21.68-2.96-32.52-4.57c-2.84-0.42-5.67-0.91-9.16-1.47c-2.87,32.41-5.79,63.85-8.22,95.34
	c-0.22,2.91,1.91,7.06,4.28,8.94c51.22,40.45,102.63,80.66,154.02,120.91c0.78,0.61,2.23,0.89,2.45,1.6
	c1.83,5.93,6.33,13.17,4.42,17.61c-2.48,5.77-10.45,4.31-15.75,0.6c-18.54-12.97-37.31-25.65-55.24-39.42
	c-30.37-23.33-60.15-47.42-90.21-71.15c-1.77-1.4-3.76-2.5-6.79-4.5c-1.21,22.69-2.2,44.26-3.57,65.8
	c-1.04,16.27-2.08,32.58-4.2,48.73c-0.61,4.68-3.93,10.43-7.8,12.94c-6.82,4.43-15.29-1.27-15.7-10.23
	c-0.9-19.63-1.78-39.29-1.57-58.93c0.27-25.32,1.75-50.62,2.3-75.94c0.08-3.51-1.07-8.5-3.52-10.4
	c-33.61-26.18-67.49-52.01-101.49-77.69C347.58,666.62,342.16,664.68,335.78,661.35z M545.75,627.95
	c13.59-2.63,30.85-4.65,47.32-9.42c47.2-13.65,86.55-40.9,120.46-75.52c77.61-79.23,122.27-174.04,129.52-285.21
	c2.36-36.23-2.59-71.93-20.97-104.25c-15.39-27.07-37.53-43.8-70.44-41.56c-26.42,1.8-48.3,13.9-67.58,31.11
	c-42.97,38.35-71.08,86.78-92.21,139.44c-34.21,85.29-61.82,172.59-76.83,263.53c-3.41,20.66-7.41,41.22-10.67,61.9
	c-2.01,12.73-0.88,14.06,11.96,16.25C524.81,625.69,533.43,626.43,545.75,627.95z M411.61,459.51c-3.76-10.08-7.4-17.96-9.63-26.22
	c-7.06-26.12-9.51-52.51-8.49-79.82c1.55-41.7,8.85-81.92,22.7-121.08c8.11-22.95,16.82-45.73,33.73-63.99
	c14.29-15.44,32.17-14.1,41.55,4.68c6.38,12.78,11.27,27.51,12.05,41.64c2.21,39.87,1.98,79.87,2.68,119.83
	c0.08,4.52,0.01,9.04,0.01,13.56c12.04-14.66,22.39-29.91,32.08-45.57c21.22-34.28,36.75-70.57,41.17-111.27
	c5.01-46.07-24.99-82.85-69.15-82.83c-31.66,0.01-61.93,5.98-90.93,19.61c-13.37,6.28-22.34,13.25-21.74,29.15
	c0.18,4.83-1.91,9.74-2.89,14.63c-8.9,44.67-19.19,89.11-26.33,134.06c-8.71,54.86-14.87,110.13-21.9,165.26
	c-1.82,14.27-2.78,28.64-4.14,42.97c0.91,0.53,1.83,1.06,2.74,1.59C367.4,496.89,389.66,478.07,411.61,459.51z M469.52,448.38
	c-0.67-0.48-1.35-0.95-2.02-1.43c-8.93,9.16-17.2,19.1-26.91,27.34c-29.89,25.38-60.6,49.79-90.3,75.38
	c-5.22,4.49-9.23,12.55-10.15,19.45c-2.41,18.09-2.55,36.48-4.16,54.7c-0.55,6.18,2.74,8.82,6.95,11.81
	c29.28,20.79,58.54,41.59,87.62,62.65c9,6.52,17.41,13.84,27.55,21.96c1.02-28.36,1.6-54.62,3.12-80.82
	c0.45-7.78-2.17-12.08-8.17-16.41c-6.32-4.56-12.21-10.14-16.86-16.34c-1.82-2.43-1.19-9.21,0.97-11.39
	c2.07-2.09,7.87-1.82,11.48-0.74c4.45,1.33,8.32,4.56,14.3,8.06C465.2,549.73,467.36,499.05,469.52,448.38z M427.24,443.54
	c14.76-16.24,28.96-31.59,42.75-47.31c1.91-2.18,2.39-6.13,2.51-9.29c1.2-31.6,2.76-63.21,3.07-94.83
	c0.27-27.27-0.63-54.57-1.7-81.83c-0.32-8.22-2.95-16.35-4.71-25.49C423.17,220.12,396.72,384.34,427.24,443.54z M535.73,368.34
	c-10.11,12.5-19.36,23.79-28.41,35.24c-1.35,1.71-2.52,4.14-2.53,6.25c-0.17,24.44-0.11,48.89-0.11,75.61
	C515.24,445.6,525.23,407.92,535.73,368.34z M304.55,581.28c-13.66,8.16-26.96,16.09-42.39,25.31c15.95,4.18,28.54,7.49,42.39,11.12
	C304.55,605.32,304.55,594.16,304.55,581.28z"/>
<g>
</g>
<g>
</g>
<g>
</g>
<g>
</g>
<g>
</g>
<g>
</g>
</svg>
