<?xml version="1.0" encoding="utf-8"?>
<!-- Generator: Adobe Illustrator 25.4.1, SVG Export Plug-In . SVG Version: 6.00 Build 0)  -->
<svg version="1.1" id="Calque_1" xmlns="http://www.w3.org/2000/svg" xmlns:xlink="http://www.w3.org/1999/xlink" x="0px" y="0px"
	 viewBox="0 0 1000 1000" style="enable-background:new 0 0 1000 1000;" xml:space="preserve">
<path d="M282.86,216.74c-1.37,0.52-2.16,0.69-2.83,1.08c-42.57,25.13-74.26,59.58-88.7,107.55c-14.51,48.21-4.97,92.69,23.96,133.46
	c3.52,4.96,6.95,10.34,8.76,16.05c1.21,3.82,0.71,9.2-1.13,12.8c-9.18,17.95-28.7,22.07-43.98,9.16
	c-31.08-26.24-50.37-59.6-56.86-99.74c-9.56-59.12,8.1-111.55,41.75-159.38c28.17-40.03,66.28-67.99,110.81-87.31
	c36.76-15.95,70.25-36.9,101.67-61.7c46.36-36.59,99.2-58.58,157.8-65.96c63.74-8.02,126.38-3.23,186.65,20.21
	c51.72,20.12,94.61,52.13,125.41,98.92c22.14,33.64,32.86,71.03,33.97,111.15c1.32,47.82-5.01,94.54-25.36,138.16
	c-33.47,71.71-88.02,118.62-166.12,136.32c-22.72,5.15-45.83,6.05-69.03,5.66c-10.63-0.18-20.79,2.19-30.54,6.39
	c-20.6,8.88-41.22,17.74-61.82,26.62c-1.04,0.45-2.04,0.98-3.44,1.66c3.1,3.4,6.06,6.47,8.83,9.72
	c16.71,19.66,26.01,42.9,31.24,67.71c6.27,29.76,11.53,59.73,17.11,89.63c7.9,42.29,18.14,83.83,39.1,121.92
	c10.53,19.14,23.29,36.47,40.79,49.92c18.47,14.2,39.64,21.46,62.51,24.17c13.5,1.6,17.78,7.79,14.2,21.22
	c-4.76,17.9-23.22,30.25-41.88,28.44c-53.09-5.14-93.21-31.05-121.75-75.62c-20.76-32.43-34.61-67.89-42.72-105.27
	c-7.32-33.76-12.5-67.99-18.31-102.07c-4.01-23.51-9.99-46.51-18.31-68.78c-3.21-8.58-9.22-16.12-14.07-24.05
	c-0.48-0.78-2.33-1.69-2.67-1.42c-1.17,0.9-2.43,2.18-2.8,3.55c-5.12,19.09-9.71,38.33-15.2,57.31
	c-9.64,33.34-19.59,66.61-29.86,99.76c-6.11,19.72-22.73,27.69-42.11,20.63c-4.93-1.79-9.71-4.46-13.97-7.53
	c-7.17-5.16-9.19-12.19-5.91-20.8c4.31-11.33,9.54-22.3,13.83-33.64c12.5-33.04,20.41-67.37,28.06-101.76
	c2.2-9.89,4.57-19.75,6.57-29.69c0.73-3.64,0.63-7.45,0.94-11.67c-7.81,0-14.76,0.03-21.7-0.01c-13.49-0.07-26.98-0.16-40.47-0.28
	c-4.86-0.04-7.75,2.32-9.04,6.94c-5.04,18.07-9.84,36.22-15.23,54.18c-13.84,46.13-26.85,92.55-42.34,138.13
	c-9.48,27.91-22.54,54.64-34.71,81.58c-7.34,16.24-21.94,21.74-38.65,15.7c-4.48-1.62-8.86-3.92-12.77-6.64
	c-11.74-8.16-14.03-18.85-6.76-31.22c13.09-22.28,23.99-45.58,33.26-69.68c15.72-40.86,26.95-83.09,37.84-125.4
	c19.65-76.25,38.92-152.6,58.51-228.87c2.04-7.95,0.75-14.28-4.53-20.75c-31.69-38.84-46.16-83.42-42.97-133.48
	c0.79-12.42,2.98-24.76,4.5-37.14C282.6,220.84,282.68,219.07,282.86,216.74z M458.77,105.82c-0.25,0.51-0.51,1.01-0.76,1.52
	c1.6,0.91,3.12,2.39,4.83,2.64c12.18,1.8,24.4,3.34,36.6,4.99c24.87,3.37,49.85,5.97,73.88,14c17.41,5.82,35.2,8.3,53.54,3.96
	c13.23-3.13,30.43,14.26,25.91,27.64c-1.69,5,0.04,9.15,3.76,12.59c2.08,1.92,4.24,3.75,6.36,5.64
	c19.31,17.18,34.77,37.28,44.57,61.26c18.67,45.67,19.87,92.48,8.14,140.01c-6.83,27.69-18.68,53.22-32.78,77.83
	c-2.95,5.15-5.65,10.44-8.69,16.06c1.46,0,2.31,0.17,3.06-0.03c4.01-1.08,8.09-2,11.97-3.43c42.08-15.49,72.76-44.31,94.52-82.75
	c24.75-43.71,32.08-91.22,27.47-140.74c-3.71-39.84-18.9-74.99-47.98-102.68C709.34,93.09,644.2,73.38,570.84,78.52
	C531.93,81.24,495.6,94.57,458.77,105.82z M541.45,182.71c-2.2-0.64-3.89-1.21-5.62-1.63c-42.18-10.18-85.12-11.05-128.12-9.58
	c-25.56,0.87-44.68,13.36-55.99,36.5c-15.69,32.09-21.36,65.7-12.49,100.81c2.64,10.45,6.95,20.48,10.5,30.7
	c0.57-0.1,1.15-0.2,1.72-0.29c1.54-3.07,3.1-6.13,4.61-9.21c12.28-25.18,25.42-49.84,44-71.1c10.67-12.2,22.06-23.74,36.63-31.34
	c17.15-8.95,34.12-7.17,50.44,2.35c8.25,4.82,9.49,11.21,3.97,18.79c-2.34,3.2-5.28,5.98-8.07,8.83
	c-10.24,10.48-21.43,20.18-30.62,31.5c-20.07,24.72-34.49,52.85-46.46,82.27c-15.84,38.92-26.07,79.51-35.9,120.22
	c-3.3,13.67-6.54,27.35-9.93,41.53c20.7,0,40.84,0.05,60.98-0.04c4.42-0.02,7.55-2.48,9.22-6.52c1.01-2.44,1.84-5,2.41-7.58
	c5.79-25.95,11.41-51.94,17.28-77.88c19.33-85.35,44.06-168.82,85.79-246.38C537.84,190.92,539.47,186.95,541.45,182.71z
	 M508.14,463.3c19.48,5.31,38.41,10.31,57.24,15.65c10.81,3.07,20.29,1.08,27.91-7.03c8.87-9.45,18.02-18.81,25.61-29.26
	c34.46-47.46,42.2-100.8,31.55-157.18c-6.45-34.17-26.83-59.48-55.99-78.5c-1.23,1.78-2.37,3.37-3.45,5.01
	c-14.38,21.91-25.78,45.31-35.05,69.79C533.72,340.42,524.11,402.37,508.14,463.3z M519.43,514.49c-7.78-3.12-14.45-5.8-21.65-8.69
	c-1.08,5.86-2.03,11.06-3.12,17C503.24,519.91,510.75,517.4,519.43,514.49z"/>
</svg>
