<svg id="Calque_1" data-name="Calque 1" xmlns="http://www.w3.org/2000/svg" viewBox="0 0 1000 1000"><defs><style>.cls-1{fill:#fff;}</style></defs><path class="cls-1" d="M1000,1000H0V0H1000ZM510.87,609.67c2.76,5.68,5.85,9.84,6.83,14.46,5.06,24,9.93,48.11,14.22,72.28,6.32,35.57,14.45,70.49,33.7,101.69,17.84,28.91,42.52,48.11,77,53.35,16,2.43,27.4-2.75,32.91-15.86,4.44-10.55,1.76-16-9.7-17.06-27.1-2.46-46.49-16.8-61-38.61-19.11-28.63-26.37-61.44-32.9-94.54-7.45-37.83-8.44-78-37.87-108.57,4-1.25,7.15-2.21,10.3-3.25,44.9-14.83,82-39.46,104.37-82.78,1.31-2.52,5.41-4.54,8.5-5.06,38.83-6.43,72.31-22.78,97.84-53.26,27.32-32.64,39.67-71.1,41.86-113.13,3.25-62.29-21.6-110.82-75.05-142.22-69.13-40.61-142.12-41.63-215.07-11.31-53.51,22.25-92.86,59.19-107.24,118-.67,2.74-4.36,5.44-7.28,6.81-10.54,4.92-21.83,8.37-32,14C308,333.4,272.07,374.25,267.09,436.3,264,475,277,507.67,307.47,532.58c6.88,5.62,16.67,4.16,24-3.4,6.26-6.45,6.3-12.81,1.14-20.55-6.41-9.61-12.93-19.62-16.77-30.4C295.45,420.88,335.6,350,398.18,332.66c4.56,25.07,14.34,47.62,32.17,66.34,1.3,1.37,0,6-1.12,8.76-7,17.59-15.89,34.6-21.11,52.69-12.16,42.17-22.65,84.83-33.71,127.32-15.25,58.54-27.57,118-58.23,171.42-2.1,3.65-.81,11.71,2,15.27,8.31,10.49,29.7,15.42,38.13-2.9,2.77-6,6.73-11.62,8.89-17.84,12.43-35.8,24.85-71.61,36.51-107.66,6.41-19.8,11.33-40.08,16.74-59.49H475.6c-6.1,15.87-11.53,30.39-17.28,44.78-4.11,10.31-1.43,17.18,8.9,21.43,13.58,5.59,25.14,1.4,31.28-12.08C502.89,631.09,506.37,621.07,510.87,609.67Z"/><path d="M510.87,609.67c-4.5,11.4-8,21.42-12.37,31-6.14,13.48-17.7,17.67-31.28,12.08-10.33-4.25-13-11.12-8.9-21.43,5.75-14.39,11.18-28.91,17.28-44.78H418.45C413,606,408.12,626.26,401.71,646.06c-11.66,36.05-24.08,71.86-36.51,107.66-2.16,6.22-6.12,11.8-8.89,17.84-8.43,18.32-29.82,13.39-38.13,2.9-2.81-3.56-4.1-11.62-2-15.27,30.66-53.39,43-112.88,58.23-171.42,11.06-42.49,21.55-85.15,33.71-127.32,5.22-18.09,14.12-35.1,21.11-52.69,1.09-2.74,2.42-7.39,1.12-8.76-17.83-18.72-27.61-41.27-32.17-66.34C335.6,350,295.45,420.88,315.87,478.23c3.84,10.78,10.36,20.79,16.77,30.4,5.16,7.74,5.12,14.1-1.14,20.55-7.36,7.56-17.15,9-24,3.4C277,507.67,264,475,267.09,436.3c5-62.05,40.92-102.9,93.15-131.69,10.13-5.59,21.42-9,32-14,2.92-1.37,6.61-4.07,7.28-6.81,14.38-58.85,53.73-95.79,107.24-118,72.95-30.32,145.94-29.3,215.07,11.31,53.45,31.4,78.3,79.93,75.05,142.22-2.19,42-14.54,80.49-41.86,113.13-25.53,30.48-59,46.83-97.84,53.26-3.09.52-7.19,2.54-8.5,5.06-22.4,43.32-59.47,68-104.37,82.78-3.15,1-6.33,2-10.3,3.25,29.43,30.62,30.42,70.74,37.87,108.57,6.53,33.1,13.79,65.91,32.9,94.54,14.56,21.81,34,36.15,61,38.61,11.46,1,14.14,6.51,9.7,17.06-5.51,13.11-17,18.29-32.91,15.86-34.44-5.24-59.12-24.44-77-53.35-19.25-31.2-27.38-66.12-33.7-101.69-4.29-24.17-9.16-48.26-14.22-72.28C516.72,619.51,513.63,615.35,510.87,609.67Zm152.49-161.5c9.84-4.66,17.6-7.61,24.65-11.78,35.8-21.17,53.42-54.46,61.3-93.89C761.45,281.73,736.38,229,682.9,202.23,617.1,169.34,525.31,184,473.1,235.91c-12,11.93-23,24.76-29.14,42,29.37,0,58.42-3.31,86.26,1.08,21.22,3.34,31.5-.56,41.3-19.37,10.26-19.67,26.69-34.75,50.38-39,8.93-1.6,15.76,1.44,21.44,7.61s4.42,13.21-2.53,17.82c-2.74,1.82-5.93,3-8.91,4.45-19.46,9.65-30.48,26.51-40,45.32C654.34,327.83,674.65,379.25,663.36,448.17ZM452.9,371c6.33-5.56,11.65-10.55,17.3-15.13,10.1-8.18,21.45-10,33.76-5.81,13.33,4.55,15,12,4.23,21.28-18.47,15.9-33.49,34.61-42.65,57.08-9.76,23.94-18.19,48.47-26,73.12-5.38,16.89-8.76,34.42-13.43,53.25,15.56,0,29.15-.53,42.68.17,11.61.59,15.16-4.59,17.7-15.48,15.35-66,31.65-131.82,47.77-197.65,1.7-7,4.32-13.67,6.72-21.14-35.61-8.18-70-9.34-105.24-1.39C435.81,338.6,442.67,354.82,452.9,371Zm96.71,70.61c21.88,3.93,41.94,7.74,62.11,10.84,1.9.29,5.94-3.5,6.5-6,5.07-22.12,4.95-44.26-2.59-65.84-6.94-19.87-20.25-34.58-40-46C567.1,369.87,558.78,404,549.61,441.63ZM525.82,544.54c33.08-11.42,59.73-27.95,76.91-57.28l-59.92-16.92Z"/><path class="cls-1" d="M663.36,448.17c11.29-68.92-9-120.34-71.44-152.34,9.5-18.81,20.52-35.67,40-45.32,3-1.47,6.17-2.63,8.91-4.45,7-4.61,8.09-11.79,2.53-17.82s-12.51-9.21-21.44-7.61c-23.69,4.27-40.12,19.35-50.38,39-9.8,18.81-20.08,22.71-41.3,19.37-27.84-4.39-56.89-1.08-86.26-1.08,6.17-17.27,17.14-30.1,29.14-42,52.21-51.92,144-66.57,209.8-33.68,53.48,26.73,78.55,79.5,66.41,140.27-7.88,39.43-25.5,72.72-61.3,93.89C681,440.56,673.2,443.51,663.36,448.17Z"/><path class="cls-1" d="M452.9,371c-10.23-16.2-17.09-32.42-17.19-51.7,35.22-7.95,69.63-6.79,105.24,1.39-2.4,7.47-5,14.19-6.72,21.14-16.12,65.83-32.42,131.63-47.77,197.65-2.54,10.89-6.09,16.07-17.7,15.48-13.53-.7-27.12-.17-42.68-.17,4.67-18.83,8.05-36.36,13.43-53.25,7.84-24.65,16.27-49.18,26-73.12,9.16-22.47,24.18-41.18,42.65-57.08,10.74-9.24,9.1-16.73-4.23-21.28-12.31-4.2-23.66-2.37-33.76,5.81C464.55,360.47,459.23,365.46,452.9,371Z"/><path class="cls-1" d="M549.61,441.63c9.17-37.64,17.49-71.76,26.06-107,19.71,11.42,33,26.13,40,46,7.54,21.58,7.66,43.72,2.59,65.84-.56,2.47-4.6,6.26-6.5,6C591.55,449.37,571.49,445.56,549.61,441.63Z"/><path class="cls-1" d="M525.82,544.54l17-74.2,59.92,16.92C585.55,516.59,558.9,533.12,525.82,544.54Z"/></svg>