<?xml version="1.0" encoding="utf-8"?>
<!-- Generator: Adobe Illustrator 25.4.1, SVG Export Plug-In . SVG Version: 6.00 Build 0)  -->
<svg version="1.1" id="Calque_1" xmlns="http://www.w3.org/2000/svg" xmlns:xlink="http://www.w3.org/1999/xlink" x="0px" y="0px"
	 viewBox="0 0 1000 1000" style="enable-background:new 0 0 1000 1000;" xml:space="preserve">
<path d="M471.34,656.03c-3.47,8.89-6.28,16.28-9.22,23.61c-2.85,7.09-5.63,14.22-8.8,21.16c-11.66,25.56-36.09,22.38-51,12.03
	c-6.77-4.69-9.2-11.69-6.62-19.36c4.51-13.37,9.77-26.48,14.76-39.68c3.62-9.6,7.3-19.17,11.16-29.31
	c-1.86-0.16-3.09-0.37-4.33-0.37c-23.83-0.02-47.66,0.08-71.49-0.11c-3.57-0.03-4.94,1.19-5.74,4.45
	c-19.29,78.2-47.09,153.69-73.39,229.65c-3.71,10.73-9.62,20.83-15.48,30.64c-6.76,11.31-19.72,14.89-33.43,10.43
	c-14.32-4.65-21.7-13.93-21.02-26.71c0.12-2.25,0.66-4.7,1.76-6.63c27.71-48.65,45.18-101.24,59.36-155.03
	c21.26-80.63,42.33-161.32,62.99-242.1c8.16-31.92,21.53-61.74,34.38-91.83c0.46-1.07,0.88-2.16,1.37-3.21
	c3.07-6.61,2.59-11.81-2.9-17.84c-21.49-23.62-33.43-52.1-39.73-83.13c-0.2-0.98-0.38-1.96-0.64-2.92
	c-0.13-0.46-0.42-0.88-0.79-1.61c-14.36,3.89-27.89,9.71-40.37,17.71c-44.57,28.58-72.27,68.74-80.74,121.16
	c-4.92,30.47,0.09,59.71,16,86.59c4.4,7.44,9.19,14.66,13.82,21.97c7.56,11.94,6.38,20.93-3.97,30.08
	c-10.5,9.29-22.7,10.1-32.57,1.92c-39.61-32.85-58.27-75.09-55.98-126.44c3.5-78.06,42.2-135.15,105.95-177.3
	c18.41-12.17,37.91-22.09,58.58-29.76c3.27-1.21,6.43-2.72,9.63-4.1c7.11-3.05,11.46-7.75,13.58-15.8
	c17.8-67.56,60.03-115.34,121.22-147.15C479.58,25.27,523.98,11,570.98,6.25c84.73-8.56,161.1,13.73,228.04,66.08
	c41.02,32.08,64.68,75.21,71.14,126.9c8.07,64.53-2.48,125.77-36.88,181.72c-34.03,55.37-84.13,87.63-147.49,100.08
	c-2.61,0.51-5.23,0.97-7.86,1.39c-7.2,1.15-12.18,4.74-15.76,11.45c-25.69,48.04-65.61,80.14-115.11,101.06
	c-13.91,5.88-28.29,10.64-42.69,16c0.06,0.13,0.17,0.79,0.55,1.2c20.36,21.62,31.85,47.81,37.94,76.35
	c5.75,26.98,9.97,54.28,15.22,81.36c6.62,34.14,14.49,67.96,29.84,99.5c11.19,22.99,24.99,44.01,45.72,59.71
	c16.22,12.29,34.6,18.91,54.76,20.86c1.98,0.19,3.97,0.5,5.89,0.97c9.06,2.22,12.01,7.1,9.89,16.18
	c-4.62,19.83-20.77,31.5-41.43,29.47c-41.28-4.06-74.6-22.94-100.4-55.15c-23.28-29.06-38.11-62.47-47.13-98.21
	c-7.55-29.94-13-60.41-19.22-90.68c-5.19-25.23-9.83-50.59-15.44-75.72C479.04,670.02,474.9,663.85,471.34,656.03z M584.92,215.96
	c0.4,0.51,0.55,0.86,0.8,1.01c1.88,1.06,3.8,2.07,5.69,3.11c30.09,16.61,55.99,37.82,73.79,67.77
	c20.59,34.66,25.98,72.55,23.22,112.05c-0.69,9.92-2.03,19.8-3.13,30.28c7.05-3.16,13.83-6.13,20.57-9.22
	c25.67-11.75,46.87-29.06,63.72-51.67c17.91-24.04,28.41-51.34,34.93-80.35c8.12-36.11,8.51-72.05-4.03-107.27
	C782.82,132,747.54,99.14,699.75,79.06c-45.09-18.94-92.07-22.72-140.09-15.3c-48.36,7.47-92.2,25.54-129.65,57.51
	c-20.25,17.29-38.28,36.63-49.48,61.33c-1.2,2.64-2.15,5.39-3.16,7.94c13.5,0,26.46-0.02,39.43,0.01c20.14,0.04,40.3-0.3,60.42,0.34
	c13.11,0.41,26.15,2.68,39.26,3.35c13.66,0.69,24.58-5.23,32.39-16.38c3.71-5.3,6.82-11.02,10.06-16.63
	c14.11-24.42,33.88-41.61,61.65-48.76c10.37-2.67,20.37-3.03,29.69,3.39c16.36,11.29,15.33,25.02-2.54,33.6
	c-0.45,0.22-0.89,0.45-1.35,0.64C616,162.91,598.85,187.98,584.92,215.96z M389.74,322.12c1.74-1.51,2.98-2.6,4.22-3.68
	c7.3-6.33,14.34-12.98,21.95-18.91c15.34-11.95,37.07-13.06,53.5-3.23c8.58,5.13,9.99,11.55,3.87,19.44
	c-2.43,3.12-5.47,5.81-8.45,8.45c-26.61,23.53-47.8,50.93-60.07,84.59c-10.3,28.23-21.15,56.31-30.16,84.96
	c-8.85,28.14-15.69,56.91-23.43,85.46c1.6,0.47,2.06,0.72,2.52,0.72c21.32,0.05,42.64,0.17,63.95,0.06
	c7.81-0.04,13.13-4.29,16.14-11.34c1.3-3.04,2.31-6.24,3.09-9.46c22.34-92.18,44.57-184.38,67-276.54
	c2.54-10.45,6.13-20.65,9.23-30.95c-25.7-12.04-124.46-13.23-147.52-1.74C365.52,276.49,375.5,299.71,389.74,322.12z M561.92,270.56
	c-12.28,50.44-24.43,100.32-36.6,150.27c1.69,0.48,2.62,0.85,3.6,1.02c25.87,4.52,51.75,9.01,77.63,13.54
	c9.66,1.69,14.55-1.39,16.25-11.02c1.45-8.18,2.71-16.41,3.47-24.68c2.42-26.36-1.41-51.81-12.63-75.86
	C602.7,300.42,584.66,283.66,561.92,270.56z M515.81,460.98c-8.01,34.96-15.88,69.32-23.97,104.63
	c45.21-15.55,83.62-38.44,108.49-80.75C572.02,476.86,544.27,469.02,515.81,460.98z"/>
</svg>
