<svg id="Calque_1" data-name="Calque 1" xmlns="http://www.w3.org/2000/svg" viewBox="0 0 1000 1000"><defs><style>.cls-1{fill:#fff;}</style></defs><path d="M1000,1000H0V0H1000ZM388.19,295.71a66.46,66.46,0,0,1-.57,7.29c-9,45-.65,85.79,29.09,121.65,2.16,2.62,2.67,8,1.8,11.52Q405.67,488.43,392,540.5c-18,68.34-30.94,138.35-66.95,200.72-4.17,7.22-1.9,14.17,4.56,19.58,13.89,11.65,31.44,9.21,38.94-7.29,11.4-25,22.39-50.46,31-76.57,12.13-36.89,21.84-74.58,32.78-111.87,1-3.49,3.29-9.33,5.22-9.42,15.39-.78,30.84-.44,45.86-.44.44,3.36.72,4,.59,4.66-8.82,39.87-16.22,80.17-33.85,117.5-2.94,6.21-3.73,12,1.35,17.51C463.1,707.53,486.16,705,492,689.06c9.08-24.89,16.46-50.42,23.9-75.88,3.91-13.38,6.43-27.17,9.58-40.78l2.72-.32c4,6.8,9.28,13.18,11.65,20.5,4.89,15.1,9.66,30.49,11.89,46.13,5.61,39.24,11.2,78.42,26.51,115.33,19.51,47.05,49.47,81.87,104.19,87.18,14.12,1.36,28-8.88,30-23.07,1-7.24-1.43-11.45-9.23-12.26a108.12,108.12,0,0,1-16.63-3.15c-32.52-8.71-50.73-32.71-64.09-61.3C607.69,709.78,602,675.6,596,641.52c-6-33.9-10-68.72-36.31-94.57,14.83-6.27,29.73-11.83,43.93-18.83a54.7,54.7,0,0,1,26.57-5.78c55.17,1.16,102.78-16.53,139.09-59.4,23.85-28.17,35.65-61.79,42.19-97.75,14.27-78.44-24.15-152.52-96.59-185.48-43.42-19.75-88.64-27.4-136.17-21.94-45.16,5.18-88,17.69-123.2,46.95-23.23,19.33-48,33.85-75.48,46-44.36,19.55-78,51.68-96.77,97.47C260.61,403.34,272,459.46,312.71,495.43c10,8.79,18.47,8.89,28.19.32,8.26-7.28,8.17-14.07.13-25.23-25.79-35.74-30.28-73.85-11.16-113.81C342.4,330.55,362.57,311.26,388.19,295.71Z"/><path class="cls-1" d="M388.19,295.71c-25.62,15.55-45.79,34.84-58.32,61-19.12,40-14.63,78.07,11.16,113.81,8,11.16,8.13,18-.13,25.23-9.72,8.57-18.22,8.47-28.19-.32-40.75-36-52.1-92.09-29.49-147.25C302,302.39,335.63,270.26,380,250.71c27.53-12.14,52.25-26.66,75.48-46,35.16-29.26,78-41.77,123.2-46.95,47.53-5.46,92.75,2.19,136.17,21.94,72.44,33,110.86,107,96.59,185.48-6.54,36-18.34,69.58-42.19,97.75-36.31,42.87-83.92,60.56-139.09,59.4a54.7,54.7,0,0,0-26.57,5.78c-14.2,7-29.1,12.56-43.93,18.83,26.27,25.85,30.29,60.67,36.31,94.57,6,34.08,11.73,68.26,26.52,99.92,13.36,28.59,31.57,52.59,64.09,61.3a108.12,108.12,0,0,0,16.63,3.15c7.8.81,10.24,5,9.23,12.26-2,14.19-15.9,24.43-30,23.07-54.72-5.31-84.68-40.13-104.19-87.18-15.31-36.91-20.9-76.09-26.51-115.33-2.23-15.64-7-31-11.89-46.13-2.37-7.32-7.68-13.7-11.65-20.5l-2.72.32c-3.15,13.61-5.67,27.4-9.58,40.78-7.44,25.46-14.82,51-23.9,75.88-5.81,16-28.87,18.47-40.49,5.82-5.08-5.53-4.29-11.3-1.35-17.51,17.63-37.33,25-77.63,33.85-117.5.13-.61-.15-1.3-.59-4.66-15,0-30.47-.34-45.86.44-1.93.09-4.2,5.93-5.22,9.42-10.94,37.29-20.65,75-32.78,111.87-8.58,26.11-19.57,51.52-31,76.57-7.5,16.5-25.05,18.94-38.94,7.29-6.46-5.41-8.73-12.36-4.56-19.58,36-62.37,49-132.38,66.95-200.72q13.69-52,26.5-104.33c.87-3.55.36-8.9-1.8-11.52C387,388.79,378.59,348,387.62,303A66.46,66.46,0,0,0,388.19,295.71ZM512.89,218c.44.71.87,1.42,1.31,2.12,21.34,3.23,42.74,6.11,64,9.8,17.53,3,33.57,12,53,7.14,12.26-3.05,20.48,9,20,22.73-.07,2.24,2.24,5.09,4.2,6.78,41.18,35.62,51.56,81.3,43.55,133-4.62,29.78-15.94,56.83-35.26,82.15a117.25,117.25,0,0,0,53.47-28.43c30.91-28.33,44.87-64.87,47.59-105.64,3.67-55-17-98-65.86-125.94C659,198.81,616.14,193.1,571.59,201.4,551.68,205.11,532.43,212.35,512.89,218ZM436.65,384.75c2.13-4.41,3.67-7.7,5.28-10.95,12.06-24.31,25.78-47.35,47.75-64.34,12.44-9.62,25.76-11.84,40.21-5.41,10.83,4.81,11.81,11.51,3.29,19.59-7.24,6.86-15.9,12.87-21.18,21-12.56,19.45-25.35,39.12-34.66,60.21C461,441.94,452.21,481.51,443.71,522.1c14,0,27-.35,39.91.14,7.12.28,9.3-2.4,10.9-9.26,19.11-82,33.79-165.53,79.12-240-30.89-8.45-61.71-8.73-93.05-8.47s-42.66,19.26-50.34,43.94C422.24,334.24,423.8,359.45,436.65,384.75Zm174.29-94.34A60.37,60.37,0,0,0,606.2,296c-3.43,5.31-7,10.54-9.9,16.15C571.39,360.73,563,414.25,550.52,466.51c-.48,2,2.7,6.58,5,7.35,11.65,3.83,23.6,6.74,35.42,10.08,7.59,2.14,13.13-.63,18.7-5.88,30.52-28.77,43.43-64.69,43.16-105.79C652.62,338.26,640,310.26,610.94,290.41ZM541.17,503c-.74,4.27-1.26,7.28-2,11.69l17.35-5.78Z"/><path d="M512.89,218c19.54-5.64,38.79-12.88,58.7-16.59,44.55-8.3,87.42-2.59,127.33,20.26,48.82,28,69.53,71,65.86,125.94-2.72,40.77-16.68,77.31-47.59,105.64a117.25,117.25,0,0,1-53.47,28.43C683,456.35,694.36,429.3,699,399.52c8-51.66-2.37-97.34-43.55-133-2-1.69-4.27-4.54-4.2-6.78,7.37-11.28-7.77-25.78-20-22.73-19.44,4.83-35.48-4.1-53-7.14-21.25-3.69-42.65-6.57-64-9.8C513.76,219.41,513.33,218.7,512.89,218Z"/><path d="M436.65,384.75c-12.85-25.3-14.41-50.51-6.4-76.26,7.68-24.68,19.14-43.69,50.34-43.94s62.16,0,93.05,8.47c-45.33,74.43-60,158-79.12,240-1.6,6.86-3.78,9.54-10.9,9.26-12.92-.49-25.87-.14-39.91-.14,8.5-40.59,17.28-80.16,33.63-117.22,9.31-21.09,22.1-40.76,34.66-60.21,5.28-8.16,13.94-14.17,21.18-21,8.52-8.08,7.54-14.78-3.29-19.59-14.45-6.43-27.77-4.21-40.21,5.41-22,17-35.69,40-47.75,64.34C440.32,377.05,438.78,380.34,436.65,384.75Z"/><path d="M610.94,290.41c29.07,19.85,41.68,47.85,41.9,81.86.27,41.1-12.64,77-43.16,105.79-5.57,5.25-11.11,8-18.7,5.88-11.82-3.34-23.77-6.25-35.42-10.08-2.34-.77-5.52-5.33-5-7.35,12.5-52.26,20.87-105.78,45.78-154.33,2.88-5.61,6.47-10.84,9.9-16.15A60.37,60.37,0,0,1,610.94,290.41Z"/><path d="M541.17,503l15.34,5.91-17.35,5.78C539.91,510.31,540.43,507.3,541.17,503Z"/><path class="cls-1" d="M651.23,259.78"/></svg>