<?xml version="1.0" encoding="utf-8"?>
<!-- Generator: Adobe Illustrator 25.4.1, SVG Export Plug-In . SVG Version: 6.00 Build 0)  -->
<svg version="1.1" id="Calque_1" xmlns="http://www.w3.org/2000/svg" xmlns:xlink="http://www.w3.org/1999/xlink" x="0px" y="0px"
	 viewBox="0 0 1000 1000" style="enable-background:new 0 0 1000 1000;" xml:space="preserve">
<path d="M633.27,631.76c-2.46,10.18-4.86,19.95-7.19,29.74c-5.84,24.51-11.69,49.02-17.45,73.55c-5.01,21.29-9.85,42.62-14.88,63.9
	c-3.47,14.67-7.13,29.3-10.68,43.95c-0.66,2.73-1.41,5.47-1.75,8.24c-0.13,1.04,0.44,2.71,1.26,3.24
	c7.31,4.83,7.84,11.71,5.34,18.98c-4.02,11.66-11.11,21.59-23.25,24.9c-7.51,2.05-16.19,1.36-24.09,0.18
	c-50.5-7.49-85.98-36.14-110.99-79.52c-17.25-29.92-28.54-62.06-35.42-95.67c-5.82-28.43-10-57.2-15.22-85.76
	c-3.03-16.61-5.76-33.37-10.26-49.61c-6.29-22.7-19.46-40.91-39.86-53.48c-6.89-4.25-14.28-6.12-22.28-6.29
	c-23.15-0.51-46.29-1.09-69.44-1.7c-7.04-0.19-10.72,2.22-12.91,9.24c-6.55,21.04-12.9,42.14-19.47,63.17
	c-8.46,27.04-17.05,54.04-25.61,81.05c-7.01,22.12-14.13,44.19-21.04,66.34c-5.29,16.95-13.95,32.28-22.84,47.43
	c-4.83,8.24-13.38,11.01-22.53,9.78c-5.99-0.8-12.06-2.63-17.55-5.17c-14.53-6.75-18.01-17.86-10.18-31.93
	c12.21-21.94,23.61-44.3,31.75-68.05c8.91-26,17.29-52.22,24.91-78.63c8.87-30.72,16.77-61.73,24.91-92.66
	c8.22-31.25,16.05-62.6,24.38-93.82c9.27-34.72,17.76-69.72,28.69-103.92c15.96-49.92,42.98-92.78,84.93-125.7
	c17.84-14.01,39.82-8.9,53.18,0.74c7.59,5.48,7.03,12.34-0.93,18.96c-22.27,18.5-40.18,40.58-54.76,65.54
	c-14.57,24.93-25.33,51.54-33.7,79c-8.65,28.35-15.99,57.11-23.63,85.76c-2.64,9.9-4.46,20.02-6.81,30.79
	c3.5,0.17,6.72,0.4,9.94,0.47c37.07,0.81,73.91-0.82,110.12-9.77c21.91-5.42,42.77-13.5,62.56-24.35
	c7.49-4.11,10.34-9.65,9.56-17.86c-2.75-28.98-0.55-57.49,8.78-85.21c10.31-30.63,27.62-56.96,50-80.08
	c3.24-3.35,6.65-6.55,9.89-9.91c4.93-5.12,6.54-10.87,3.83-17.81c-15.23-39.11-43.34-64.22-83.22-76.33
	c-38.49-11.69-77.81-18.05-118.13-16.38c-51.95,2.15-99.55,17.88-142.63,47.03c-24.3,16.44-46.55,35.06-62.01,60.57
	c-21.37,35.25-27.67,72.74-16.9,112.86c5.25,19.57,14.63,36.94,26.96,52.84c8.83,11.39,8.06,19.81-2.82,29.41
	c-12.22,10.78-23.06,10.98-35.49,0.44c-32.71-27.75-50.76-62.91-53.59-105.85c-1.51-22.85,1.94-45.08,7.62-67.06
	c9.96-38.53,30.06-71.06,58.96-98.22c27.56-25.9,60.02-43.91,94.78-58.1c49.79-20.33,101.49-30.81,155.35-28.97
	c53.33,1.83,104.5,13.34,152.49,37.12c24.86,12.31,42.67,32.54,58.32,54.85c6.58,9.38,12.9,18.94,19.41,28.52
	c10.31-4.49,20.49-9.29,30.94-13.4c34.52-13.59,70.49-20.32,107.43-22.58c42.67-2.61,84.5,1.44,125.04,15.45
	c42,14.51,79.27,36.83,110.19,69.05c23.51,24.49,39.21,53.5,47.45,86.33c6.08,24.21,7.35,48.93,5.74,73.84
	c-2.5,38.64-10.04,76.02-28.37,110.5c-32.28,60.73-81.16,100.68-148.69,116.2c-39.19,9-78.41,6.26-117.36-2.33
	C674.07,641.21,654.16,636.53,633.27,631.76z M522.5,837.46c1.91-5.04,3.95-9.56,5.34-14.27c3.23-10.96,6.21-22,9.19-33.04
	c5.36-19.84,10.99-39.61,15.89-59.56c7.4-30.11,14.2-60.37,21.38-90.53c9.14-38.39,18.28-76.77,27.66-115.1
	c9.53-38.94,18.2-78.13,32.91-115.62c12.99-33.09,28.83-64.6,51.21-92.45c14.02-17.44,31.35-30.16,53.5-35.45
	c13.7-3.27,25.4,0.17,34.68,10.88c7.19,8.29,5.93,17.33-3.21,23.37c-2.61,1.73-5.56,2.97-8.41,4.32
	c-23.55,11.07-42.47,27.61-53.03,51.37c-11.9,26.77-23.01,54.07-31.84,81.97c-10.23,32.34-17.68,65.56-26.16,98.44
	c-2.96,11.5-5.39,23.13-8.15,35.09c8.1,2.6,15.79,5.21,23.56,7.55c36.33,10.94,73.39,16.14,110.95,9.15
	c72.5-13.49,117.08-58.5,138.38-127.53c9.39-30.43,11.62-61.97,7.66-93.77c-3.36-27.03-12.45-51.81-28.67-73.83
	c-19.31-26.21-45.2-43.8-74.55-56.88c-42.63-19-87.05-26.5-133.47-20.37c-34.85,4.61-67.26,16.62-98.57,32.35
	c-10.94,5.5-15.14,12.84-14.94,24.75c0.39,23.21-2.99,46.02-9.69,68.32c-7.91,26.33-21.64,49.46-38.34,71.02
	c-10.58,13.66-21.2,27.3-32.04,41.25c7.96,11.74,15.99,23.15,23.49,34.9c2.33,3.65,4.15,8.11,4.59,12.37
	c0.96,9.14-7.29,18.67-18.89,23.14c-9.03,3.47-17.12,1.28-23.97-7c-9.75-11.8-19.32-23.75-28.81-35.76
	c-1.96-2.48-3.56-3.16-6.67-1.9c-10.32,4.18-20.79,7.98-31.19,11.95c-7.86,3-15.71,6.03-23.69,9.1c0.45,0.91,0.56,1.44,0.88,1.74
	c20.39,19.48,30.78,44.23,36.65,71.1c4.78,21.87,8.66,43.93,12.89,65.91c5.83,30.28,11.61,60.54,21.52,89.89
	C472.81,780.65,493.54,811.14,522.5,837.46z"/>
</svg>
