<svg id="Calque_1" data-name="Calque 1" xmlns="http://www.w3.org/2000/svg" viewBox="0 0 1000 1000"><defs><style>.cls-1{fill:#fff;}</style></defs><path d="M0,0H1000V1000H0ZM403.75,332.5c7.05,16.56,13.22,32.61,20.71,48,3.94,8.1,13.87,14.83,14.39,22.63.54,8.11-8.23,16.39-10.84,25.21-14.32,48.46-28.5,97-41.8,145.72-17.14,62.83-28.78,127.41-61.73,185-2.18,3.82-.71,12.36,2.31,16,11.09,13.55,29.27,11.24,37.94-3.95,2.81-4.91,5.71-9.88,7.6-15.16,11.39-31.95,23.07-63.81,33.52-96.07,7.86-24.27,14-49.09,20.74-72.93h57.09c-5.92,15.53-11,29.54-16.6,43.32-5.05,12.4-1.16,20.65,11.84,23.73,13.89,3.29,22.19-.53,28.15-13.84,4.24-9.47,7.67-19.31,12.14-30.74,2.87,6.26,5.85,10.56,6.84,15.28,5,23.73,9.8,47.49,14,71.36,6.33,35.93,14.48,71.22,34,102.67,17.94,28.89,42.79,47.93,77.25,53,15.2,2.24,24.93-1.78,31.27-13.75s3.52-18.18-10.07-19.48c-17.72-1.7-33.54-8.26-44.91-21.47-10.51-12.19-21.38-25.57-26.74-40.37C591.19,730,584.58,702,578.36,674.17c-7.57-33.92-9.36-69.69-36.17-97,2.79-1,4.84-1.93,7-2.58,46.67-14.36,84.86-39.51,108-84.19,1.28-2.46,5.6-4.16,8.76-4.69,39.59-6.62,73.46-23.65,99-55.13,26.09-32.19,38-69.84,40.23-110.8,3.33-62.26-21.13-111.24-74.75-142.42-76-44.2-154.73-42.24-232.21-3.71-43.93,21.84-76.15,55.92-88.85,105-2.05,8-5.94,11.07-13.14,13.78C344.06,312.08,303.31,344.27,283,398c-18.61,49.34-6.54,101.9,30,132.58,9,7.55,17.89,7.22,26.38-1,7-6.8,6.9-13.08-.35-22.83-17.35-23.33-24.94-49.56-19.49-78.16C328.87,379.72,362.79,352,403.75,332.5Z"/><path class="cls-1" d="M403.75,332.5c-41,19.54-74.88,47.22-84.19,96.1-5.45,28.6,2.14,54.83,19.49,78.16,7.25,9.75,7.38,16,.35,22.83-8.49,8.21-17.39,8.54-26.38,1C276.5,499.9,264.43,447.34,283,398c20.27-53.73,61-85.92,113.13-105.51,7.2-2.71,11.09-5.83,13.14-13.78,12.7-49.12,44.92-83.2,88.85-105,77.48-38.53,156.21-40.49,232.21,3.71,53.62,31.18,78.08,80.16,74.75,142.42-2.2,41-14.14,78.61-40.23,110.8-25.51,31.48-59.38,48.51-99,55.13-3.16.53-7.48,2.23-8.76,4.69-23.14,44.68-61.33,69.83-108,84.19-2.13.65-4.18,1.54-7,2.58,26.81,27.29,28.6,63.06,36.17,97,6.22,27.85,12.83,55.84,22.51,82.58,5.36,14.8,16.23,28.18,26.74,40.37,11.37,13.21,27.19,19.77,44.91,21.47,13.59,1.3,16.47,7.41,10.07,19.48s-16.07,16-31.27,13.75c-34.46-5.05-59.31-24.09-77.25-53-19.54-31.45-27.69-66.74-34-102.67-4.2-23.87-9-47.63-14-71.36-1-4.72-4-9-6.84-15.28-4.47,11.43-7.9,21.27-12.14,30.74-6,13.31-14.26,17.13-28.15,13.84-13-3.08-16.89-11.33-11.84-23.73,5.61-13.78,10.68-27.79,16.6-43.32H426.59c-6.71,23.84-12.88,48.66-20.74,72.93-10.45,32.26-22.13,64.12-33.52,96.07-1.89,5.28-4.79,10.25-7.6,15.16-8.67,15.19-26.85,17.5-37.94,3.95-3-3.69-4.49-12.23-2.31-16,32.95-57.63,44.59-122.21,61.73-185,13.3-48.75,27.48-97.26,41.8-145.72,2.61-8.82,11.53-24.25,10.84-25.21-4.57-6.33-10.45-14.53-14.39-22.63C417,365.11,410.8,349.06,403.75,332.5ZM671.05,451c14.06-9.42,30-16.59,42.84-27.5,28.91-24.62,41.08-58,45.75-94.81,7.13-56.12-22.65-107.89-75-129.18-67.85-27.6-131.1-17.23-189.75,24.8A125.49,125.49,0,0,0,451.67,278c39-5.13,76.41-3.86,113.26,5,5.2-8.62,9.62-16.83,14.87-24.47,12.51-18.19,27.05-33.79,50.35-38,8.91-1.6,15.76,1.41,21.42,7.65s4.53,13.15-2.53,17.79c-3,2-6.53,3.28-9.79,4.94-19.07,9.65-29.69,26.44-39.17,44.84C664.23,328.73,683.93,382.05,671.05,451ZM434.44,555.2c14.67,0,27.29.46,39.87-.11,16.62-.75,16.6-1.1,20.5-17.79,1.05-4.54,2.17-9.06,3.16-13.61,14.58-66.58,27.62-133.56,49.91-198.2a17.55,17.55,0,0,0,.41-4.43c-28.48-8.14-71.46-9.5-98.51-2.84-2.29.57-5.65,4-5.54,5.94.92,17.17,7.17,32.46,16.88,46.5,7.52-6.19,13.93-12,20.87-17.05,10.08-7.36,21.23-7.08,32.31-2.64s11.8,10.66,3.52,19.5c-11.56,12.34-24.39,24.11-33.23,38.27C457,452.89,446.39,503.19,434.44,555.2ZM584,334.61c-8.64,35.46-17,69.75-25.49,104.62,21.06,7.9,41.19,12.93,62.23,13.45,1.93.05,5.19-3.5,5.75-5.86a121,121,0,0,0-.2-58.24C620.28,365.17,606.23,348,584,334.61ZM534,544.7c33.13-11.41,59.72-28,77-57.33l-60-16.91C545.47,494.66,539.94,518.78,534,544.7Z"/><path d="M671.05,451c12.88-69-6.82-122.3-71-155.18,9.48-18.4,20.1-35.19,39.17-44.84,3.26-1.66,6.75-2.95,9.79-4.94,7.06-4.64,8.14-11.61,2.53-17.79s-12.51-9.25-21.42-7.65c-23.3,4.17-37.84,19.77-50.35,38-5.25,7.64-9.67,15.85-14.87,24.47-36.85-8.89-74.23-10.16-113.26-5a125.49,125.49,0,0,1,43.2-53.69c58.65-42,121.9-52.4,189.75-24.8,52.37,21.29,82.15,73.06,75,129.18-4.67,36.77-19.76,67.13-45.75,94.81C705.94,432,685.2,448.11,671.05,451Z"/><path d="M434.44,555.2c11.95-52,22.58-102.31,50.15-146.46,8.84-14.16,21.67-25.93,33.23-38.27,8.28-8.84,7.69-15-3.52-19.5s-22.23-4.72-32.31,2.64c-6.94,5.06-13.35,10.86-20.87,17.05-9.71-14-16-29.33-16.88-46.5-.11-1.94,3.25-5.37,5.54-5.94,27.05-6.66,70-5.3,98.51,2.84a17.55,17.55,0,0,1-.41,4.43c-22.29,64.64-35.33,131.62-49.91,198.2-1,4.55-2.11,9.07-3.16,13.61-3.9,16.69-3.88,17-20.5,17.79C461.73,555.66,449.11,555.2,434.44,555.2Z"/><path d="M584,334.61c22.28,13.36,36.33,30.56,42.29,54a121,121,0,0,1,.2,58.24c-.56,2.36-3.82,5.91-5.75,5.86-21-.52-41.17-5.55-62.23-13.45C567,404.36,575.31,370.07,584,334.61Z"/><path d="M534,544.7c6-25.92,11.48-50,17-74.24l60,16.91C593.71,516.67,567.12,533.29,534,544.7Z"/></svg>