<svg id="Calque_1" data-name="Calque 1" xmlns="http://www.w3.org/2000/svg" viewBox="0 0 1000 1000"><defs><style>.cls-1{fill:#fff;}</style></defs><path class="cls-1" d="M1000,1000H0V0H1000ZM340.19,457.55c2.88-12.71,5-23.8,7.93-34.69,16.34-61.29,31.59-123.09,83.81-166.45,7-5.79,5.45-12.36-2.93-16.68-11.94-6.17-24.94-8.08-35.93.58-11.65,9.17-22.93,19.44-32.05,31.05-18.49,23.54-30.92,50.81-38.91,79.39-16.93,60.55-32,121.63-48.25,182.37-12.75,47.55-25,95.35-49.91,138.57-7.2,12.5-5.67,21.38,5.4,27.15,13.56,7.06,27.25,6.41,33.37-5.41,5.34-10.34,11.61-20.45,15.16-31.41,17.63-54.41,34.64-109,51.43-163.69,1.89-6.16,3.75-8.56,10.6-8.21,18.95,1,37.95.79,56.92,1.49A25.87,25.87,0,0,1,408,495c20.79,11.61,31.06,30.93,35.68,53,5.1,24.41,7.89,49.3,12.43,73.84,7.07,38.2,17.62,75.2,40.68,107.42,21.12,29.52,50,45.17,85.92,48.23,10.73.91,20.93-6.92,25.85-18.5,3.61-8.5,1.48-14.59-4.75-17.57,13.8-58.3,27.35-115.52,40.34-170.39,26.34,5.44,51.75,13.1,77.65,15.53,52.76,5,100.63-9,139.53-46.49s54.4-85.36,56.36-138c2.09-56.42-18.89-103.15-64.42-137.08C799,224.69,737.18,214,671.27,223a251.44,251.44,0,0,0-82.14,25.78c-28.22-44.45-43.92-60.33-81.12-74-78.92-29.11-157.41-25.08-232.91,11-58.91,28.12-99.05,73.05-106,141-4.41,42.94,9.37,79.44,43.5,107.18,7.31,6,17.28,4.31,25.82-3.92,6.76-6.51,7.42-13.46,1.17-21.29-38.69-48.45-32.41-115.53,19-158.77,65.69-55.22,141.18-63,221-39.19,29.07,8.69,51.42,27.62,63.34,56.89,2.6,6.38,2.64,10.82-3.14,16.35-39,37.19-58,82.1-51.5,136.68.38,3.18-3.27,8.41-6.45,10.21C438.19,455.56,390.52,459.44,340.19,457.55Z"/><path d="M340.19,457.55c50.33,1.89,98-2,141.65-26.75,3.18-1.8,6.83-7,6.45-10.21-6.46-54.58,12.54-99.49,51.5-136.68,5.78-5.53,5.74-10,3.14-16.35-11.92-29.27-34.27-48.2-63.34-56.89-79.81-23.83-155.3-16-221,39.19-51.45,43.24-57.73,110.32-19,158.77,6.25,7.83,5.59,14.78-1.17,21.29-8.54,8.23-18.51,9.87-25.82,3.92-34.13-27.74-47.91-64.24-43.5-107.18,7-67.93,47.12-112.86,106-141,75.5-36,154-40.06,232.91-11,37.2,13.71,52.9,29.59,81.12,74A251.44,251.44,0,0,1,671.27,223c65.91-9,127.73,1.7,182,42.12,45.53,33.93,66.51,80.66,64.42,137.08-2,52.6-17.48,100.46-56.36,138s-86.77,51.45-139.53,46.49c-25.9-2.43-51.31-10.09-77.65-15.53-13,54.87-26.54,112.09-40.34,170.39,6.23,3,8.36,9.07,4.75,17.57-4.92,11.58-15.12,19.41-25.85,18.5-35.91-3.06-64.8-18.71-85.92-48.23-23.06-32.22-33.61-69.22-40.68-107.42-4.54-24.54-7.33-49.43-12.43-73.84C439,526,428.76,506.65,408,495a25.87,25.87,0,0,0-11.14-3.43c-19-.7-38-.53-56.92-1.49-6.85-.35-8.71,2.05-10.6,8.21C312.52,553,295.51,607.61,277.88,662c-3.55,11-9.82,21.07-15.16,31.41-6.12,11.82-19.81,12.47-33.37,5.41-11.07-5.77-12.6-14.65-5.4-27.15,24.9-43.22,37.16-91,49.91-138.57,16.29-60.74,31.32-121.82,48.25-182.37,8-28.58,20.42-55.85,38.91-79.39,9.12-11.61,20.4-21.88,32.05-31.05,11-8.66,24-6.75,35.93-.58,8.38,4.32,9.91,10.89,2.93,16.68-52.22,43.36-67.47,105.16-83.81,166.45C345.22,433.75,343.07,444.84,340.19,457.55ZM455.77,481.9c20.81,19.32,27.47,44.62,32.59,70.53,3.42,17.3,6.23,34.72,9.62,52,6.54,33.46,14.69,66.5,34.38,95.06,7.16,10.38,16.65,19.15,26.18,29.9,2.06-4.67,3.09-6.39,3.61-8.25,6.64-24,13.8-47.95,19.68-72.17,16.32-67.24,31.27-134.82,48.42-201.85,9.41-36.76,22.89-72.39,44-104.44,11.13-16.9,24.23-31.93,44-39.17,10.31-3.78,20.66-5.41,30.31,2.15,10.93,8.55,10.2,19-2.56,24.52a86.24,86.24,0,0,0-45.65,45.52,611.7,611.7,0,0,0-26.69,72.89c-8.44,28.62-14.38,58-21.55,87.63,31,11.1,61.29,17.56,93.08,14.36,24-2.41,46.34-10,65.57-24.59,40.15-30.53,56.42-72.9,57.94-121.85,1.77-56.93-23.85-98.43-74.53-122.85-64.71-31.18-128.58-24.41-190.29,10-3,1.65-5.23,7.4-5.19,11.21.32,31.3-5.6,61.4-21.29,88.31-10.9,18.7-25.6,35.17-40.18,54.76,4.41,6.67,10.26,16.29,16.89,25.32,6.78,9.23,6.43,17-2.19,24.26-9.41,8-18.87,8.24-26.13-.17-8.61-10-16.59-20.48-24.6-30.45Z"/><path class="cls-1" d="M455.77,481.9l45.43-17.36c8,10,16,20.48,24.6,30.45,7.26,8.41,16.72,8.16,26.13.17,8.62-7.31,9-15,2.19-24.26-6.63-9-12.48-18.65-16.89-25.32,14.58-19.59,29.28-36.06,40.18-54.76,15.69-26.91,21.61-57,21.29-88.31,0-3.81,2.22-9.56,5.19-11.21,61.71-34.38,125.58-41.15,190.29-10,50.68,24.42,76.3,65.92,74.53,122.85-1.52,48.95-17.79,91.32-57.94,121.85-19.23,14.63-41.57,22.18-65.57,24.59-31.79,3.2-62.08-3.26-93.08-14.36,7.17-29.66,13.11-59,21.55-87.63a611.7,611.7,0,0,1,26.69-72.89A86.24,86.24,0,0,1,746,330.22c12.76-5.54,13.49-16,2.56-24.52-9.65-7.56-20-5.93-30.31-2.15-19.77,7.24-32.87,22.27-44,39.17-21.12,32-34.6,67.68-44,104.44-17.15,67-32.1,134.61-48.42,201.85-5.88,24.22-13,48.14-19.68,72.17-.52,1.86-1.55,3.58-3.61,8.25-9.53-10.75-19-19.52-26.18-29.9C512.67,671,504.52,637.93,498,604.47c-3.39-17.32-6.2-34.74-9.62-52C483.24,526.52,476.58,501.22,455.77,481.9Z"/></svg>