<?xml version="1.0" encoding="utf-8"?>
<!-- Generator: Adobe Illustrator 25.4.1, SVG Export Plug-In . SVG Version: 6.00 Build 0)  -->
<svg version="1.1" id="Calque_1" xmlns="http://www.w3.org/2000/svg" xmlns:xlink="http://www.w3.org/1999/xlink" x="0px" y="0px"
	 viewBox="0 0 1000 1000" style="enable-background:new 0 0 1000 1000;" xml:space="preserve">
<path d="M523.44,0c16.09,8.18,13.52,23.39,13.59,38.82c4.27,0,8.04,0,11.81,0c68.66,0,137.33,0.73,205.97-0.44
	c20.69-0.35,33.3,15.38,20.86,35.34c-9.94,15.95-17.45,33.4-26.55,49.9c-3.01,5.46-3.24,9.69-0.19,15.24
	c9.69,17.66,18.9,35.59,28.08,53.52c9.18,17.92,0.55,31.93-19.75,31.96c-69.31,0.09-138.62,0.03-207.93,0.03c-3.81,0-7.62,0-12.39,0
	c0,15.58-0.15,30.13,0.16,44.68c0.05,2.12,2.08,4.34,3.52,6.27c5.37,7.21,11.92,13.76,16.11,21.59
	c11.04,20.58,21.07,41.71,31.81,63.22c1.52-1.87,2.57-3.05,3.51-4.32c20.5-27.58,55.52-25.23,71.49,5.37
	c25.87,49.54,51.13,99.4,76.66,149.12c75.7,147.43,151.42,294.84,227.01,442.33c2.92,5.69,5.85,9.17,13.08,8.54
	c9.73-0.85,15.01,6.19,19.69,13.46c0,8.46,0,16.91,0,25.37C666.67,1000,333.33,1000,0,1000c0-8.46,0-16.92,0-25.37
	c5.27-9.04,12.4-14.25,23.62-14.09c3.08,0.04,7.37-4.29,9.19-7.65c31.45-58,62.61-116.17,93.81-174.3
	c48.42-90.21,96.95-180.36,145.13-270.71c9.14-17.15,21.8-28.61,41.71-28.92c20.4-0.32,33.97,10.93,42.96,28.53
	c2.48,4.86,5.34,9.52,8.8,15.66c2.33-4.14,4.11-7,5.6-9.99c36.08-72.42,72-144.92,108.35-217.2c3.84-7.65,10.48-13.84,15.15-21.14
	c2.04-3.19,3.38-7.45,3.39-11.24c0.19-79.41,0.31-158.81-0.03-238.22C497.64,13.65,501.14,5.2,511.72,0C515.62,0,519.53,0,523.44,0z
	 M73.89,960.2c188.59,0,376.25,0,564.65,0c-1.88-3.76-3.27-6.65-4.77-9.49C596.67,881,559.56,811.3,522.45,741.59
	c-25.81-48.48-51.55-96.99-77.54-145.38c-1.82-3.39-5.37-5.84-8.12-8.73c-2.77,2.89-6.15,5.41-8.21,8.75
	c-5.12,8.29-9.79,16.86-14.36,25.48c-4.22,7.97-9.73,13.86-19.49,13.84c-9.78-0.02-15.05-6.14-19.4-13.98
	c-17.34-31.27-34.78-62.48-52.42-93.57c-2.11-3.71-5.65-6.61-8.53-9.89c-2.91,3.19-6.62,5.94-8.6,9.63
	C230,668.52,154.37,809.4,78.74,950.27C77.11,953.32,75.7,956.5,73.89,960.2z M770.52,654.8c-9.03,9.65-17.01,18.18-24.98,26.7
	c-18.01,19.24-25.22,19.19-43.45-0.35c-9.32-10-18.85-19.81-27.83-30.11c-4.62-5.3-7.72-5.17-12.33,0.05
	c-10.56,11.94-21.57,23.49-32.55,35.06c-12.01,12.67-22.19,12.71-34.05,0.28c-6.51-6.83-12.78-13.89-19.35-20.67
	c-6.28-6.49-13.22-18.17-19.12-17.71c-7.18,0.55-13.32,11.69-20.37,17.7c-5.85,4.99-5.41,9.32-1.93,15.81
	c48.35,90.26,96.46,180.64,144.33,271.16c3.4,6.43,7.15,8.44,14.25,8.41c74.53-0.27,149.06-0.17,223.59-0.17c3.11,0,6.23,0,10.98,0
	C875.05,858.37,823.14,757.28,770.52,654.8z M518.03,306.43c-1.99,3.26-2.91,4.54-3.6,5.94c-41,82.31-81.91,164.65-123.08,246.87
	c-3.37,6.74-0.51,10.68,3.71,15.71c1.44-2.13,2.49-3.68,3.53-5.23c20.05-30.03,59.93-28.86,77.82,2.42
	c6.13,10.71,11.7,21.75,17.51,32.64c5.42,10.16,10.82,20.34,16.72,31.44c10.79-11.52,20.4-22.07,30.34-32.32
	c9.75-10.05,20.72-9.99,30.68-0.09c3.92,3.89,7.59,8.04,11.37,12.09c9.64,10.33,19.27,20.67,29.21,31.33
	c13.33-14.29,25.7-27.65,38.18-40.9c12.48-13.25,22.94-13.22,35.39,0.03c12.62,13.43,25.17,26.91,38.16,40.81
	c7.56-8.05,14.07-15.76,21.43-22.56c5.33-4.92,5.23-8.95,2.05-15.11c-38.65-74.75-77.02-149.65-115.49-224.49
	c-1.53-2.98-3.34-5.81-5.99-10.37c-6.19,12.37-11.56,22.7-16.55,33.22c-4.26,8.97-9.35,16.49-20.69,16.4
	c-10.88-0.09-15.81-7.39-20-15.96c-9.27-18.98-18.71-37.87-28.12-56.77C533.4,337.04,526.12,322.59,518.03,306.43z M537.25,184.56
	c64.19,0,127.32,0,191.53,0c-6.48-12.52-11.78-24.42-18.56-35.41c-7.52-12.19-7.68-23.16-0.07-35.42
	c6.88-11.08,12.18-23.16,18.29-35.02c-64.62,0-127.87,0-191.19,0C537.25,114.32,537.25,149.1,537.25,184.56z"/>
<path d="M472.07,761.66c2.65,2.11,9.84,5.25,12.87,10.69c19.1,34.35,37.43,69.14,55.68,103.96c5.53,10.56,1.83,21.79-7.81,26.87
	c-9.61,5.07-20.89,1.73-26.55-8.77c-18.52-34.31-36.92-68.69-54.94-103.26C443.88,776.87,452.7,761.77,472.07,761.66z"/>
</svg>
