<?xml version="1.0" encoding="utf-8"?>
<!-- Generator: Adobe Illustrator 25.4.1, SVG Export Plug-In . SVG Version: 6.00 Build 0)  -->
<svg version="1.1" id="Calque_1" xmlns="http://www.w3.org/2000/svg" xmlns:xlink="http://www.w3.org/1999/xlink" x="0px" y="0px"
	 viewBox="0 0 1000 1000" style="enable-background:new 0 0 1000 1000;" xml:space="preserve">
<path d="M505.86,0c7.61,5.01,10.97,11.87,10.96,21.18c-0.15,108.32-0.1,216.64-0.12,324.96c0,1.92-0.27,3.85-0.37,5.14
	c-10.71,0-21.11,0-32.63,0c-0.11-2.22-0.41-5.63-0.41-9.04c-0.02-106.04,0.07-212.09-0.17-318.13c-0.02-10.18,2.2-18.41,11.01-24.1
	C498.05,0,501.95,0,505.86,0z"/>
<path d="M178.47,965.93c72.47-132.8,144.64-265.06,217.44-398.46c8.98,7.45,17.41,14.44,25.84,21.44
	c18.91,15.71,38.02,15,55.71-2.14c5.84-5.66,11.75-11.28,17.29-17.23c3.81-4.09,6.86-3.82,10.55,0.03
	c5.86,6.1,11.92,12.01,17.99,17.91c16.37,15.9,35.85,16.87,53.49,2.6c8.82-7.13,17.51-14.43,27.32-22.52
	c72.51,132.86,144.66,265.06,217.43,398.38C606.86,965.93,393.39,965.93,178.47,965.93z"/>
<path d="M550.69,237.69c-0.22-3.84-0.54-6.7-0.54-9.56c-0.03-48.82,0.16-97.64-0.2-146.46c-0.06-7.89,2.6-10.46,10.11-11.75
	c35.59-6.14,70.82-3.79,105.52,4.85c42.34,10.55,84.87,16.56,128.51,11.37c1.25-0.15,2.55,0.11,4.96,0.25
	c0.36,3.45,1.03,6.82,1.03,10.2c0.07,48.5-0.08,96.99,0.18,145.49c0.04,7.22-1.77,10.21-9.5,10.95
	c-37.34,3.61-74.02,0.52-110.27-8.95C638.11,232.98,595.25,230.08,550.69,237.69z"/>
<path d="M195.81,683.66c24.96,23.02,45.25,23.03,69.84-9.97c6.9,7.57,13.75,15.09,21.3,23.38c-0.66,1.29-2.04,4.18-3.58,7
	c-46.23,84.75-92.55,169.45-138.57,254.3c-3.36,6.19-6.8,8.73-14.1,8.64c-28.3-0.35-56.62,0.12-84.93,0.28c-3.1,0.02-6.21,0-11.05,0
	C88.89,871.92,142.13,778.18,195.81,683.66z"/>
<path d="M964.96,966.72c-34.8,0-67.62,0.22-100.43-0.36c-3.11-0.06-7.14-4.65-9.03-8.08c-38.66-70.36-77.06-140.87-115.52-211.34
	c-8.25-15.12-16.38-30.32-24.92-45.28c-2.71-4.75-2.66-7.66,1.76-11.5c5.57-4.85,10.12-10.86,14.16-15.32
	c12.04,8.36,22.57,18.69,35.21,23.69c14.57,5.76,26.59-4.39,37.7-15.35C857.48,777.52,910.68,871.17,964.96,966.72z"/>
<path d="M412.34,537.6c5.66-10.43,11.04-20.41,16.47-30.36c21.02-38.52,42-77.06,63.2-115.49c1.75-3.18,4.99-5.54,7.54-8.28
	c2.86,2.76,6.62,5.03,8.46,8.36c25.45,46.11,50.63,92.35,75.86,138.58c1.23,2.25,2.22,4.63,3.57,7.46
	c-10.64,8.86-20.9,17.85-31.78,26.02c-1.92,1.44-7.35,0.62-9.53-1.16c-6.29-5.1-11.68-11.29-17.54-16.94
	c-17.7-17.08-39.71-17.05-57.19,0.05c-5.82,5.69-11.23,11.86-17.52,16.95c-2.17,1.76-7.61,2.5-9.55,1.04
	C433.46,555.66,423.21,546.66,412.34,537.6z"/>
<path d="M304.87,664.68c-12.14-11.02-20.66-25.03-39.03-24.63c-18.58,0.4-26.13,15.11-37.9,26.59c-4.85-4.19-9.63-8.31-15.05-13
	c15.68-27.57,31.05-54.95,46.81-82.1c3.9-6.71,9.9-6.83,13.75-0.25c13.62,23.27,26.87,46.76,39.93,70.34c1.11,2,0.53,5.6-0.46,7.95
	C310.92,654.34,308.1,658.74,304.87,664.68z"/>
<path d="M787.28,653.94c-4.89,4.45-9.16,8.33-13.68,12.45c-12.59-9.91-20.24-25.52-38.76-26.32c-18.96-0.82-27.64,13.27-38.4,24.61
	c-13.4-16.92-13.42-17.05-3.55-34.46c10.57-18.66,21.09-37.34,31.78-55.94c5.97-10.38,11.41-10.39,17.37,0.03
	C757.05,600.53,771.9,626.84,787.28,653.94z"/>
</svg>
