<?xml version="1.0" encoding="utf-8"?>
<!-- Generator: Adobe Illustrator 25.4.1, SVG Export Plug-In . SVG Version: 6.00 Build 0)  -->
<svg version="1.1" id="Calque_1" xmlns="http://www.w3.org/2000/svg" xmlns:xlink="http://www.w3.org/1999/xlink" x="0px" y="0px"
	 viewBox="0 0 1000 1000" style="enable-background:new 0 0 1000 1000;" xml:space="preserve">
<path d="M496.23,977c-5.49-2.06-11.27-3.57-16.41-6.28c-17.17-9.08-25.67-24.06-28.63-42.88c-6.82-43.39-13.67-86.77-20.96-130.08
	c-8.25-49.05-17.06-98.01-25.49-147.03c-3.86-22.44,1.03-42.89,17.39-58.99c14.06-13.83,31.78-20.44,51.75-21.56
	c80.01-4.48,160-9.29,240-13.99c1.25-0.07,2.49-0.18,6.68-0.48c-4.24-1.63-5.89-2.52-7.65-2.91c-11.64-2.54-23.29-6.86-34.98-6.98
	c-14.84-0.15-20.15-8.59-24.36-20.11c-8.94-24.43-17.82-48.9-27.25-73.14c-2.17-5.58-1.01-8.99,2.35-13.42
	c9.71-12.81,18.84-26.07,28.19-39.15c-0.73-0.56-1.45-1.12-2.18-1.68c-13.6,12-27.15,24.07-40.81,36
	c-21.72,18.97-43.49,37.89-65.29,56.76c-14.92,12.91-30.03,25.59-44.87,38.59c-21.03,18.42-46.91,20.27-70.09,4.31
	c-30.95-21.3-61.72-42.87-93.66-65.07c28.23-21.36,51.77-45.21,62.15-80.09c17.72,10.19,34.67,19.95,52.23,30.05
	c1.95-2.06,4.1-4.25,6.16-6.53c26.02-28.87,51.99-57.78,78.05-86.62c18.9-20.91,37.81-41.8,56.92-62.52
	c6.33-6.86,13.02-13.44,19.99-19.64c24.42-21.71,63.19-24.54,88.89-4.54c20.7,16.11,39.84,34.3,59.03,52.26
	c25.5,23.86,42.52,53.87,59.92,83.71c29.53,50.6,45.67,106.01,61.57,161.76c8.17,28.65,11.49,57.48,5.25,86.1
	c-7.32,33.59-19.11,65.42-53.39,82.83c-22.2,11.27-45.52,13.22-69.52,12.7c-48.07-1.05-96.13-2.43-144.21-3.35
	c-22.27-0.42-44.56-0.07-68.33-0.07c0,2.13-0.09,5.09,0.01,8.05c2.16,63.71,4.12,127.44,6.62,191.14
	c1.3,32.98-10.37,50.57-42.16,61.25c-0.8,0.27-1.44,1.06-2.15,1.6C510.06,977,503.14,977,496.23,977z"/>
<path d="M374.82,138c0.47-72.1,55.21-126.75,126.72-125.99c68.19,0.72,128.21,59.14,127.6,132.45
	c-0.58,70.46-58.72,126.64-126.76,125.56C432.73,268.91,374.52,213.88,374.82,138z"/>
<path d="M775.53,967.91c-20.11,0-40.23,0.18-60.34-0.04c-31.1-0.34-53.78-22.15-54.25-53.16c-0.55-35.78-0.55-71.59,0-107.37
	c0.47-30.68,22.7-52.71,53.36-53.04c41.16-0.44,82.36,0.66,123.5-0.4c26.23-0.68,56.96,26.55,55.62,56.8
	c-1.48,33.53-1.46,67.22-0.01,100.75c1.32,30.58-29.78,58.32-56.61,56.72C816.45,966.94,795.96,967.91,775.53,967.91z"/>
<path d="M249.31,476.41c-75.39,0.62-141.96-58.87-142.6-136.25c-0.65-77.43,64.77-137.4,140.23-138.71
	c78.49-1.36,144.73,62.84,144.85,137.28C391.9,412.38,327.41,477.03,249.31,476.41z M248.91,258.54
	c-44.27,0.29-82.62,32.82-83.15,79.4c-0.53,47.31,37.45,79.97,82.01,81.65c42.12,1.58,84.88-35.89,85.19-80.05
	C333.27,294.7,290.33,256.64,248.91,258.54z"/>
<path d="M290.34,339.19c-0.14,22.59-18.78,40.2-42.31,40c-21.88-0.19-40.17-18.67-40.01-40.41c0.16-21.88,18.57-40.09,40.43-39.98
	C272.08,298.9,290.48,316.65,290.34,339.19z"/>
</svg>
