<?xml version="1.0" encoding="utf-8"?>
<!-- Generator: Adobe Illustrator 25.4.1, SVG Export Plug-In . SVG Version: 6.00 Build 0)  -->
<svg version="1.1" id="Calque_1" xmlns="http://www.w3.org/2000/svg" xmlns:xlink="http://www.w3.org/1999/xlink" x="0px" y="0px"
	 viewBox="0 0 1000 1000" style="enable-background:new 0 0 1000 1000;" xml:space="preserve">
<path d="M0,455.13c5.7-18.53,14.18-35.52,32.87-43.61c9.85-4.26,21.11-5.37,31.81-7.51c3.37-0.68,7-0.11,11.87-0.11
	c0-12.82-0.07-24.73,0.01-36.64c0.21-30.32,10.62-55.85,35.21-74.68c17.59-13.47,37.77-18.62,59.51-17.44
	c9.86,0.54,14.95-1.57,19.2-12.01c12.15-29.83,45.31-52.87,86.77-46.56c31.83,4.85,60.5,32.85,65.12,66.49
	c1.63,11.85,1.37,24,1.42,36.02c0.16,36.1,0.06,72.19,0.06,109.14c104.05,0,207.58,0,312.3,0c0-3.63,0-7.09,0-10.55
	c0-40.02-0.25-80.04,0.08-120.06c0.32-38.38,22.42-67.99,58.05-78.83c38.96-11.85,82.03,8.86,96.44,47.01
	c2.81,7.45,6.43,9.75,14.09,9.33c32.5-1.82,60.16,8.09,80.61,34.64c13.07,16.98,17.79,36.55,18.01,57.5
	c0.12,11.69,0.02,23.37,0.02,36.67c5.38,0,10.1-0.15,14.82,0.02c29.72,1.07,50.83,17.34,59.63,45.8c0.57,1.83,1.39,3.58,2.1,5.37
	c0,29.95,0,59.9,0,89.85c-5.85,18.44-14.32,35.46-33.03,43.48c-9.87,4.23-21.12,5.31-31.83,7.43c-3.37,0.67-6.98,0.1-11.69,0.1
	c0,13.21,0.19,25.47-0.04,37.73c-0.67,37.26-16.28,65.65-50.07,82.88c-15.54,7.93-32.41,9.19-49.45,8.43
	c-6.7-0.3-10.24,1.41-12.81,8.33c-12,32.39-46.85,54.74-78.6,51.21c-40.97-4.55-69.7-30.62-75.13-68.46
	c-0.92-6.41-1.16-12.97-1.16-19.45c-0.08-75.18-0.05-150.36-0.05-225.54c0-3.84,0-7.68,0-12.11c-104.27,0-207.6,0-311.61,0
	c0,27.2,0,54.34,0,82.73c4.03,0,7.82,0,11.61,0c82,0,164.01-0.02,246.01,0.05c4.52,0,9.17,0.17,13.53,1.22
	c6.92,1.66,10.18,6.94,10.03,13.77c-0.16,7.31-3.98,12.36-11.45,13.64c-3.81,0.65-7.78,0.61-11.67,0.61
	c-82,0.03-164.01,0.02-246.01,0.02c-3.84,0-7.69,0-12.73,0c0,4.45,0,7.9,0,11.35c0,40.03,0.25,80.06-0.08,120.09
	c-0.32,38.36-22.46,68.02-58.07,78.85c-38.98,11.85-82.02-8.86-96.43-47.07c-2.83-7.5-6.53-9.69-14.13-9.27
	c-32.52,1.8-60.17-8.14-80.6-34.71c-13.06-16.99-17.75-36.57-17.96-57.54c-0.12-11.93-0.02-23.87-0.02-36.78
	c-5.68,0-10.16,0.1-14.63-0.02c-29.04-0.78-50.84-17.21-59.51-44.74c-0.67-2.12-1.6-4.16-2.41-6.24C0,515.03,0,485.08,0,455.13z
	 M183.15,305.53c-45.45-7.81-77.22,18.35-77.27,62.7c-0.09,87.87-0.08,175.75,0.08,263.62c0.01,7.09,0.64,14.4,2.46,21.22
	c8.31,31.22,37.76,47.74,74.73,41.54c0-3.57,0-7.38,0-11.2c0-88.52-0.01-177.05,0.02-265.57c0-3.9-1.12-8.72,0.72-11.49
	c3.08-4.63,7.88-10.63,12.42-11.06c4.58-0.43,10.97,4.27,14.23,8.52c2.52,3.28,1.85,9.34,1.86,14.16
	c0.09,92.75,0.03,185.51,0.13,278.26c0.01,6.79-0.01,13.81,1.59,20.33c6.11,24.86,29.69,41.53,53.71,38.67
	c28.19-3.36,46.64-23.95,46.67-53.12c0.13-134.74,0.14-269.48-0.01-404.21c-0.03-30.44-21.84-53.01-50.65-53.38
	c-28.49-0.37-50.64,22.21-51.31,52.62c-0.31,14.31,0.1,28.64-0.13,42.96c-0.19,11.62-5.66,18.07-14.73,18.09
	c-9.26,0.02-14.34-6.16-14.48-18.02C183.05,328.54,183.15,316.92,183.15,305.53z M787.55,500.09c0-56.29,0.03-112.58-0.02-168.88
	c-0.01-13.66,0.39-27.37-0.53-40.98c-1.88-27.78-29.15-49.12-56.72-45.05c-27.82,4.1-44.79,24.64-44.8,54.72
	c-0.06,133.41-0.03,266.82-0.01,400.23c0,3.25,0.03,6.52,0.35,9.75c2.89,28.49,29.81,49.32,57.95,44.89
	c27.13-4.27,43.67-24.64,43.73-54.57C787.63,633.5,787.54,566.8,787.55,500.09z M817.37,695.01c45.88,5.17,76.19-17.55,76.53-58.77
	c0.74-90.75,0.73-181.52,0.01-272.27c-0.33-41.47-34.97-67.17-76.54-58.3C817.37,435.2,817.37,564.83,817.37,695.01z M76.19,434.1
	c-32.41-5.33-48.86,12.39-47.11,40.11c1.17,18.47,0.18,37.08,0.23,55.62c0.08,27.7,19.63,42.47,46.88,35.3
	C76.19,521.67,76.19,478.16,76.19,434.1z M923.84,565.92c32.33,4.98,48.99-11.99,47.09-41.3c-1.2-18.47-0.14-37.08-0.24-55.62
	c-0.15-26.82-20.68-41.78-46.84-34.1C923.84,478.38,923.84,521.89,923.84,565.92z"/>
</svg>
