<?xml version="1.0" encoding="utf-8"?>
<!-- Generator: Adobe Illustrator 25.4.1, SVG Export Plug-In . SVG Version: 6.00 Build 0)  -->
<svg version="1.1" id="Calque_1" xmlns="http://www.w3.org/2000/svg" xmlns:xlink="http://www.w3.org/1999/xlink" x="0px" y="0px"
	 viewBox="0 0 1000 1000" style="enable-background:new 0 0 1000 1000;" xml:space="preserve">
<path d="M0,529.3c0-19.53,0-39.06,0-58.59c0.57-2.81,1.46-5.59,1.66-8.42c4.86-69.75,23.32-135.83,57.07-196.93
	C136.51,124.53,254.64,38.29,412.89,7.89C431.97,4.22,451.42,2.58,470.7,0c19.53,0,39.06,0,58.59,0c2.51,0.55,5,1.43,7.54,1.6
	c61.02,4.05,119.55,18.55,174.36,45.42c153.91,75.46,247.96,197.49,280.92,365.97c3.72,19.02,5.31,38.46,7.89,57.71
	c0,19.53,0,39.06,0,58.59c-0.57,2.81-1.46,5.59-1.66,8.42c-4.86,69.75-23.32,135.83-57.07,196.93
	c-77.78,140.82-195.91,227.07-354.17,257.47c-19.07,3.66-38.53,5.31-57.81,7.89c-19.53,0-39.06,0-58.59,0
	c-2.51-0.55-5-1.43-7.54-1.6c-61.36-4.03-120.21-18.68-175.25-45.81C134.55,876.99,40.7,755.14,7.88,587.01
	C4.17,567.98,2.58,548.54,0,529.3z M624.86,900.4c180.13-54.1,326.75-243.48,289.09-470.8C879.67,222.72,688.03,59.7,457.79,82.18
	C249.32,102.54,80,279.84,80.12,500.11c0.12,219.35,163.03,366.81,300.59,401.1c0-28.87-0.73-57.51,0.2-86.1
	c0.94-28.84,11.26-53.89,34.63-72.36c0.85-0.67,1.35-1.79,1.09-1.44c-28.34-6.88-57.05-12.31-84.78-20.91
	c-52.62-16.32-91.85-49.43-114.57-100.15c-14.81-33.07-19.36-68.53-21.25-104.5c-2.7-51.55,10.12-97.81,43.82-137.74
	c2.46-2.91,3.46-9,2.29-12.72c-9.56-30.41-9.37-60.86-1.57-91.43c8.39-32.88,11.72-34.78,45.47-26.48
	c32.37,7.96,60.53,24.8,88.61,41.96c4.36,2.66,11.13,3.98,16.01,2.78c74.42-18.39,148.74-18.34,223.04,0.3
	c6.52,1.64,11.42,0.32,17.22-2.98c20.29-11.57,40.51-23.54,61.82-32.96c17.04-7.54,34.98-14.83,54.54-12.09
	c3.17,0.44,7.68,2.88,8.69,5.51c14.32,37.08,18.89,74.92,6.32,113.48c-2.14,6.57-1.63,11.04,3.12,16.47
	c20.33,23.23,33.62,50.21,39.19,80.59c8.55,46.7,3.52,92.64-9.49,137.9c-10.88,37.84-32.55,68.51-63.81,92.18
	c-32.98,24.98-71.56,36.26-111.48,43.77c-10.92,2.06-21.98,3.4-33.21,5.11c6.25,6.64,12.22,12.19,17.26,18.48
	c16.29,20.31,20.76,44.39,20.95,69.59C625,851.54,624.86,875.6,624.86,900.4z"/>
</svg>
