<?xml version="1.0" encoding="utf-8"?>
<!-- Generator: Adobe Illustrator 25.4.1, SVG Export Plug-In . SVG Version: 6.00 Build 0)  -->
<svg version="1.1" id="Calque_1" xmlns="http://www.w3.org/2000/svg" xmlns:xlink="http://www.w3.org/1999/xlink" x="0px" y="0px"
	 viewBox="0 0 1000 1000" style="enable-background:new 0 0 1000 1000;" xml:space="preserve">
<path d="M889.8,1000c-259.86,0-519.73,0-779.59,0c-1.12-0.31-2.22-0.78-3.37-0.92C56.04,993.16,13.91,955.11,3,905.22
	c-1.12-5.11-2.01-10.28-3-15.42C0,629.93,0,370.07,0,110.2c0.31-1.14,0.77-2.25,0.92-3.41C7.05,57.76,40.87,18.13,88.39,4.65
	C95.53,2.63,102.93,1.53,110.2,0C370.07,0,629.93,0,889.8,0c1.12,0.31,2.23,0.78,3.38,0.91c49.47,5.81,90.56,41.67,102.8,89.94
	c1.7,6.7,2.71,13.58,4.03,20.38c0,258.84,0,517.69,0,776.53c-0.31,1.46-0.7,2.9-0.91,4.37c-7.38,50.81-35.29,84.9-83.64,101.96
	C907.22,996.99,898.36,998.08,889.8,1000z M537.42,832.39c0-2.61,0-4.62,0-6.63c0-73.81-0.05-147.61,0.06-221.42
	c0.01-8.99,0.36-18.04,1.38-26.97c2.12-18.52,7.67-35.9,19.7-50.58c14.83-18.09,34.82-25.06,57.46-26.45
	c36.31-2.23,61.97,15.21,73.05,49.85c5.45,17.06,6.7,34.65,6.71,52.38c0.04,74.32,0.02,148.63,0.02,222.95c0,2.17,0,4.33,0,6.62
	c45.79,0,91.04,0,136.64,0c0-1.94,0-3.45,0-4.96c-0.04-91.32-0.04-182.65-0.14-273.97c-0.03-23.37-2.24-46.5-8.86-69.04
	c-9.99-34.02-27.91-62.52-57.85-82.54c-24.39-16.31-51.66-23.62-80.65-25.51c-52.81-3.43-97.62,13.19-133.09,53.1
	c-4.87,5.48-9.14,11.5-14.42,18.21c0-2.91,0-4.72,0-6.53c0-15.31-0.17-30.61,0.1-45.92c0.08-4.63-1.14-6.01-5.9-5.99
	c-39.96,0.19-79.93,0.11-119.89,0.11c-1.82,0-3.63,0-5.48,0c0,148.18,0,295.66,0,443.27C450.02,832.39,493.35,832.39,537.42,832.39z
	 M181.17,389.4c0,148,0,295.45,0,442.89c45.75,0,91.08,0,136.62,0c0-147.73,0-295.17,0-442.89
	C272.11,389.4,226.79,389.4,181.17,389.4z M248.78,331.05c44.95-0.02,80.97-36.31,81.01-81.62c0.04-45.49-36.22-82.08-81.26-82
	c-44.57,0.08-81.07,37.04-80.95,81.98C167.7,294.51,204.06,331.07,248.78,331.05z"/>
</svg>
