<?xml version="1.0" encoding="utf-8"?>
<!-- Generator: Adobe Illustrator 25.4.1, SVG Export Plug-In . SVG Version: 6.00 Build 0)  -->
<svg version="1.1" id="Calque_1" xmlns="http://www.w3.org/2000/svg" xmlns:xlink="http://www.w3.org/1999/xlink" x="0px" y="0px"
	 viewBox="0 0 1000 1000" style="enable-background:new 0 0 1000 1000;" xml:space="preserve">
<path d="M476.53,0c14.97,0,29.93,0,44.9,0c2.17,0.3,4.33,0.77,6.51,0.88c29.77,1.52,59.21,5.59,88.1,12.83
	c133.31,33.44,236.87,108.35,309.98,224.64c39.84,63.38,63.08,132.81,71.02,207.3c1.13,10.62,1.98,21.26,2.96,31.89
	c0,14.63,0,29.25,0,43.88c-0.31,2.16-0.78,4.32-0.9,6.49c-1.75,32.67-6.63,64.87-15.06,96.47
	c-31.34,117.42-96.5,211.76-195.02,282.66c-70.77,50.93-149.94,80.74-236.73,90.02c-10.28,1.1-20.58,1.96-30.87,2.93
	c-14.63,0-29.25,0-43.88,0c-7.09-0.64-14.18-1.33-21.27-1.92c-52.9-4.39-103.83-16.94-152.5-38.03
	c-97.55-42.28-174.39-108.8-230.18-199.28C34.23,696.91,10.82,627.43,2.95,552.78c-1.1-10.44-1.97-20.9-2.95-31.35
	c0-14.97,0-29.93,0-44.9c0.3-1.99,0.77-3.97,0.87-5.97C2.28,442.48,6,414.68,12.65,387.4C46.27,249.41,123.98,143.39,245.26,69.74
	c61.72-37.48,129.04-59.26,200.9-66.85C456.27,1.83,466.41,0.96,476.53,0z M784.52,349.56c-1.74,1.22-2.72,1.87-3.66,2.57
	c-91.64,67.88-183.29,135.76-274.93,203.64c-6.85,5.07-6.85,5.05-13.5,0.13c-91.09-67.49-182.18-134.97-273.27-202.45
	c-1.68-1.24-3.4-2.41-5.55-3.93c0,112.63,0,224.26,0,336.1c190.43,0,380.58,0,570.92,0C784.52,573.66,784.52,462.04,784.52,349.56z
	 M214,315.95c1.92,1.55,2.8,2.31,3.73,3C309.8,387.13,401.89,455.3,493.87,523.6c3.87,2.87,6.29,3.15,10.36,0.13
	c91.82-68.23,183.78-136.29,275.7-204.39c1.14-0.84,2.17-1.84,3.97-3.39C593.73,315.95,404.58,315.95,214,315.95z"/>
</svg>
