<?xml version="1.0" encoding="utf-8"?>
<!-- Generator: Adobe Illustrator 25.4.1, SVG Export Plug-In . SVG Version: 6.00 Build 0)  -->
<svg version="1.1" id="Calque_1" xmlns="http://www.w3.org/2000/svg" xmlns:xlink="http://www.w3.org/1999/xlink" x="0px" y="0px"
	 viewBox="0 0 1000 1000" style="enable-background:new 0 0 1000 1000;" xml:space="preserve">
<path d="M509.81,58.87c12.01,8.21,19.69,28.61,19.69,52.85c0.02,262.51,0.02,525.02,0,787.54c0,31.38-13.13,55.82-29.69,55.74
	c-4.34-0.02-8.45-1.8-12.15-5c-10.11-8.73-17.1-28.02-17.1-50.73c-0.03-262.51-0.02-525.02-0.01-787.54
	c0-24.22,7.7-44.66,19.69-52.86c0.33-0.22,0.65-0.45,0.97-0.68c5.28-3.77,12.33-3.77,17.61-0.01
	C509.15,58.42,509.48,58.65,509.81,58.87z"/>
</svg>
