<?xml version="1.0" encoding="utf-8"?>
<!-- Generator: Adobe Illustrator 25.4.1, SVG Export Plug-In . SVG Version: 6.00 Build 0)  -->
<svg version="1.1" id="Calque_1" xmlns="http://www.w3.org/2000/svg" xmlns:xlink="http://www.w3.org/1999/xlink" x="0px" y="0px"
	 viewBox="0 0 1000 1000" style="enable-background:new 0 0 1000 1000;" xml:space="preserve">
<style type="text/css">
	.st0{fill:#4A4A4A;}
</style>
<path class="st0" d="M505.58,321.84c-0.26-2.64-2.84-4.56-4.16-4.37c-1.95,0.28-4.05,3.49-4.66,7.01
	c-7.68,44.32-15.37,88.64-23.02,132.96c-2.37,13.75-5.22,27.45-6.82,41.29c-1.92,16.66,9.6,31.7,25.89,35.3
	c16.33,3.6,32.61-5.27,38.58-20.91c2.79-7.31,2.02-14.59,0.88-22.1 M-61.39,466.42 M519.86,514.12c-7.8,10.87-23.26,13.28-34.2,5.34
	c-10.96-7.96-13.42-23.24-5.5-34.16c7.9-10.9,23.27-13.31,34.2-5.37C525.28,487.85,527.74,503.14,519.86,514.12z M520.16,463.89
	c-13.68-8.81-26.78-8.98-40.72-0.28c7.21-41.65,14.32-82.68,21.42-123.72l0.74,0C507.74,380.95,513.89,422.02,520.16,463.89z
	 M750,500c0,138.07-111.93,250-250,250S250,638.07,250,500s111.93-250,250-250S750,361.93,750,500z"/>
</svg>
