<?xml version="1.0" encoding="utf-8"?>
<!-- Generator: Adobe Illustrator 25.4.1, SVG Export Plug-In . SVG Version: 6.00 Build 0)  -->
<svg version="1.1" id="Calque_1" xmlns="http://www.w3.org/2000/svg" xmlns:xlink="http://www.w3.org/1999/xlink" x="0px" y="0px"
	 viewBox="0 0 1000 1000" style="enable-background:new 0 0 1000 1000;" xml:space="preserve">
<path d="M1000,851.88c-5.44,7.11-10.19,14.9-16.43,21.22c-37.21,37.66-74.75,74.99-112.21,112.4
	c-17.04,17.01-32.36,16.91-49.54-0.26c-52.61-52.58-105.22-105.15-157.78-157.77c-2.51-2.52-4.61-5.46-7.55-8.98
	c-3.51,3.25-6.09,5.49-8.5,7.89c-23.91,23.86-47.75,47.79-71.69,71.62c-20.44,20.35-44.54,14.92-53.57-12.18
	c-54.25-162.69-108.44-325.39-162.59-488.12c-7.04-21.14,2.72-39.2,22.73-41.72c4.93-0.62,10.43,0.32,15.21,1.91
	c163.66,54.34,327.28,108.79,490.86,163.4c25.4,8.48,30.99,32.94,12.14,51.99c-23.98,24.24-48.15,48.31-72.39,72.29
	c-2.5,2.48-6.04,3.9-9.1,5.81c0.21,1.35,0.43,2.7,0.64,4.04c2.9,2.08,6.16,3.79,8.66,6.28c51.98,51.83,103.95,103.66,155.65,155.77
	c6.02,6.06,10.36,13.79,15.48,20.75C1000,842.78,1000,847.33,1000,851.88z"/>
<path d="M389.73,0c16.93,7.73,21.97,21.13,21.72,39.23c-0.76,54.52-0.17,109.05-0.33,163.58c-0.07,22.37-19.94,36.83-39.61,29
	c-11.64-4.63-18.57-13.63-18.64-26.08c-0.32-59.07-0.24-118.14-0.09-177.21c0.04-14.5,9.68-22.41,21.35-28.51
	C379.33,0,384.53,0,389.73,0z"/>
<path d="M288.44,254.89c-1.67,12.13-6.37,21.03-16.3,26.5c-10.22,5.63-20.61,5.03-30.51-1.15c-2.45-1.53-4.59-3.62-6.65-5.68
	c-39.99-39.94-79.92-79.94-119.95-119.84c-9.09-9.06-12.79-19.57-8.8-31.89c6.55-20.25,31.9-27.12,47.45-11.89
	c42.24,41.36,83.91,83.3,125.35,125.45C283.66,241.09,285.37,248.65,288.44,254.89z"/>
<path d="M288.55,505.43c-3.32,6.45-5.3,14.2-10.16,19.14c-40.98,41.7-82.35,83.02-123.91,124.13
	c-11.99,11.86-29.88,11.44-41.21,0.24c-11.58-11.46-11.76-29.59,0.47-41.92c40.72-41.05,81.67-81.86,122.63-122.67
	c9.45-9.42,20.75-11.74,33.14-6.77C280.43,481.96,286.94,492.49,288.55,505.43z"/>
<path d="M659.4,136.08c-1.91,3.55-4.28,11.79-9.55,17.17c-40.5,41.26-81.45,82.08-122.51,122.78
	c-12.34,12.23-30.47,12.09-41.95,0.61c-11.48-11.48-11.51-29.59,0.73-41.93c40.73-41.03,81.65-81.87,122.64-122.66
	c9.43-9.38,20.87-11.81,33.15-6.54C653.09,110.3,658.54,119.46,659.4,136.08z"/>
<path d="M117.73,409.37c-27.58,0-55.15,0.04-82.73-0.01c-19.8-0.03-33.09-11.68-33.24-29c-0.15-17.34,13.2-29.44,32.76-29.45
	c56.13-0.04,112.25-0.05,168.38,0c19.6,0.02,32.91,12.08,32.75,29.46c-0.16,17.36-13.4,28.96-33.25,28.99
	C174.18,409.4,145.96,409.37,117.73,409.37z"/>
</svg>
