<?xml version="1.0" encoding="utf-8"?>
<!-- Generator: Adobe Illustrator 25.4.1, SVG Export Plug-In . SVG Version: 6.00 Build 0)  -->
<svg version="1.1" id="Calque_1" xmlns="http://www.w3.org/2000/svg" xmlns:xlink="http://www.w3.org/1999/xlink" x="0px" y="0px"
	 viewBox="0 0 1000 1000" style="enable-background:new 0 0 1000 1000;" xml:space="preserve">
<path d="M0,984.65c0-3.93,1.51-7.7,4.22-10.54c3.93-4.13,7.86-8.26,11.89-12.29C333.4,644.48,650.71,327.17,968.03,9.87
	c1.98-1.98,4.03-3.89,6.09-5.79C976.94,1.46,980.65,0,984.5,0c0.07,0,0.14,0,0.21,0c8.44,0,15.28,6.84,15.28,15.28v0.06
	c0,3.93-1.51,7.71-4.23,10.55c-4.6,4.82-9.19,9.66-13.91,14.37C667.79,354.37,353.7,668.45,39.59,982.53
	c-4.49,4.49-9.1,8.86-13.7,13.25c-2.84,2.71-6.62,4.23-10.55,4.23h-0.06C6.84,1000,0,993.16,0,984.72L0,984.65z"/>
<path d="M817.1,544.8c62.48,20.85,126.89,92,119.81,187.5c-6.93,93.38-78.41,165.38-172.33,173.24
	c-92,7.7-165.9-53.26-188.55-119.68c74.19,22.99,141.37,11.12,196.54-43.85C827.86,686.93,840.16,619.85,817.1,544.8z"/>
<path d="M564.94,609.82c44.78-22.85,44.78-22.85,76.31-75.46c13.11,36.82,37.95,61.47,76.3,75c-38.3,13.58-63.3,38.05-76.84,76.92
	C626.92,647.93,602.57,623.15,564.94,609.82z"/>
<path d="M406.24,280.99c0.09,68.82-55.82,125.07-124.5,125.25c-69.25,0.18-125.57-56.03-125.48-125.25
	c0.09-68.81,56.11-124.72,124.98-124.73C350.06,156.25,406.15,212.22,406.24,280.99z"/>
<path d="M125.44,189.25c-9.99-29.88-20.63-61.74-32-95.77c33.47,11.12,65.43,21.74,97.08,32.25
	C168.65,147.09,147.06,168.16,125.44,189.25z"/>
<path d="M436.3,191.69c-22.17-22.14-43.27-43.21-65.45-65.35c32.19-10.77,64.16-21.46,98.12-32.82
	C457.82,127,447.18,158.98,436.3,191.69z"/>
<path d="M126.22,370.76c22.18,22.16,43.29,43.26,65.52,65.48c-32.24,10.79-64.26,21.51-98.26,32.89
	C104.65,435.55,115.31,403.53,126.22,370.76z"/>
<path d="M437.08,373.18c10.11,30.33,20.67,61.97,31.91,95.69c-33.4-11.09-65.35-21.7-96.92-32.19
	C393.87,415.4,415.44,394.33,437.08,373.18z"/>
<path d="M327.88,108.92c-31.54,0-61.64,0-93.21,0c15.39-30.82,30.42-60.92,46.54-93.23C297.18,47.6,312.3,77.79,327.88,108.92z"/>
<path d="M108.76,327.77c-31.02-15.52-61.03-30.53-92.98-46.52c31.96-15.99,61.97-31,92.98-46.51
	C108.76,266.04,108.76,296.08,108.76,327.77z"/>
<path d="M453.53,327.91c0-31.73,0-61.81,0-93.32c30.94,15.45,60.99,30.45,93.36,46.62C514.88,297.23,484.58,312.39,453.53,327.91z"
	/>
<path d="M234.51,453.36c31.81,0,61.72,0,93.44,0c-15.54,31.1-30.63,61.3-46.7,93.45C265.24,514.8,250.22,484.76,234.51,453.36z"/>
</svg>
