<?xml version="1.0" encoding="utf-8"?>
<!-- Generator: Adobe Illustrator 25.4.1, SVG Export Plug-In . SVG Version: 6.00 Build 0)  -->
<svg version="1.1" id="Calque_1" xmlns="http://www.w3.org/2000/svg" xmlns:xlink="http://www.w3.org/1999/xlink" x="0px" y="0px"
	 viewBox="0 0 1000 1000" style="enable-background:new 0 0 1000 1000;" xml:space="preserve">
<path d="M823.5,512.73c-1.74,9.02-2.96,18.63-5.3,26.95c-7.43,26.37-18.98,39.97-33.98,41.71c-1.47,0.17-2.95,0.08-4.42,0.08
	c-186.59,0-373.18,0.01-559.77-0.01c-22.37,0-38.45-24.84-42.69-65.74c-4.94-47.7,12.8-94.22,37.03-97.02
	c2.73-0.32,5.47-0.18,8.21-0.18c183.85-0.01,367.71-0.01,551.56-0.01c29.29,0,38.99,13.51,49.36,68.75
	C823.5,495.76,823.5,504.24,823.5,512.73z"/>
</svg>
