<?xml version="1.0" encoding="utf-8"?>
<!-- Generator: Adobe Illustrator 25.4.1, SVG Export Plug-In . SVG Version: 6.00 Build 0)  -->
<svg version="1.1" id="Calque_1" xmlns="http://www.w3.org/2000/svg" xmlns:xlink="http://www.w3.org/1999/xlink" x="0px" y="0px"
	 viewBox="0 0 1000 1000" style="enable-background:new 0 0 1000 1000;" xml:space="preserve">
<path d="M835.45,200c0.86-12.17,1.78-24.34,2.56-36.51c0.84-12.99,1.39-26,2.36-38.98c1.43-19.17,15.31-31.91,33.29-30.86
	c17.42,1.02,30.15,15.06,29.11,33.73c-2.67,47.77-5.93,95.5-8.92,143.25c-0.45,7.14-0.73,14.3-1.06,21.45
	c-0.82,17.7-14.67,31.18-32.37,31.14c-50.46-0.12-100.92-0.29-151.38-0.63c-15.02-0.1-27.09-9.3-30.67-22.6
	c-3.49-12.94,1.3-27.71,12.96-34.03c6.53-3.54,14.72-5.4,22.22-5.56c28.62-0.62,57.26-0.25,88.16-0.25
	c-3.55-4.54-5.82-7.86-8.5-10.8C687.73,133.73,557.5,88.82,405.88,127.1C253.87,165.47,157.8,266.44,123.55,419.53
	c-47.2,210.94,91.01,417.5,302.83,458.97c215.31,42.15,423.58-105.45,454.87-322.68c2.68-18.62,2.86-37.59,4.34-56.39
	c1.28-16.34,11.75-28.17,26.7-30.49c14.08-2.18,28.27,5.93,33.49,19.66c1.46,3.84,2.13,8.23,2.09,12.36
	c-1.09,116.29-40.71,217.73-119.49,303.13c-70.64,76.58-158.31,122.66-261.22,138.73C368.74,973.8,170.08,864.4,90.33,680.91
	C-12.54,444.22,99.96,174.79,340.67,81.34c167.96-65.2,362.72-20.22,486.69,112.47c2.14,2.29,3.68,5.15,5.5,7.74
	C833.72,201.03,834.58,200.51,835.45,200z"/>
</svg>
